<?xml version="1.0" encoding="utf-8"?>
<!-- Generator: Adobe Illustrator 23.0.4, SVG Export Plug-In . SVG Version: 6.00 Build 0)  -->
<svg version="1.1" xmlns="http://www.w3.org/2000/svg" xmlns:xlink="http://www.w3.org/1999/xlink" x="0px" y="0px"
	 viewBox="0 0 200 200" style="enable-background:new 0 0 200 200;" xml:space="preserve">
<style type="text/css">
	.st0{fill:#ED2224;}
	.st1{fill:#FFFFFF;}
</style>
<g id="Layer_1">
	<circle class="st0" cx="100" cy="100" r="100"/>
</g>
<g id="Layer_2">
	<g>
		<g>
			<path class="st1" d="M63.92,170.49c3.79,5.19,8.7,11.08,15.07,13.13c6.06,1.95,14.12,2.13,19.33-1.94
				c2.08-1.62,3.4-3.45,6.38-3.53c2.26-0.06,3.79,1.08,5.55,2.26c3.07,2.07,5.54,3.81,9.41,3.65c6.61-0.28,11.26-5.4,14.54-10.61
				c1.72-2.73-2.6-5.24-4.32-2.52c-1.8,2.86-3.83,5.67-6.98,7.15c-4.1,1.93-6.79,0.4-10.14-1.97c-3.67-2.61-7.8-3.82-12.17-2.11
				c-2.01,0.78-3.25,2.05-4.88,3.36c-3.7,2.97-8.17,2.74-12.61,1.99c-6.44-1.09-11.16-6.3-14.86-11.36
				C66.36,165.4,62.02,167.89,63.92,170.49L63.92,170.49z"/>
		</g>
	</g>
	<g>
		<g>
			<path class="st1" d="M106.2,175.13c-0.1-0.07-0.21-0.13-0.31-0.2c-0.64,1.52-1.28,3.05-1.93,4.57c3.05,1.14,5.12,4.45,8.35,5.73
				c3.61,1.43,7.61,1.63,11.35,0.53c6.22-1.84,13.04-8.44,14.21-14.98c0.56-3.15-4.26-4.5-4.82-1.33
				c-1.09,6.13-8.09,11.98-14.2,12.04c-6.07,0.06-8.5-4.93-13.55-6.81c-2.75-1.02-4.23,3.11-1.93,4.57c0.1,0.07,0.21,0.13,0.31,0.2
				C106.4,181.18,108.92,176.85,106.2,175.13L106.2,175.13z"/>
		</g>
	</g>
	<g>
		<g>
			<path class="st1" d="M106.36,176.77c-0.06-0.11-0.13-0.23-0.19-0.34c-0.96-1.72-3.31-1.51-4.32,0c-3.43,5.14-9.52,5.46-15.1,4.93
				c-4.92-0.46-8.49-0.4-11.84-4.68c-1.98-2.53-5.5,1.03-3.54,3.54c4.93,6.3,10.95,6.2,18.28,6.54c6.56,0.31,12.88-2.36,16.51-7.81
				c-1.44,0-2.88,0-4.32,0c0.06,0.11,0.13,0.23,0.19,0.34C103.61,182.11,107.93,179.59,106.36,176.77L106.36,176.77z"/>
		</g>
	</g>
	<g>
		<g>
			<path class="st1" d="M65.03,169.3c-0.04,0.18-0.08,0.35-0.13,0.53c1.39-0.37,2.79-0.74,4.18-1.1
				c-5.29-4.28-9.78-9.63-13.88-15.08c-1.86-2.47-3.45-4.91-4.95-7.6c-1.73-3.11-4.15-5.82-5.03-9.33c-0.79-3.12-5.61-1.8-4.82,1.33
				c0.82,3.27,2.63,5.7,4.37,8.52c2.02,3.27,3.81,6.51,6.12,9.61c4.38,5.86,8.98,11.5,14.66,16.09c1.38,1.12,3.7,0.88,4.18-1.1
				c0.04-0.18,0.08-0.35,0.13-0.53C70.61,167.51,65.79,166.17,65.03,169.3L65.03,169.3z"/>
		</g>
	</g>
	<g>
		<g>
			<path class="st1" d="M44.83,135.4c-4.09-5.11-6.81-11.53-10.21-17.11c-3.99-6.55-8.66-13.44-7.27-21.51
				c0.55-3.15-4.27-4.5-4.82-1.33c-1.43,8.23,1.69,15.34,5.87,22.28c4.22,7,7.79,14.82,12.89,21.2
				C43.31,141.45,46.82,137.89,44.83,135.4L44.83,135.4z"/>
		</g>
	</g>
	<g>
		<g>
			<path class="st1" d="M30.29,102.36c-1.64-3.68-2.28-8.03-3.25-11.92c-1.08-4.33-2.31-8.74-2.42-13.24
				c-0.18-7.3,1.79-15.05,7.29-20.08c2.38-2.18-1.16-5.7-3.54-3.54c-6.07,5.54-8.48,13.67-8.75,21.74
				c-0.17,4.94,0.97,9.84,2.14,14.6c1.22,4.98,2.12,10.26,4.22,14.96C27.28,107.82,31.59,105.28,30.29,102.36L30.29,102.36z"/>
		</g>
	</g>
	<g>
		<g>
			<path class="st1" d="M27.56,55.57c0,0.05-0.01,0.09-0.01,0.14c0.83-0.83,1.67-1.67,2.5-2.5c-0.06,0-0.13-0.01-0.19-0.01
				c0.72,1.25,1.44,2.51,2.16,3.76c1.01-1.99,5.68-4.52,7.48-5.82c2.29-1.66,4.64-3.18,7.36-4.05c5.16-1.66,11.55-1.56,16.97-1.58
				c4.47-0.01,10.84,0.31,14.98,1.86c5.08,1.89,8.34,6.1,13.19,8.3c2.91,1.32,5.45-2.99,2.52-4.32c-5.51-2.5-9.19-7.04-15.11-9.06
				c-3.21-1.1-6.03-0.88-9.3-1.26c-3.3-0.39-6.37-0.52-9.7-0.37c-5.99,0.26-12.3,0.17-17.86,2.75c-3,1.4-5.61,3.41-8.21,5.42
				c-1.92,1.48-5.52,3.41-6.65,5.62c-0.9,1.76,0.22,3.61,2.16,3.76c0.06,0,0.13,0.01,0.19,0.01c1.42,0.11,2.41-1.24,2.5-2.5
				c0-0.05,0.01-0.09,0.01-0.14C32.79,52.36,27.79,52.37,27.56,55.57L27.56,55.57z"/>
		</g>
	</g>
	<g>
		<g>
			<path class="st1" d="M64.95,42.3c-0.6,0.05-1.2,0.11-1.8,0.16c0.22,1.64,0.44,3.27,0.66,4.91c2.72-1.04,5.26-1.51,8.19-1.45
				c0-1.67,0-3.33,0-5c-1.14,0.1-2.28,0.05-3.42-0.13c-0.22,1.64-0.44,3.27-0.66,4.91c3.22-0.4,6.08-0.1,9.04,1.27
				c2.62,1.21,4.86-1.69,3.03-3.93c-3.59-4.38-10.41-2.85-15.39-2.71c-5.69,0.17-11.99-0.43-17.42,1.49
				c-4.49,1.59-9.98,2.67-13.44,6.16c-3.35,3.39-7.1,7.07-8.86,11.56c-1.18,3,3.66,4.3,4.82,1.33c1.3-3.31,4.98-6.9,7.57-9.35
				c2.7-2.56,6.71-3.05,10.09-4.37c4.47-1.75,8.87-1.57,13.63-1.71c3.62-0.11,12.87-2.02,15.46,1.13c1.01-1.31,2.02-2.62,3.03-3.93
				c-3.75-1.74-7.44-2.46-11.56-1.95c-2.49,0.31-3.73,4.47-0.66,4.91c1.61,0.23,3.11,0.36,4.75,0.31c3.21-0.11,3.23-4.93,0-5
				c-3.37-0.07-6.35,0.42-9.52,1.62c-2.42,0.92-2.37,5.18,0.66,4.91c0.6-0.05,1.2-0.11,1.8-0.16C68.13,47.01,68.16,42.01,64.95,42.3
				L64.95,42.3z"/>
		</g>
	</g>
	<g>
		<g>
			<path class="st1" d="M93.91,52.31c-0.42,0.17-0.85,0.34-1.27,0.52c0.64,1.52,1.28,3.05,1.93,4.57c5.75-2.91,11.74-5.26,17.74-7.6
				c5.89-2.3,11.34-2.64,17.61-2.26c3.21,0.19,3.2-4.81,0-5c-6.77-0.41-12.59-0.04-18.94,2.44c-6.4,2.5-12.8,5-18.94,8.1
				c-2.48,1.26-0.72,5.65,1.93,4.57c0.42-0.17,0.85-0.34,1.27-0.52C98.18,55.94,96.9,51.1,93.91,52.31L93.91,52.31z"/>
		</g>
	</g>
	<g>
		<g>
			<path class="st1" d="M112.71,43.77c-0.46,0.34-0.93,0.69-1.39,1.03c-2.57,1.91-0.43,5.71,2.52,4.32
				c5.72-2.69,11.38-2.72,17.56-2.66c5.72,0.05,11.37-0.12,16.91,1.58c4.99,1.53,10.35,3.4,13.91,7.27
				c3.75,4.08,4.07,9.1,5.15,14.39c0.64,3.15,5.46,1.82,4.82-1.33c-1.28-6.26-1.8-11.26-6.04-16.12c-3.92-4.5-9.31-6.57-14.9-8.5
				c-6.51-2.25-13.03-2.22-19.84-2.29c-7.21-0.07-13.46,0.23-20.08,3.35c0.84,1.44,1.68,2.88,2.52,4.32
				c0.46-0.34,0.93-0.69,1.39-1.03C117.79,46.19,115.3,41.84,112.71,43.77L112.71,43.77z"/>
		</g>
	</g>
	<g>
		<g>
			<path class="st1" d="M167.55,69.59c2.83,5.6,0.81,12.65-0.15,18.43c-1.05,6.28-2.29,11.76-5.57,17.33
				c-1.64,2.78,2.69,5.3,4.32,2.52c4.02-6.83,5.08-13.67,6.65-21.25c1.3-6.3,2.05-13.65-0.93-19.55
				C170.41,64.2,166.1,66.73,167.55,69.59L167.55,69.59z"/>
		</g>
	</g>
	<g>
		<g>
			<path class="st1" d="M167.47,89.48c-0.21,4.45-2.14,7.93-3.21,12.13c-1,3.93-1.45,7.89-2.77,11.76
				c-2.83,8.29-7.44,15.86-10.88,23.9c-1.25,2.93,3.06,5.48,4.32,2.52c3.61-8.44,8.4-16.39,11.38-25.1
				c1.51-4.41,1.83-9.08,3.27-13.48c1.31-4.03,2.69-7.45,2.9-11.73C172.63,86.26,167.63,86.27,167.47,89.48L167.47,89.48z"/>
		</g>
	</g>
	<g>
		<g>
			<path class="st1" d="M151.27,136.55c-1.72,2.86-2.04,6.25-3.62,9.27c-1.67,3.19-3.31,6.4-5.03,9.56
				c-3.24,5.94-7.03,11.55-11.05,16.99c-1.92,2.59,2.42,5.08,4.32,2.52c4.19-5.66,8.1-11.51,11.45-17.72
				c1.73-3.21,3.4-6.45,5.09-9.69c0.74-1.41,1.67-2.84,2.18-4.35c0.36-1.06,0.41-3.09,0.99-4.06
				C157.25,136.31,152.93,133.79,151.27,136.55L151.27,136.55z"/>
		</g>
	</g>
	<g>
		<g>
			<path class="st1" d="M64.85,84.85c-7.49,1.35-11.81,9.03-11.89,16.2c-0.08,6.97,3.48,17.99,11.06,19.85
				c11.18,2.75,11.56-10.89,11.66-18.18c0.1-6.84,1.07-20.22-6.46-23.54c-4.21-1.86-9.79-0.66-11.02,4.48
				c-2.49,10.44-1.33,20.45,2.96,30.22c2.51,5.73,12.69,4.35,13.71-1.79c1.51-9.07,3.01-18.14,4.52-27.21c-4.82,0-9.64,0-14.46,0
				c2.57,8.03,2.61,16.17,2.56,24.52c-0.05,9.85,14,9.39,15,0c0.69-6.48,2.39-12.97,4.99-18.95c-4.66-1.26-9.32-2.52-13.98-3.79
				c-0.56,10.49-1.86,20.84-3.95,31.14c4.82,1.33,9.64,2.66,14.46,3.99c1.75-10.52,5.62-20,11.78-28.71
				c-4.57-1.93-9.14-3.85-13.71-5.78c-3.48,11.22-6.96,22.45-10.45,33.67c-2.91,9.4,11.03,12.79,14.46,3.99
				c4.87-12.49,11.67-24.35,20.04-34.83c-4.18-2.43-8.36-4.86-12.54-7.3c-3.41,11.11-8.23,21.5-14.41,31.34
				c4.57,1.93,9.14,3.85,13.71,5.78c3.75-12.17,8.02-24.52,16.89-33.98c-4.18-1.1-8.36-2.21-12.54-3.31
				c0.9,2.62-0.44,5.38-1.22,7.96c-1.02,3.36-2.06,6.71-3.14,10.05c-2.15,6.68-4.44,13.32-6.82,19.93
				c-2.85,7.9,10.24,13.56,13.71,5.78c4.9-10.98,9.83-22.32,17.46-31.73c-4.18-2.43-8.36-4.86-12.54-7.3
				c-4.61,13.93-9.22,27.87-13.83,41.8c-2.71,8.2,9.44,12.97,13.71,5.78c7.19-12.11,14.38-24.21,21.57-36.32
				c-4.57-1.93-9.14-3.85-13.71-5.78c-3.48,13.68-7.58,27.38-9.84,41.33c-1.3,8.06,8.98,13.45,13.71,5.78
				c6.29-10.2,12.59-20.4,18.88-30.61c-4.57-1.93-9.14-3.85-13.71-5.78c-2.14,9.66-5.56,18.7-10.47,27.29
				c4.57,1.93,9.14,3.85,13.71,5.78c3.05-9.98,7.34-19.29,12.86-28.14c-4.57-1.93-9.14-3.85-13.71-5.78
				c-1.39,7.83-3.55,15.48-6.84,22.74c4.57,1.93,9.14,3.85,13.71,5.78c3.84-10.15,7.78-20.67,14.58-29.28
				c-4.18-2.43-8.36-4.86-12.54-7.3c-2.5,10.03-5.01,20.05-7.51,30.08c-1.98,7.92,9.94,13.74,13.71,5.78
				c4.5-9.5,9.68-18.6,15.53-27.33c-4.57-1.93-9.14-3.85-13.71-5.78c-1.93,8.19-4.64,16.05-8.38,23.59
				c-4.3,8.69,7.48,15.54,12.95,7.57c3.4-4.95,6.79-9.89,10.19-14.84c-4.66-1.26-9.32-2.52-13.98-3.79
				c0.23,2.02,0.27,3.69-0.22,5.66c-2.03,8.17,9.32,13.23,13.71,5.78c3.01-5.1,6.3-9.97,10.06-14.55c-4.18-2.43-8.36-4.86-12.54-7.3
				c-5.71,14.35-13.48,27.79-22.7,40.16c-3.34,4.48,1.14,11.67,6.48,11.29c7.03-0.51,13.16-3.89,16.39-10.35
				c1.68-3.37,1.14-7.3-1.93-9.68c-2.68-2.06-7.52-2.35-9.85,0.59c-5.58,7.05-11.17,14.11-16.75,21.16c4.27,1.77,8.54,3.54,12.8,5.3
				c-0.29-10.37,2.29-20.2,4.98-30.13c2.15-7.92-10.15-13.75-13.71-5.78c-4.59,10.27-9.39,20.43-14.42,30.49c4.32,0,8.63,0,12.95,0
				c0.23,0.81,0.39,0.46,0.49-1.05c0.33-1.17,0.68-2.35,1.03-3.51c0.62-2.04,1.28-4.08,1.97-6.1c1.48-4.34,3.13-8.6,4.9-12.83
				c-4.82-1.33-9.64-2.66-14.46-3.99c-3.28,10.14-7.44,19.83-12.51,29.2c4.66,1.26,9.32,2.52,13.98,3.79
				c-0.96-10.67,1.37-21.66,2.66-32.24c0.94-7.72-10.49-9.73-13.98-3.79c-1.9,3.24-3.8,6.48-5.7,9.71
				c-1.12,1.91-3.58,7.28-4.57,7.81c1.26-0.34,2.52-0.68,3.79-1.02c-0.35-0.02-0.71-0.04-1.06-0.05c2.41,1.84,4.82,3.67,7.23,5.51
				c-1.06-7.19-1.78-14.41-2.25-21.66c-0.53-8.18-12.41-10.5-14.73-1.99c-1.76,6.45-3.53,12.89-5.29,19.34c4.82,0,9.64,0,14.46,0
				c-2.37-7.75-2.47-15.62-2.48-23.66c-0.01-8.3-12.79-10.39-14.73-1.99c-1.23,5.31-2.46,10.63-3.69,15.94
				c4.18-1.1,8.36-2.21,12.54-3.31c-2.48-2.45-2.85-7.57-3.73-10.81c-1.26-4.63-2.52-9.27-3.78-13.9
				c-2.24-8.24-14.56-6.44-14.73,1.99c-0.08,3.64-0.15,7.28-0.23,10.92c-0.03,1.65-0.06,3.31-0.1,4.96
				c-0.01,0.66-0.03,1.32-0.04,1.98c-0.22,1.56-0.08,1.62,0.44,0.18c3.93,0.51,7.85,1.01,11.78,1.52
				c-4.8-6.88-9.01-14.12-13.18-21.39c-3.66-6.38-14.13-3.69-13.98,3.79c0.14,6.81,0.6,13.59,1.38,20.35
				c1.84-2.41,3.67-4.82,5.51-7.23c-0.3,0.11-0.6,0.22-0.9,0.33c1.93,0.25,3.85,0.5,5.78,0.76c1.42,0.85,0.82,1.15,0.07-0.63
				c-0.61-1.43-1.35-2.83-2-4.24c-1.16-2.54-2.25-5.11-3.26-7.71c-2.04-5.25-3.8-10.6-5.37-16.01c-2.3-7.93-15.08-6.67-14.73,1.99
				c0.18,4.39,0.35,8.77,0.53,13.16c4.91-0.66,9.82-1.33,14.73-1.99c-2.17-7.02-3.8-14.18-4.59-21.49
				c-4.91,0.66-9.82,1.33-14.73,1.99c1.69,6.42,3.39,12.85,5.08,19.27c2.47,9.35,16.68,5.4,14.46-3.99
				c-1.94-8.24-3.88-16.49-5.83-24.73c-2.23-9.49-16.22-5.39-14.46,3.99c1.19,6.38,3.39,12.37,6.34,18.14
				c3.29,6.41,14.65,3.64,13.98-3.79c-0.76-8.29-0.95-16.57-0.58-24.89c-1.84,2.41-3.67,4.82-5.51,7.23
				c0.32-0.07,0.64-0.14,0.97-0.21c-1.33,0-2.66,0-3.99,0c-1.95-1.83-2.52-1.96-1.72-0.37c0.41,1.11,0.82,2.23,1.23,3.34
				c0.82,2.23,1.64,4.46,2.46,6.68c3.35,9.09,16.16,5.54,14.46-3.99c-0.76-4.28-1.13-8.52-1.26-12.87
				c-4.66,1.26-9.32,2.52-13.98,3.79c2.46,3.99,4.93,7.98,7.39,11.97c3.03,4.9,12.77,5,13.71-1.79c0.84-6.12,1.3-12.14,1.03-18.32
				c-4.66,1.26-9.32,2.52-13.98,3.79c3.7,5.23,7.4,10.47,11.1,15.7c5.02,7.1,15.11,2.69,13.71-5.78c-0.59-3.53-1.17-7.06-1.76-10.58
				c-4.57,1.93-9.14,3.85-13.71,5.78c3.8,5.07,7.87,9.73,12.61,13.93c4.48,3.97,13.29,1.62,12.8-5.3c-0.35-4.97-0.7-9.94-1.04-14.91
				c-4.66,1.26-9.32,2.52-13.98,3.79c3.71,5.04,7.58,9.95,11.63,14.72c4.39,5.16,12.69,0.78,12.8-5.3
				c0.06-3.45,0.13-6.91,0.19-10.36c-4.27,1.77-8.54,3.54-12.8,5.3c3.12,3.64,6.24,7.28,9.36,10.92c4.54,5.29,12.44,0.67,12.8-5.3
				c0.24-3.97,0.3-7.93,0.2-11.91c-4.27,1.77-8.54,3.54-12.8,5.3c3.05,3.92,5.56,8.25,7.77,12.68c3.35,6.71,14.18,3.44,13.98-3.79
				c-0.12-4.23-0.24-8.47-0.36-12.7c-4.66,1.26-9.32,2.52-13.98,3.79c3.26,7.13,6.52,14.26,9.78,21.38
				c1.55,3.39,6.23,4.39,9.37,3.07c3.7-1.56,4.91-5.09,4.34-8.85c-0.68-4.56-0.75-9.16-0.52-13.75c-4.66,1.26-9.32,2.52-13.98,3.79
				c3.36,6.52,6.73,13.04,10.09,19.57c3.56,6.9,13.75,3.28,13.98-3.79c0.1-3.15,0.2-6.29,0.3-9.44c0.04-1.26,0.08-2.52,0.12-3.77
				c0.03-0.94,0.06-1.89,0.09-2.83c0.16-1.71-0.12-1.29-0.84,1.25c-4.18-1.1-8.36-2.21-12.54-3.31c1.88,5.41,3.75,10.82,5.63,16.24
				c2.59,7.47,15.55,6.94,14.73-1.99c-0.54-5.86-1.98-11.09-4.74-16.32c-2.65-5.02-10.23-4.73-12.95,0
				c-3.62,6.28-5.43,13.08-5.34,20.34c0.1,8.11,13.38,10.62,14.73,1.99c0.45-2.86,0.97-5.71,1.63-8.53c0.3-1.25,0.62-2.5,0.96-3.74
				c0.17-0.62,0.34-1.24,0.53-1.86c0.6-1.36,0.24-1.32-1.08,0.11c-2.82-1.15-5.65-2.3-8.47-3.45c1.98,4.5,3.6,9.12,5.04,13.81
				c1.78,5.81,10.68,7.8,13.71,1.79c2.09-4.14,4.17-8.28,6.26-12.42c-4.66-1.26-9.32-2.52-13.98-3.79
				c-0.68,5.09-1.37,10.19-2.05,15.28c-0.75,5.57,6.95,9.47,11.29,6.48c5.05-3.48,9.09-7.62,12.22-12.92
				c-4.66-1.26-9.32-2.52-13.98-3.79c0.36,2.82,0.48,5.55-0.04,8.35c-1.13,6.01,3.39,10.12,9.23,9.23
				c9.28-1.42,10.61-15.46,10.02-22.77c-0.77-9.49-4.84-18.12-10-25.98c-2.82,3.67-5.65,7.34-8.47,11.02
				c0.14-0.33,0.07-0.64-0.2-0.95c4.91-0.66,9.82-1.33,14.73-1.99c-3.95-13.66-22.48-17.1-34.65-18.53
				c-7.73-0.9-15.2,0.2-22.35,3.22c-6.36,2.68-12.16,6.48-18.93,8.1c-8.11,1.94-6.54,15.25,1.99,14.73
				c9.35-0.56,18.72-0.72,28.08-0.37c4.52,0.17,9.03,0.44,13.54,0.83c1.78,0.15,3.6,0.22,5.35,0.56c0.85,0.16,1.68,0.39,2.5,0.67
				c0.88,0.69,0.7,0.29-0.53-1.2c0.34-1.26,0.68-2.52,1.02-3.79c-0.2,0.38-0.4,0.76-0.6,1.15c1.49-1.15,2.99-2.3,4.48-3.45
				c-2.91,1.2-9.34-0.62-12.56-0.95c-4.58-0.46-9.17-0.92-13.75-1.38c-3.93-0.39-7.86-0.79-11.78-1.18
				c-4.05-0.41-8.63-0.31-12.55-1.57c-3.2-1.03-5.35-3.54-7.91-5.62c-2.76-2.24-5.67-4.18-8.89-5.68
				c-6.95-3.25-14.56-4.71-22.22-4.13c-7.18,0.55-10.51,9.97-3.79,13.98c6.31,3.76,12.73,7.29,19.29,10.59
				c2.52-4.32,5.05-8.63,7.57-12.95c-6.82-3.29-14.03-6.22-21.67-3.97c-6.8,2-13.16,6.88-19.23,10.43
				c3.67,2.82,7.34,5.65,11.02,8.47c2.17-5.89,5.3-11.25,9.04-16.27c4.32-5.79-2.79-12.06-8.47-11.02
				c-16.12,2.97-23.03,16.05-26.49,30.74c4.82,0,9.64,0,14.46,0c-0.69-1.85-0.69-1.88,0.38-3.43c-4.57-1.93-9.14-3.85-13.71-5.78
				c-2.65,10.84-3.15,21.31-1.46,32.33c1.43,9.32,2.94,18.77,9.51,25.98c3.7,4.07,11.35,2.1,12.54-3.31
				c3.16-14.45,2.89-29.15-1.03-43.43c-2.24-8.18-14.65-6.49-14.73,1.99c-0.11,11.56-0.14,23.68,3.77,34.72
				c3.76,10.59,10.56,19.16,12,30.64c4.27-1.77,8.54-3.54,12.8-5.3c-5.18-6.56-8.82-14.1-11.13-22.11
				c-4.18,2.43-8.36,4.86-12.54,7.3c5.06,4.45,7.67,10.39,10.09,16.56c2.41,6.16,4.42,14.36,10.64,17.84
				c6.62,3.7,16.19-0.03,16.67-8.13c0.46-7.75-7.78-14.02-12.52-19.21c-1.1,4.18-2.21,8.36-3.31,12.54
				c5.94-1.13,11.88-2.33,17.83-3.39c4.65-0.83,7.34-0.71,10.43,2.83c5.25,6.02,8.4,13.72,15.99,17.37c1,0.48,2.23,1.12,3.33,1.29
				c0.36,0.12,0.73,0.2,1.11,0.27c1.43,0.43,1.07-0.3-1.09-2.18c-0.62,0.33,0.68,6.23,0.82,6.64c1.92,5.64,7.91,7.74,13.44,7.33
				c12.99-0.96,20.35-13.26,27.62-22.5c-3.93-3.03-7.85-6.06-11.78-9.09c-3.95,8.36-9.31,15.42-16.32,21.45
				c-5.35,4.6-0.62,12.34,5.3,12.8c3.77,0.3,7.27-0.66,10.46-2.67c8.21-5.17,1.03-17.29-7.57-12.95c-2.45,1.24-4.73,2.74-6.8,4.56
				c-0.37,0.32-2.53,1.97-2.63,2.64c-0.83,0.73-0.39,0.84,1.32,0.34c-0.15-0.08-0.31-0.16-0.46-0.24c0.13-1.17-5.47-5.04-6.38-5.77
				c-2.03-1.62-3.76-3.08-5.23-5.24c-3.1-4.57-5.97-8.94-10.19-12.6c-4.18-3.62-8.83-6.8-13.56-9.66
				c-4.98-3.02-10.89-4.79-16.15-1.31c-4.6,3.05-6.5,9.23-3.66,14.11c2.62,4.5,8.24,6.06,12.47,8.58c2.4,1.43,4.75,2.96,6.98,4.64
				c1.1,0.83,2.17,1.7,3.21,2.61c0.42,0.37,0.85,0.75,1.27,1.12c1.8,2.32,2.57,1.06,2.29-3.78c1.26-0.34,2.52-0.68,3.79-1.02
				c-3.71,0.2-8.87-2.62-12.46-3.8c-4.83-1.59-9.65-3.17-14.48-4.76c-7.3-2.4-12.37,7.39-7.3,12.54
				c5.37,5.45,8.81,12.19,16.01,15.64c6.82,3.27,14.78,3.78,21.85,0.96c3.75-1.5,6.42-5.02,5.24-9.23c-1-3.57-5.43-6.75-9.23-5.24
				c-4.2,1.68-8.7,1.98-12.61-0.69c-4.36-2.98-6.97-8.32-10.65-12.05c-2.43,4.18-4.86,8.36-7.3,12.54
				c7.84,2.58,15.67,5.2,23.53,7.73c6.56,2.11,14.83,1.68,16.81-6.44c1.91-7.82-4.66-13.1-10.11-17.34
				c-2.75-2.13-5.57-4.15-8.54-5.96c-1.45-0.88-2.93-1.72-4.44-2.51c-0.81-0.42-4.23-2.59-3.65-1.59c0.34,1.26,0.68,2.52,1.02,3.79
				c-3.6,1.99-4.09,3.45-1.48,4.4c0.46,0.29,0.92,0.58,1.38,0.88c1.62,1.03,3.22,2.07,4.8,3.16c2.62,1.81,5.07,3.76,7.29,6.06
				c4.79,4.98,7.29,10.97,12.85,15.36c5.18,4.1,9.17,9.8,16.4,10.04c7.25,0.25,10.55-6.59,16.36-9.53
				c-2.52-4.32-5.05-8.63-7.57-12.95c-1.57,0.99-1.05,0.77-2.89,0.62c1.77,4.27,3.54,8.54,5.3,12.8
				c7.86-6.76,14.24-15.11,18.67-24.49c1.61-3.42,1.19-7.27-1.93-9.68c-2.67-2.06-7.53-2.35-9.85,0.59
				c-3.75,4.76-7.28,9.91-11.51,14.26c-1.96,2.01-3.95,2.43-6.03,3.87c-0.32,0.02-0.64,0.04-0.95,0.05
				c0.78,1.15,1.56,2.31,2.34,3.46c0.08-0.01-0.22-3.53-0.24-3.71c-0.56-5.32-3.47-9.23-8.65-10.81c-3.4-1.04-4.91-1.84-7.21-4.78
				c-4.98-6.39-8.6-13.67-16.54-16.87c-5.3-2.14-10.77-1.37-16.24-0.37c-5.95,1.09-11.89,2.26-17.83,3.39
				c-5.86,1.11-6.82,8.69-3.31,12.54c1.57,1.72,3.14,3.44,4.71,5.16c0.78,0.86,1.57,1.72,2.35,2.58c1.03,1.53,1.38,1.82,1.07,0.87
				c0.34-1.26,0.68-2.52,1.02-3.79c4.51,0.66,5.94-0.08,4.29-2.22c-0.27-0.54-0.52-1.09-0.75-1.65c-0.57-1.3-1.07-2.62-1.58-3.94
				c-1.24-3.16-2.46-6.33-3.82-9.43c-2.62-5.95-6.01-11.51-10.94-15.84c-5.39-4.75-14.72-0.27-12.54,7.3
				c3.07,10.63,8.15,20.06,14.99,28.72c3.85,4.88,13.6,0.97,12.8-5.3c-0.73-5.75-1.81-11.3-3.9-16.73
				c-2.02-5.24-4.97-9.88-7.39-14.91c-4.98-10.37-4.59-22.5-4.49-33.71c-4.91,0.66-9.82,1.33-14.73,1.99
				c3.2,11.66,3.62,23.63,1.03,35.46c4.18-1.1,8.36-2.21,12.54-3.31c-4.28-4.7-4.78-13.39-5.65-19.36
				c-1.2-8.28-0.52-16.26,1.46-24.35c2.08-8.51-8.93-12.68-13.71-5.78c-3.03,4.38-3.77,10-1.89,14.99c2.42,6.43,12.63,7.79,14.46,0
				c2.32-9.85,5.02-18.23,16.02-20.26c-2.82-3.67-5.65-7.34-8.47-11.02c-4.55,6.1-7.93,12.72-10.56,19.86
				c-2.33,6.33,5.7,11.59,11.02,8.47c4.28-2.51,8.53-5.09,12.85-7.53c4.7-2.65,8.27-1.16,12.9,1.07c8.63,4.16,16.24-8.59,7.57-12.95
				c-6.56-3.3-12.98-6.83-19.29-10.59c-1.26,4.66-2.52,9.32-3.79,13.98c6.7-0.51,13.06,0.72,18.81,4.31
				c6.21,3.88,10.29,9.38,17.86,10.96c8.03,1.68,16.55,1.89,24.71,2.71c8.18,0.82,16.37,1.64,24.55,2.46
				c3.92,0.39,7.95,0.62,11.02-2.4c2.54-2.49,3.28-6.41,2.49-9.79c-1.52-6.44-7.9-9.83-13.94-10.82
				c-16.21-2.64-33.35-2.32-49.69-1.33c0.66,4.91,1.33,9.82,1.99,14.73c10.46-2.5,19.35-10.6,30.26-11.11
				c5.6-0.26,11.06,0.97,16.4,2.49c2.8,0.8,9.83,1.93,10.82,5.34c2.26,7.84,15.42,6.71,14.73-1.99
				c-0.52-6.58-4.22-11.85-10.81-13.51c-6.04-1.53-12.19,5.35-8.47,11.02c2.97,4.53,5.69,9.19,7.12,14.45
				c0.66,2.44,1.04,4.88,0.97,7.42c-0.03,1.05-0.1,2.1-0.29,3.14c-0.16,0.85-0.38,1.68-0.66,2.49c-0.66,1.55-0.06,1.29,1.8-0.78
				c3.08,3.08,6.15,6.15,9.23,9.23c0.79-4.17,1.12-8.12,0.58-12.34c-0.88-6.92-9.84-10.78-13.98-3.79
				c-1.79,3.03-3.93,5.52-6.84,7.54c3.76,2.16,7.52,4.32,11.29,6.48c0.68-5.09,1.37-10.19,2.05-15.28c1-7.45-10.79-10.11-13.98-3.79
				c-2.09,4.14-4.17,8.28-6.26,12.42c4.57,0.6,9.14,1.19,13.71,1.79c-1.82-5.95-4.05-11.7-6.55-17.39c-1.41-3.2-5.45-3.98-8.47-3.45
				c-9.95,1.77-11.27,16.52-12.52,24.49c4.91,0.66,9.82,1.33,14.73,1.99c-0.06-4.68,0.95-8.71,3.3-12.77c-4.32,0-8.63,0-12.95,0
				c1.45,2.75,2.41,5.64,2.69,8.75c4.91-0.66,9.82-1.33,14.73-1.99c-1.88-5.41-3.75-10.82-5.63-16.24
				c-1.88-5.42-8.21-7.26-12.54-3.31c-3.34,3.05-3.48,7-3.62,11.24c-0.15,4.72-0.3,9.44-0.45,14.15c4.66-1.26,9.32-2.52,13.98-3.79
				c-3.36-6.52-6.73-13.04-10.09-19.57c-3.6-6.97-13.64-3.21-13.98,3.79c-0.29,5.99,0.17,11.82,1.06,17.74
				c4.57-1.93,9.14-3.85,13.71-5.78c-3.26-7.13-6.52-14.26-9.78-21.38c-3.16-6.9-14.18-3.31-13.98,3.79
				c0.12,4.23,0.24,8.47,0.36,12.7c4.66-1.26,9.32-2.52,13.98-3.79c-2.82-5.65-6.24-10.74-10.11-15.72
				c-4.09-5.26-12.96-0.73-12.8,5.3c0.11,3.98,0.04,7.93-0.2,11.91c4.27-1.77,8.54-3.54,12.8-5.3c-3.12-3.64-6.24-7.28-9.36-10.92
				c-4.4-5.14-12.69-0.8-12.8,5.3c-0.06,3.45-0.13,6.91-0.19,10.36c4.27-1.77,8.54-3.54,12.8-5.3c-3.23-3.8-6.33-7.67-9.28-11.69
				c-3.96-5.37-14.55-4.41-13.98,3.79c0.35,4.97,0.7,9.94,1.04,14.91c4.27-1.77,8.54-3.54,12.8-5.3c-3.74-3.32-7.26-6.89-10.27-10.9
				c-5.14-6.85-15.14-2.85-13.71,5.78c0.59,3.53,1.17,7.06,1.76,10.58c4.57-1.93,9.14-3.85,13.71-5.78
				c-3.7-5.23-7.4-10.47-11.1-15.7c-3.98-5.62-14.33-4.24-13.98,3.79c0.21,4.78,0.16,9.59-0.49,14.33c4.57-0.6,9.14-1.19,13.71-1.79
				c-2.46-3.99-4.93-7.98-7.39-11.97c-3.79-6.13-14.19-3.87-13.98,3.79c0.16,5.67,0.8,11.28,1.79,16.86
				c4.82-1.33,9.64-2.66,14.46-3.99c-3.04-8.25-5.62-22.46-17.41-19.92c-3.31,0.71-5.37,4.06-5.51,7.23
				c-0.37,8.31-0.18,16.6,0.58,24.89c4.66-1.26,9.32-2.52,13.98-3.79c-2.37-4.63-3.87-9.45-4.83-14.55
				c-4.82,1.33-9.64,2.66-14.46,3.99c1.94,8.24,3.88,16.49,5.83,24.73c4.82-1.33,9.64-2.66,14.46-3.99
				c-1.69-6.42-3.39-12.85-5.08-19.27c-2.09-7.92-15.66-6.62-14.73,1.99c0.94,8.67,2.54,17.14,5.12,25.48
				c2.42,7.82,15.08,6.75,14.73-1.99c-0.18-4.39-0.35-8.77-0.53-13.16c-4.91,0.66-9.82,1.33-14.73,1.99
				c2.36,8.15,5.25,16.08,8.62,23.87c2.7,6.24,6.52,17.36,15.52,14.11c2.83-1.02,5.9-3.85,5.51-7.23
				c-0.78-6.77-1.24-13.54-1.38-20.35c-4.66,1.26-9.32,2.52-13.98,3.79c4.17,7.27,8.39,14.5,13.18,21.39
				c2.6,3.74,8.31,5.36,11.78,1.52c3.13-3.47,3.85-7.22,3.98-11.78c0.15-5.62,0.24-11.25,0.35-16.87
				c-4.91,0.66-9.82,1.33-14.73,1.99c1.59,5.87,3.19,11.74,4.78,17.61c1.38,5.09,2.73,9.92,6.58,13.73
				c3.88,3.84,11.24,2.28,12.54-3.31c1.23-5.31,2.46-10.63,3.69-15.94c-4.91-0.66-9.82-1.33-14.73-1.99
				c0.01,9.32,0.27,18.66,3.02,27.65c2.14,6.97,12.47,7.29,14.46,0c1.76-6.45,3.53-12.89,5.29-19.34
				c-4.91-0.66-9.82-1.33-14.73-1.99c0.56,8.59,1.53,17.13,2.79,25.64c0.49,3.32,4.22,5.36,7.23,5.51
				c5.78,0.29,8.84-4.01,11.47-8.49c3.01-5.13,6.02-10.25,9.02-15.38c-4.66-1.26-9.32-2.52-13.98-3.79
				c-1.28,10.58-3.62,21.57-2.66,32.24c0.62,6.9,10.15,10.85,13.98,3.79c5.67-10.48,10.36-21.45,14.02-32.78
				c1.25-3.88-1.47-8.15-5.24-9.23c-4.31-1.23-7.67,1.52-9.23,5.24c-2.47,5.92-4.7,11.93-6.6,18.05c-1.82,5.87-3.33,11.29-0.28,17
				c2.55,4.79,10.46,4.99,12.95,0c5.03-10.06,9.83-20.22,14.42-30.49c-4.57-1.93-9.14-3.85-13.71-5.78
				c-3.03,11.16-5.84,22.46-5.52,34.11c0.16,5.87,8.52,10.71,12.8,5.3c5.58-7.05,11.17-14.11,16.75-21.16
				c-3.93-3.03-7.85-6.06-11.78-9.09c-0.75,1.5-1.61,2.79-3.43,2.92c2.16,3.76,4.32,7.52,6.48,11.29
				c10.05-13.48,18-28.13,24.21-43.75c2.73-6.87-7.9-12.95-12.54-7.3c-4.57,5.57-8.74,11.38-12.4,17.59
				c4.57,1.93,9.14,3.85,13.71,5.78c0.79-3.2,1.14-6.37,0.76-9.65c-0.86-7.36-9.54-10.24-13.98-3.79
				c-3.4,4.95-6.79,9.89-10.19,14.84c4.32,2.52,8.63,5.05,12.95,7.57c4.3-8.69,7.67-17.73,9.89-27.18
				c1.98-8.42-8.98-12.83-13.71-5.78c-5.86,8.72-11.03,17.83-15.53,27.33c4.57,1.93,9.14,3.85,13.71,5.78
				c2.5-10.03,5.01-20.05,7.51-30.08c1.67-6.67-7.61-13.53-12.54-7.3c-8.53,10.8-13.6,23.12-18.43,35.9
				c-2.98,7.87,10.2,13.53,13.71,5.78c3.84-8.49,6.72-17.13,8.35-26.32c1.44-8.13-9-13.35-13.71-5.78
				c-6.17,9.9-10.96,20.57-14.37,31.72c-2.49,8.15,9.5,13.15,13.71,5.78c5.51-9.65,9.58-20.03,11.98-30.88
				c1.82-8.22-9.14-13.19-13.71-5.78c-6.29,10.2-12.59,20.4-18.88,30.61c4.57,1.93,9.14,3.85,13.71,5.78
				c2.25-13.95,6.36-27.65,9.84-41.33c2.08-8.19-9.31-13.18-13.71-5.78c-7.19,12.11-14.38,24.21-21.57,36.32
				c4.57,1.93,9.14,3.85,13.71,5.78c4.61-13.93,9.22-27.87,13.83-41.8c2.26-6.84-7.77-13.16-12.54-7.3
				C98.1,94.6,92.34,106.5,86.84,118.82c4.57,1.93,9.14,3.85,13.71,5.78c2.82-7.81,5.49-15.66,7.99-23.58
				c2.22-7.04,5.73-14.96,3.2-22.34c-1.75-5.1-8.46-7.66-12.54-3.31c-10.69,11.41-16.21,25.88-20.75,40.6
				c-2.56,8.31,9.28,12.84,13.71,5.78c6.83-10.89,12.14-22.64,15.92-34.92c2.09-6.79-7.75-13.29-12.54-7.3
				C85.45,92.2,77.54,105.9,71.65,120.99c4.82,1.33,9.64,2.66,14.46,3.99c3.48-11.22,6.96-22.45,10.45-33.67
				c2.66-8.57-9.04-12.38-13.71-5.78c-6.8,9.62-11.36,20.67-13.29,32.29c-1.56,9.36,12.52,13.55,14.46,3.99
				c2.35-11.59,3.86-23.32,4.49-35.13c0.38-7.1-10.97-10.68-13.98-3.79c-3.76,8.62-6.04,17.16-7.04,26.52c5,0,10,0,15,0
				c0.05-9.61-0.14-19.28-3.1-28.51c-2.06-6.45-13.17-7.8-14.46,0c-1.51,9.07-3.01,18.14-4.52,27.21c4.57-0.6,9.14-1.19,13.71-1.79
				c-2.59-5.91-2.93-12.44-1.45-18.66c-3.67,1.49-7.34,2.99-11.02,4.48c-1.61-2.68-2.11-2.81-1.5-0.41
				c0.06,0.61,0.12,1.22,0.18,1.83c0.2,2.13,0.3,4.27,0.34,6.42c0.03,1.84,0,3.67-0.08,5.51c-0.04,0.92-0.09,1.83-0.16,2.75
				c-0.49,2.36-0.21,2.44,0.85,0.23c2.43-0.64,4.86-1.29,7.3-1.93c1.51,1.4,1.87,1.52,1.06,0.38c-0.38-0.59-0.7-1.21-0.94-1.87
				c-0.41-1.04-0.72-2.25-0.72-3.36c0-0.96,0.09-1.33,0.38-2.34c0.28-0.94-1.95,0.43,0.48-0.01C78.33,97.61,74.31,83.15,64.85,84.85
				L64.85,84.85z"/>
		</g>
	</g>
	<g>
		<g>
			<path class="st1" d="M104.55,176.02c9.65,0,9.67-15,0-15C94.9,161.02,94.88,176.02,104.55,176.02L104.55,176.02z"/>
		</g>
	</g>
	<g>
		<g>
			<path class="st1" d="M84.24,36.08c1.48,1.13,2.68,1.64,4.48,1.96c1.4,0.25,3.22-1.31,2.12-2.75c-1.11-1.46-1.75-2.84-2.1-4.63
				c-1.04,0.61-2.09,1.22-3.13,1.82c2.44,2.58-1.01,1.11-1.95,0.69c-1.56-0.7-3.24-2.14-4.73-3.22c-2.19-1.59-3.91-3.61-5.61-5.7
				c-1.96-2.41-5.45-5.37-5.13-8.69c-0.46,0.6-0.92,1.21-1.38,1.81c0.81-0.23,3.22,1.11,4.09,1.44c2.29,0.88,3.65,2.5,5.59,3.93
				c3.96,2.92,6.57,5.92,9.16,10.1c1.27,2.05,4.52,0.16,3.24-1.89c-3.39-5.46-7.12-8.82-12.07-12.82
				c-2.67-2.16-7.43-5.37-11.01-4.37c-0.86,0.24-1.3,0.97-1.38,1.81c-0.45,4.66,3.51,8.02,6.23,11.35c1.55,1.9,3.12,3.76,5.04,5.3
				c1.52,1.22,3.52,3.33,5.24,4.19c1.2,0.6,2.58,0.94,3.83,1.38c1.31,0.46,2.32,0.88,3.63,0.01c2.91-1.93,1.8-5.89-0.14-7.96
				c-1.37-1.45-3.48,0.09-3.13,1.82c0.43,2.16,1.15,3.78,2.48,5.53c0.71-0.92,1.41-1.84,2.12-2.75c-1.42-0.09-2.61-0.62-3.59-1.59
				C84.21,31.38,82.34,34.63,84.24,36.08L84.24,36.08z"/>
		</g>
	</g>
	<g>
		<g>
			<path class="st1" d="M87.61,33.21c-3.39-2.14-6.19-5.93-9.1-8.68c-2.76-2.61-5.51-5.31-8.66-7.45c-1.65-1.13-3.36,1.02-2.57,2.57
				c1.6,3.12,4.4,4.91,6.83,7.32c2.29,2.26,4.04,5.29,7.79,4.79c7.79-1.03-3.51-9.53-5.66-10.71c-2.12-1.16-4.01,2.08-1.89,3.24
				c2.45,1.34,5.46,3.24,6.8,5.81c0-0.63,0-1.26,0-1.89c-0.22,0.44-5.11-4.55-5.84-5.19c-1.84-1.6-3.65-3.04-4.79-5.25
				c-0.86,0.86-1.71,1.71-2.57,2.57c3.6,2.45,6.73,5.72,9.86,8.74c2.54,2.46,4.89,5.49,7.9,7.39C87.76,37.74,89.64,34.5,87.61,33.21
				L87.61,33.21z"/>
		</g>
	</g>
	<g>
		<g>
			<path class="st1" d="M99.13,40.92c-1.86-3.76,0.6-10.14,2.75-13.4c1.6-2.43,4.34-3.91,7.18-4.48c0.66-0.13,2.84-0.74,3.28,0.08
				c0.43,0.8-2.8,1.94-3.13,2.07c-2.64,1.06-5.2,1.84-6.83,4.31c-2.3,3.48-3.65,8.09-4.97,12.02c-0.77,2.29,2.85,3.28,3.62,1
				c1.45-4.34,2.75-10.51,7.02-12.84c2.05-1.12,6-1.45,7.54-3.44c2.57-3.32-0.76-7.79-4.41-7.5c-5.91,0.47-10.93,3.56-13.53,8.82
				c-2.2,4.45-4.07,10.57-1.74,15.27C96.96,44.97,100.2,43.07,99.13,40.92L99.13,40.92z"/>
		</g>
	</g>
	<g>
		<g>
			<path class="st1" d="M99.52,41.53c0.05-3.71,1.01-7.25,3.19-10.29c1.84-2.57,5.45-6.71,8.96-6.04c2.36,0.45,3.37-3.17,1-3.62
				c-4.78-0.91-8.48,2.22-11.49,5.61c-3.56,4.02-5.35,8.98-5.42,14.34C95.74,43.95,99.49,43.95,99.52,41.53L99.52,41.53z"/>
		</g>
	</g>
	<g>
		<g>
			<path class="st1" d="M97.01,42.85c0.47,0.23,0.83,0.31,1.35,0.37c-0.32-1.16-0.63-2.33-0.95-3.49c-0.07,0.05-0.15,0.1-0.22,0.15
				c-0.78,0.53-1.29,1.69-0.67,2.57c0.08,0.11,0.16,0.23,0.24,0.34c0.71-0.92,1.41-1.84,2.12-2.75c-0.39-0.08-0.76-0.09-1.15-0.1
				c-0.79-0.01-1.63,0.59-1.81,1.38c-0.17,0.74,0.09,1.79,0.86,2.12c0.63,0.27,1.04,0.33,1.71,0.23c0.64-0.1,1.13-0.74,1.31-1.31
				c0.16-0.53,0.09-1.13-0.21-1.59c-0.49-0.75-1.26-1.02-2.12-0.86c-0.02,0-0.04,0.01-0.06,0.01c-0.92,0.17-1.46,1.21-1.34,2.06
				c0.13,0.93,0.9,1.6,1.84,1.63c0.13,0,0.27,0.01,0.4,0.01c0-1.25,0-2.5,0-3.75c-0.1,0-0.19,0-0.29,0c0,1.25,0,2.5,0,3.75
				c0.84-0.1,1.38-0.34,1.85-1.07c0.51-0.79,0.22-2.16-0.67-2.57c-0.78-0.36-1.68-0.47-2.43,0.05c-0.66,0.46-1.13,1.29-0.86,2.12
				c0.26,0.8,0.95,1.36,1.81,1.38c0.78,0.01,1.5-0.3,2.06-0.84c0.73-0.7,0.71-1.95,0-2.65c-1.38-1.36-3.59-0.35-3.67,1.51
				c-0.04,0.98,0.89,1.92,1.88,1.88c1.05-0.05,1.83-0.82,1.88-1.88c0-0.03,0-0.06,0-0.09c-0.09,0.32-0.17,0.63-0.26,0.95
				c-0.06,0.08-0.11,0.16-0.17,0.24c-0.28,0.16-0.55,0.32-0.83,0.48c-0.24-0.01-0.48-0.01-0.72-0.02c-0.28-0.16-0.55-0.32-0.83-0.48
				c0.02,0.02,0.04,0.04,0.07,0.07c0-0.88,0-1.77,0-2.65c0.13-0.13,0.41-0.26,0.59-0.26c0.32,1.16,0.63,2.33,0.95,3.49
				c-0.45-0.02-0.9-0.03-1.35-0.05c-0.22-0.86-0.45-1.71-0.67-2.57c-0.02,0.03-0.04,0.06-0.05,0.08c0.22-0.22,0.45-0.45,0.67-0.67
				c-0.03,0.02-0.06,0.03-0.08,0.05c0.32-0.09,0.63-0.17,0.95-0.26c-0.03,0-0.07,0.01-0.1,0.01c-0.97,0.11-1.92,0.78-1.88,1.88
				c0.05,1.02,0.82,1.87,1.88,1.88c0.1,0,0.19,0,0.29,0c0.98,0,1.92-0.86,1.88-1.88c-0.05-1.04-0.82-1.85-1.88-1.88
				c-0.13,0-0.27-0.01-0.4-0.01c0.17,1.23,0.33,2.46,0.5,3.68c0.02,0,0.04-0.01,0.06-0.01c-0.71-0.29-1.41-0.57-2.12-0.86
				c0.02,0.02,0.03,0.05,0.05,0.07c-0.06-0.48-0.13-0.96-0.19-1.44c-0.01,0.03-0.02,0.05-0.02,0.08c0.44-0.44,0.87-0.87,1.31-1.31
				c-0.04,0.01-0.09,0.01-0.13,0.02c0.48,0.06,0.96,0.13,1.44,0.19c-0.04-0.02-0.09-0.04-0.13-0.06c-0.32,1.16-0.63,2.33-0.95,3.49
				c0.1,0,0.68,0.07,0.16-0.04c0.75,0.16,1.49-0.05,1.97-0.67c0.43-0.55,0.58-1.48,0.15-2.08c-0.08-0.11-0.16-0.23-0.24-0.34
				c-0.22,0.86-0.45,1.71-0.67,2.57c0.07-0.05,0.15-0.1,0.22-0.15c0.67-0.46,1.13-1.29,0.86-2.12c-0.28-0.85-0.95-1.28-1.81-1.38
				c0.18,0.05,0.36,0.09,0.55,0.14c-0.88-0.43-2.07-0.27-2.57,0.67C95.89,41.13,96.06,42.39,97.01,42.85L97.01,42.85z"/>
		</g>
	</g>
	<g>
		<g>
			<path class="st1" d="M115.47,23.18c-0.08-0.95-0.16-1.9-0.23-2.85c-0.2-2.38-3.91-2.42-3.75,0c0,0.04,0.01,0.09,0.01,0.13
				c0.18-0.44,0.37-0.88,0.55-1.33c-0.04,0.03-0.08,0.06-0.12,0.09c0.61-0.16,1.22-0.32,1.82-0.48c-0.04-0.01-0.08-0.03-0.12-0.04
				c-0.17,1.23-0.33,2.46-0.5,3.68c0.15-0.01,0.29-0.01,0.44-0.02c-0.62-0.62-1.25-1.25-1.88-1.88c0.16,1.78,0.35,3.56,0.57,5.34
				c0.11,0.84,0.51,1.56,1.38,1.81c3.99,1.13,2.81-4.92,2.47-6.93c-1.14,0.48-2.28,0.96-3.43,1.44c0.25,0.44,0.27,0.75,0.23,1.24
				c1.25,0,2.5,0,3.75,0c0.1-1.26-0.6-2.17-0.74-3.35c-1.23,0.17-2.46,0.33-3.68,0.5c0.51,1.79,0.85,3.59,0.99,5.45
				c0.18,2.39,3.93,2.41,3.75,0c-0.16-2.18-0.52-4.34-1.12-6.44c-0.56-1.95-3.94-1.67-3.68,0.5c0.13,1.1,0.83,2.27,0.74,3.35
				c-0.19,2.41,3.56,2.39,3.75,0c0.09-1.12-0.19-2.16-0.74-3.14c-1.11-1.96-3.77-0.55-3.43,1.44c0.11,0.65,0.2,1.3,0.25,1.95
				c0.04,0.45,0.2,1.18,0.05,1.59c0.29-0.37,0.57-0.75,0.86-1.12c-0.07,0.05-0.15,0.1-0.22,0.14c0.48-0.06,0.96-0.13,1.44-0.19
				c-0.08-0.02-0.16-0.04-0.24-0.07c0.46,0.6,0.92,1.21,1.38,1.81c-0.22-1.78-0.41-3.56-0.57-5.34c-0.09-0.98-0.79-1.91-1.88-1.88
				c-0.15,0.01-0.29,0.01-0.44,0.02c-2.12,0.08-2.54,3.04-0.5,3.68c1.28,0.4,2.69-0.62,2.6-1.99c-1.25,0-2.5,0-3.75,0
				c0.08,0.95,0.16,1.9,0.23,2.85C111.92,25.57,115.67,25.59,115.47,23.18L115.47,23.18z"/>
		</g>
	</g>
	<g>
		<g>
			<path class="st1" d="M114.29,23.94c-0.56,0.1-1.12,0.2-1.68,0.3c-0.97,0.18-1.6,1.4-1.31,2.31c0.34,1.04,1.27,1.5,2.31,1.31
				c0.56-0.1,1.12-0.2,1.68-0.3c0.97-0.18,1.6-1.4,1.31-2.31C116.26,24.21,115.33,23.75,114.29,23.94L114.29,23.94z"/>
		</g>
	</g>
	<g>
		<g>
			<path class="st1" d="M111.58,23.05c0.58,0.02,1.16-0.13,1.64-0.44c1.57-1,0.94-3.44-0.95-3.49c-0.25-0.01-0.5-0.02-0.75-0.02
				c0.17,1.23,0.33,2.46,0.5,3.68c0.35-0.13,0.7-0.24,1.06-0.35c0.9-0.26,1.47-1.14,1.34-2.06c-0.12-0.86-0.91-1.7-1.84-1.63
				c-0.66,0.05-1.22,0.19-1.79,0.53c-0.81,0.48-1.13,1.49-0.77,2.34c0.37,0.88,1.29,1.29,2.21,1.09c0.41-0.09,0.82-0.26,1.19-0.48
				c0.69-0.4,1.11-1.34,0.86-2.12c-0.27-0.84-0.95-1.3-1.81-1.38c-0.41-0.04-0.83,0.02-1.22,0.14c-0.94,0.27-1.62,1.33-1.31,2.31
				c0.35,1.07,1.26,1.45,2.31,1.31c0.38-0.05,0.75-0.22,1.08-0.4c0.65-0.37,0.99-1.14,0.9-1.87c-0.09-0.67-0.62-1.44-1.34-1.56
				c-0.75-0.13-1.35-0.08-2.03,0.29c-0.66,0.36-0.99,1.15-0.9,1.87c0.09,0.68,0.62,1.43,1.34,1.56c0.73,0.13,1.45,0.11,2.09-0.33
				c0.66-0.46,1.13-1.29,0.86-2.12c-0.26-0.8-0.95-1.36-1.81-1.38c-0.62-0.01-1.32,0.24-1.72,0.74c-0.51,0.64-0.78,1.52-0.29,2.27
				c0.47,0.73,1.27,1.05,2.12,0.86c0.38-0.08,0.76-0.17,1.14-0.25c0.96-0.21,1.61-1.38,1.31-2.31c-0.33-1.01-1.28-1.53-2.31-1.31
				c-0.38,0.08-0.76,0.17-1.14,0.25c0.61,1.04,1.22,2.09,1.82,3.13c-0.31,0.12-0.62,0.24-0.93,0.36c-0.32-1.16-0.63-2.33-0.95-3.49
				c-0.37,0.23-0.11,0.22,0.8-0.05c0.15,1.14,0.3,2.28,0.45,3.43c-0.29,0.03-0.57,0.06-0.86,0.09c-0.15-1.14-0.3-2.28-0.45-3.43
				c0.17-0.05,0.19-0.05,0.06-0.02c-0.08,0.03-0.16,0.04-0.25,0.05c0.33,1.21,0.66,2.41,1,3.62c0.44-0.13-0.23-0.04,0.23,0
				c-0.32-1.16-0.63-2.33-0.95-3.49c-0.19,0.1-0.18,0.11,0.02,0.02c-0.1,0.03-0.2,0.06-0.31,0.08c0.48,1.14,0.96,2.28,1.44,3.43
				c0.19-0.1,0.17-0.1-0.04,0c0.21-0.05,0.19-0.05-0.06-0.01c-0.17-1.23-0.33-2.46-0.5-3.68c-0.36,0.1-0.71,0.22-1.06,0.35
				c-0.88,0.33-1.47,1.08-1.34,2.06c0.13,0.93,0.9,1.6,1.84,1.63c0.25,0.01,0.5,0.02,0.75,0.02c-0.32-1.16-0.63-2.33-0.95-3.49
				c-0.21,0.11-0.16,0.12,0.14,0.01c0.31-0.06,0.35-0.08,0.11-0.08c-0.98-0.04-1.92,0.89-1.88,1.88
				C109.75,22.23,110.53,23,111.58,23.05L111.58,23.05z"/>
		</g>
	</g>
	<g>
		<g>
			<path class="st1" d="M83.62,32.08c-6.24-1.54-9.99-6.63-12.83-12.05c-0.84-1.61-3.62-0.91-3.49,0.95
				c0.55,8.35,9.47,14.31,16.67,16.78c2.29,0.79,3.27-2.83,1-3.62c-5.42-1.86-13.49-6.74-13.92-13.17
				c-1.16,0.32-2.33,0.63-3.49,0.95c3.29,6.29,7.89,12,15.07,13.77C84.96,36.28,85.96,32.66,83.62,32.08L83.62,32.08z"/>
		</g>
	</g>
	<g>
		<g>
			<path class="st1" d="M85.31,33.27c-0.2,1.03-0.25,1.5,0.16,2.48c0.55,1.32,2.64,2.07,3.43,0.45c2.06-4.25-0.21-7.66-3.17-10.73
				c-1.65-1.71-2.97-3.8-4.87-5.24c-2.24-1.69-4.87-3-7.26-4.47c-0.48,1.14-0.96,2.28-1.44,3.43c5,0.74,8.21,5.61,10.6,9.52
				c1.22,2,2.12,3.82,3.12,5.93c0.64,1.37,1.29,2.23,2.6,3c1.34,0.79,2.66-0.26,2.82-1.62c0.37-3.2-0.44-6.28-2.47-8.81
				c-1.11-1.38-2.61-2.17-3.84-3.4c-1.23-1.21-1.84-2.52-3.33-3.47c-2.04-1.3-3.93,1.95-1.89,3.24c1.01,0.64,1.31,1.83,2.12,2.62
				c0.8,0.78,1.72,1.33,2.59,2.02c2.52,1.99,3.44,4.65,3.08,7.81c0.94-0.54,1.88-1.08,2.82-1.62c-1.13-0.67-2.61-4.9-3.48-6.22
				c-1.3-1.98-2.3-4.2-3.81-6.04c-2.33-2.82-6.22-6.02-9.92-6.57c-2-0.3-3.38,2.24-1.44,3.43c3.1,1.9,6.59,3.5,8.88,6.35
				c1.78,2.21,6.72,5.56,5.08,8.96c1.14,0.15,2.28,0.3,3.43,0.45c-0.05-0.16-0.1-0.33-0.16-0.49C89.38,31.91,85.76,30.9,85.31,33.27
				L85.31,33.27z"/>
		</g>
	</g>
	<g>
		<g>
			<path class="st1" d="M81.41,25.08c0.89,0.3,1.65,0.98,2.35,1.59c0.67,0.58,1.48,1.25,1.5,2.2c0.06,2.41,3.81,2.42,3.75,0
				c-0.05-1.86-0.98-3.39-2.33-4.62c-1.27-1.15-2.63-2.24-4.27-2.79C80.11,20.71,79.13,24.33,81.41,25.08L81.41,25.08z"/>
		</g>
	</g>
	<g>
		<g>
			<path class="st1" d="M88.01,36.45C88,36.58,88,36.71,87.99,36.84c0.94-0.54,1.88-1.08,2.82-1.62c-0.86-0.44-1.7-0.6-2.66-0.65
				c-0.44-0.02-1.13,0.08-1.44-0.25c-1.67-1.75-4.32,0.9-2.65,2.65c0.66,0.69,1.52,1.08,2.46,1.22c0.72,0.11,1.75-0.08,2.4,0.25
				c1.29,0.66,2.76-0.16,2.82-1.62c0.01-0.13,0.01-0.26,0.02-0.39C91.86,34.03,88.11,34.04,88.01,36.45L88.01,36.45z"/>
		</g>
	</g>
	<g>
		<g>
			<path class="st1" d="M71.92,23.3c-0.37-0.31-0.4-0.78-0.57-1.22c-0.26-0.69-0.59-1.32-1.17-1.8c-0.89-0.73-2.32-0.77-2.94,0.38
				c-0.45,0.83-0.54,1.66-0.16,2.56c0.28,0.66,0.73,0.94,0.63,1.68c1.23-0.17,2.46-0.33,3.68-0.5c-0.74-2.2-1.6-4.35-2.54-6.48
				c-0.41-0.92-1.76-1.15-2.57-0.67c-0.95,0.56-1.09,1.63-0.67,2.57c0.81,1.83,1.52,3.69,2.16,5.58c0.72,2.11,3.42,1.55,3.68-0.5
				c0.08-0.61,0.01-1.23-0.19-1.81c-0.1-0.29-0.68-1.16-0.68-1.21c-0.09,0.32-0.17,0.63-0.26,0.95c0.05-0.09,0.1-0.18,0.14-0.27
				c-0.98,0.13-1.96,0.25-2.94,0.38c0.37,0.31,0.41,0.77,0.58,1.21c0.27,0.7,0.58,1.32,1.16,1.81C71.1,27.49,73.77,24.85,71.92,23.3
				L71.92,23.3z"/>
		</g>
	</g>
</g>
</svg>
