<?xml version="1.0" encoding="utf-8"?>
<!-- Generator: Adobe Illustrator 23.0.4, SVG Export Plug-In . SVG Version: 6.00 Build 0)  -->
<svg version="1.1" xmlns="http://www.w3.org/2000/svg" xmlns:xlink="http://www.w3.org/1999/xlink" x="0px" y="0px"
	 viewBox="0 0 200 200" style="enable-background:new 0 0 200 200;" xml:space="preserve">
<style type="text/css">
	.st0{fill:#29130F;stroke:#FFFFFF;stroke-width:0.25;stroke-miterlimit:10;}
	.st1{fill:#FFFFFF;stroke:#FFFFFF;stroke-width:0.25;stroke-miterlimit:10;}
	.st2{fill:#FFFFFF;}
</style>
<g id="Layer_1">
	<g>
		<circle class="st0" cx="100" cy="100.27" r="100"/>
		<circle class="st1" cx="131" cy="75.27" r="48"/>
		<circle class="st0" cx="131" cy="75.27" r="34"/>
	</g>
	<g>
		<g>
			<path class="st2" d="M117.56,72.57c-0.16-0.15-0.33-0.3-0.49-0.45c-0.96-0.89-2.6-1.02-3.54,0c-0.89,0.97-1.03,2.59,0,3.54
				c0.16,0.15,0.33,0.3,0.49,0.45c0.96,0.89,2.6,1.02,3.54,0C118.45,75.14,118.59,73.52,117.56,72.57L117.56,72.57z"/>
		</g>
	</g>
	<g>
		<g>
			<path class="st2" d="M115.73,68.21c-0.92-1.16-0.51-0.85-1.85-1.43c-0.5-0.21-1.04,0.13-0.92,0.71c0.36,1.63,0.83,2.92,1.59,4.38
				c0.33-0.25,0.65-0.5,0.98-0.76c-1.29-1.39-2.64-2.56-4.18-3.64c-0.42-0.29-1.13,0.2-0.92,0.71c0.67,1.61,1.38,2.91,2.43,4.33
				c0.33-0.25,0.65-0.5,0.98-0.76c-1.1-1.27-2.19-2.55-3.29-3.82c-0.25,0.33-0.5,0.65-0.76,0.98c1.24,0.95,2.47,1.9,3.71,2.85
				c0.47,0.36,1.03-0.23,0.92-0.71c-0.33-1.45-0.77-2.6-1.47-3.9c-0.33,0.25-0.65,0.5-0.98,0.76c1.48,1.15,2.96,2.3,4.43,3.45
				c0.51,0.4,1.4-0.1,0.98-0.76c-0.92-1.45-1.84-2.89-2.77-4.34c-0.33,0.25-0.65,0.5-0.98,0.76c1.29,1.37,2.59,2.75,3.88,4.12
				c0.49,0.52,1.35-0.15,0.98-0.76c-0.59-0.97-1.18-1.95-1.78-2.92c-0.33,0.25-0.65,0.5-0.98,0.76c1.23,1.48,2.52,2.83,3.96,4.12
				c0.5,0.45,1.41-0.15,0.98-0.76c-0.94-1.33-1.92-2.6-2.97-3.85c-0.25,0.33-0.5,0.65-0.76,0.98c0.78,0.54,1.56,1.08,2.34,1.61
				c0.63,0.43,1.17-0.47,0.76-0.98c-0.82-1-1.58-1.66-2.65-2.35c-0.21,0.36-0.42,0.72-0.63,1.08c1.18,0.66,1.11,0.62,2.37,1.13
				c0.66,0.27,1.09-0.8,0.48-1.14c-0.88-0.52-1.78-1-2.71-1.41c-0.16,0.38-0.32,0.76-0.48,1.14c0.59,0.15,1.19,0.29,1.78,0.44
				c0.65,0.16,1.16-0.86,0.48-1.14c-0.97-0.41-1.94-0.82-2.91-1.23c-0.16,0.38-0.32,0.76-0.48,1.14c0.8,0.13,1.59,0.25,2.39,0.38
				c0.78,0.12,1.11-0.94,0.33-1.21c-0.88-0.38-1.79-0.61-2.74-0.7c-0.11,0.4-0.22,0.8-0.33,1.21c0.63,0.09,1.26,0.17,1.89,0.26
				c0.62,0.09,1.2-0.84,0.48-1.14c-1.86-0.79-1.55-0.69-3.49-1.28c-0.11,0.4-0.22,0.8-0.33,1.21c0.72,0.16,1.44,0.32,2.16,0.48
				c0.78,0.17,1.11-0.97,0.33-1.21c-1.12-0.33-2.24-0.67-3.35-1c-0.57-0.17-1.11,0.64-0.61,1.04c0.87,0.7,0.77,0.67,1.84,0.97
				c0.56,0.15,1.12-0.64,0.61-1.04c-0.88-0.69-0.77-0.67-1.85-0.94c-0.59-0.15-1.08,0.61-0.61,1.04c1.51,1.41,0.89,0.98,2.71,1.91
				c0.71,0.36,1.33-0.67,0.63-1.08c-0.48-0.28-0.96-0.57-1.44-0.85c-0.63-0.37-1.23,0.47-0.76,0.98c1.49,1.63,3.04,3.08,4.76,4.46
				c0.5,0.4,1.43-0.13,0.98-0.76c-0.47-0.66-0.94-1.31-1.41-1.97c-0.33,0.25-0.65,0.5-0.98,0.76c1.39,1.34,2.79,2.46,4.4,3.52
				c0.5,0.33,1.23-0.35,0.86-0.86c-0.86-1.18-0.67-0.97-1.72-1.98c-0.25,0.33-0.5,0.65-0.76,0.98c1.23,0.63,2.35,1.29,3.49,2.07
				c0.68,0.46,1.25-0.6,0.63-1.08c-1.07-0.83-2.15-1.65-3.22-2.48c-0.56-0.43-1.31,0.54-0.76,0.98c1.23,0.98,1.45,1.14,2.74,2.04
				c0.67,0.46,1.27-0.61,0.63-1.08c-0.87-0.64-1.74-1.28-2.61-1.92c-0.21,0.36-0.42,0.72-0.63,1.08c0.69,0.44,1.38,0.89,2.07,1.33
				c0.6,0.39,1.26-0.49,0.76-0.98c-1.39-1.37-1.09-1.1-2.64-2.28c-0.21,0.36-0.42,0.72-0.63,1.08c0.88,0.52,1.75,1.05,2.63,1.57
				c0.61,0.36,1.27-0.48,0.76-0.98c-0.37-0.36-0.74-0.73-1.12-1.09c-0.25,0.33-0.5,0.65-0.76,0.98c1.42,0.94,2.83,1.87,4.25,2.81
				c0.21-0.36,0.42-0.72,0.63-1.08c-0.53-0.28-1.06-0.55-1.59-0.83c-0.59-0.31-1.34,0.51-0.76,0.98c0.9,0.73,1.79,1.45,2.69,2.18
				c0.25-0.33,0.5-0.65,0.76-0.98c-0.51-0.34-1.02-0.67-1.53-1.01c-0.59-0.39-1.29,0.51-0.76,0.98c2.07,1.83,4.17,3.31,6.62,4.61
				c0.11-0.39,0.21-0.78,0.32-1.16c-6.31,0.77-12.1,1.87-18.35,0.15c-3.86-1.06-8.84-2.47-8.72-7.29c0.15-6.52,5.87-5.33,10.16-4.1
				c0.11-0.4,0.22-0.8,0.33-1.21c-1.6-0.44-2.78-0.54-4.46-0.34c-0.48,0.06-0.9,0.68-0.44,1.07c1.33,1.13,2.67,2.16,4.11,3.15
				c0.21-0.36,0.42-0.72,0.63-1.08c-0.76-0.4-1.52-0.8-2.28-1.19c-0.66-0.35-1.18,0.44-0.76,0.98c0.29,0.37,0.58,0.74,0.87,1.11
				c0.25-0.33,0.5-0.65,0.76-0.98c-0.65-0.41-1.3-0.82-1.95-1.24c-0.34-0.22-0.82,0-0.92,0.37c-0.71-0.18-1.12-0.61-1.23-1.29
				c-0.5,0.06-0.87,0.66-0.44,1.07c0.47,0.46,0.6,0.5,1.25,0.54c0.58,0.03,0.77-0.69,0.44-1.07c-4.34-5.04-11.24,6.99-3.73,8.27
				c0.34,0.06,0.67-0.09,0.77-0.44c0.68-2.32-0.7-4.4,0.55-6.83c0.25-0.49-0.16-1.05-0.71-0.92c-3.45,0.81-3.57,7.78-0.23,8.93
				c4.33,1.48,4.99-4.6,0.55-4.02c-0.36,0.05-0.6,0.25-0.62,0.62c-0.1,1.4,3.15,6.15,4.75,4.46c-1.02-1.69-2.05-3.39-3.07-5.08
				c0.09,0.9,0.34,1.75,0.74,2.56c0.32,0.5,0.3,0.76,1.06,1.26c1.12,0.73,1.7,0.64,2.92,0.27c0.48-0.14,0.66-0.9,0.15-1.14
				c-2.59-1.21-4.54-2.79-6.25-5.13c-0.4-0.54-1.34-0.25-1.14,0.48c0.51,1.9,1.18,3.47,2.2,5.15c0.3,0.5,1.22,0.33,1.16-0.32
				c-0.14-1.53-0.36-2.97-0.69-4.47c-0.35,0.2-0.7,0.41-1.04,0.61c0.77,0.9,1.54,1.8,2.3,2.7c0.4,0.47,1.24-0.03,1.04-0.61
				c-0.3-0.87-0.6-1.75-0.9-2.62c-0.35,0.2-0.7,0.41-1.04,0.61c0.62,0.61,1.24,1.22,1.86,1.83c0.41,0.4,1.3,0,1.04-0.61
				c-0.46-1.09-0.92-2.19-1.37-3.28c-0.35,0.2-0.7,0.41-1.04,0.61c0.66,0.52,1.32,1.04,1.97,1.56c0.5,0.4,1.42-0.12,0.98-0.76
				c-0.72-1.04-0.68-0.99-1.53-1.92c-0.25,0.33-0.5,0.65-0.76,0.98c0.53,0.4,1.06,0.81,1.59,1.21c0.57,0.43,1.25-0.5,0.76-0.98
				c-0.5-0.49-1-0.98-1.5-1.46c-0.25,0.33-0.5,0.65-0.76,0.98c0.65,0.3,1.3,0.59,1.95,0.89c0.63,0.29,1.25-0.43,0.76-0.98
				c-1.22-1.37-0.69-0.96-2.3-1.8c-0.62-0.33-1.26,0.46-0.76,0.98c0.31,0.32,0.61,0.64,0.92,0.96c0.2-0.35,0.41-0.7,0.61-1.04
				c-2.57-0.76-3.83,0.83-3.25,3.34c0.38-0.16,0.76-0.32,1.14-0.48c-0.28-0.53-0.56-1.06-0.83-1.58c-0.29-0.56-1.16-0.29-1.16,0.32
				c0,1.39,0.17,2.39,0.69,3.71c0.2,0.51,0.82,0.61,1.14,0.15c1.43-2.03,0.86-3.72-1.42-4.56c-0.38-0.14-0.8,0.22-0.79,0.6
				c0.06,1.53,0.39,2.19,1.68,3.01c0.35,0.22,0.81,0,0.92-0.37c0.53-1.85,0.35-3.07-0.83-4.6c-0.28-0.37-0.81-0.43-1.08,0
				c-1.05,1.68-1.53,4.04,0.23,5.44c0.29,0.23,0.59,0.23,0.88,0c1.71-1.37,1.78-4.56-0.42-5.34c-0.22-0.08-0.45,0.02-0.61,0.16
				c-1.53,1.35-0.69,3.55,0.21,5.04c0.25,0.41,1.06,0.41,1.14-0.15c0.27-1.91,0.38-1.37-0.33-3.16c-0.29-0.73-1.47-0.44-1.21,0.33
				c0.99,2.94,2.55,4.65,5.6,4.54c0.37-0.01,0.56-0.94,0.88-0.98c1.79-0.26,1.78,0.96,2.71,1.96c1.39,1.51,2.12,2.51,4.15,3.11
				c0.06-0.41,0.11-0.82,0.17-1.23c-1.02,0.11-2.04,0.22-3.06,0.33c-0.63,0.07-0.93,1.12-0.17,1.23c3.49,0.49,7.18-1.41,10.36-0.51
				c0.11-0.4,0.22-0.8,0.33-1.21c-2.71-0.43-3.85-2-5.31-3.87c-0.25,0.33-0.5,0.65-0.76,0.98c1.61,0.79,2.91,1.94,3.9,3.44
				c0.29-0.29,0.57-0.57,0.86-0.86c-1.16-0.65-2.33-1.3-3.49-1.95c-0.53-0.3-1.19,0.31-0.86,0.86c0.79,1.3,0.57,1,1.6,2.12
				c0.29-0.29,0.59-0.59,0.88-0.88c-1.28-1.02-2.54-1.92-3.95-2.76c-0.37-0.22-1,0.06-0.94,0.54c-0.66,0.29-1.28,0.08-1.88-0.63
				c-0.49-0.23-1.28,0.3-0.86,0.86c1.15,1.5,0.86,1.18,2.2,2.5c0.29-0.29,0.59-0.59,0.88-0.88c-0.65-0.6-1.3-1.19-1.94-1.79
				c-0.29,0.29-0.59,0.59-0.88,0.88c0.56,0.51,1.13,1.02,1.69,1.53c0.5,0.45,1.41-0.15,0.98-0.76c-0.69-0.97-0.66-0.95-1.48-1.81
				c-0.29,0.29-0.59,0.59-0.88,0.88c1.26,1.01,2.44,1.78,3.9,2.49c0.42,0.21,0.93-0.04,0.94-0.54c0.03-1.3,0.04-1.1-0.46-2.29
				c-0.29,0.29-0.57,0.57-0.86,0.86c1.88,1.36,3.2,2.3,0.15,1.01c-2.15-0.91-3.96-2.76-5.59-4.37c-0.2,0.35-0.41,0.7-0.61,1.04
				c2.7,0.52,5.4,1.04,8.1,1.56c0.78,0.15,1.12-1.02,0.33-1.21c-1.74-0.4-3.33-0.88-5.01-1.5c-0.69-0.25-1.06,0.78-0.48,1.14
				c0.67,0.46,1.37,0.86,2.09,1.22c0.21-0.36,0.42-0.72,0.63-1.08c-1.63-0.81-13.2-8.48-13.7-3.3c-0.67,6.99,12.97,7.85,16.67,9.11
				c0.68,0.23,1.09-0.79,0.48-1.14c-3.41-1.95-6.86-3.33-10.69-4.22c-0.78-0.18-1.1,0.97-0.33,1.21c2.88,0.88,5.77,1.77,8.65,2.65
				c0.77,0.24,1.1-0.97,0.33-1.21c-2.88-0.88-5.77-1.77-8.65-2.65c-0.11,0.4-0.22,0.8-0.33,1.21c3.69,0.86,7.09,2.21,10.39,4.1
				c0.16-0.38,0.32-0.76,0.48-1.14c-3.96-1.35-8.78-1.25-12.39-3.56c-3.09-1.3-3.58-2.39-1.45-3.26c0.88-1.07,1.86-1.08,2.94-0.01
				c2.3,0.48,4.87,2.26,6.97,3.31c0.72,0.36,1.35-0.7,0.63-1.08c-0.73-0.36-1.42-0.76-2.09-1.22c-0.16,0.38-0.32,0.76-0.48,1.14
				c1.67,0.62,3.27,1.1,5.01,1.5c0.11-0.4,0.22-0.8,0.33-1.21c-2.7-0.52-5.4-1.04-8.1-1.56c-0.59-0.11-1.08,0.58-0.61,1.04
				c2.26,2.24,7.53,7.86,10.77,4.55c0.26-0.26,0.25-0.81-0.13-0.98c-1.37-0.63-2.48-1.28-3.7-2.17c-0.57-0.41-1.07,0.36-0.86,0.86
				c-0.16,1.32-0.96,0.93-2.42-1.18c-0.62-0.49-1.45,0.28-0.88,0.88c0.43,0.52,0.85,1.04,1.28,1.56c0.33-0.25,0.65-0.5,0.98-0.76
				c-0.56-0.51-1.13-1.02-1.69-1.53c-0.59-0.54-1.48,0.34-0.88,0.88c0.65,0.6,1.3,1.19,1.94,1.79c0.59,0.54,1.46-0.32,0.88-0.88
				c-0.67-0.75-1.34-1.49-2.01-2.24c-0.29,0.29-0.57,0.57-0.86,0.86c1.1,0.41,2.1,0.98,3.02,1.72c0.37,0.25,1-0.08,0.94-0.54
				c0.59-1.08,1.44-0.59,2.57,1.47c0.62,0.49,1.44-0.28,0.88-0.88c-0.47-0.62-0.93-1.24-1.4-1.86c-0.29,0.29-0.57,0.57-0.86,0.86
				c1.16,0.65,2.33,1.3,3.49,1.95c0.5,0.28,1.25-0.33,0.86-0.86c-1.24-1.65-2.55-2.86-4.35-3.89c-0.66-0.38-1.17,0.45-0.76,0.98
				c1.7,2.19,3.1,3.76,5.86,4.2c0.78,0.12,1.12-0.98,0.33-1.21c-3.74-1.07-6.56,1.04-10.36,0.51c-0.06,0.41-0.11,0.82-0.17,1.23
				c1.02-0.11,2.04-0.22,3.06-0.33c0.67-0.07,0.88-1.01,0.17-1.23c-3.07-0.92-4.41-4.38-6.4-6.65c-0.26-0.29-0.81-0.22-0.98,0.13
				c-1.47,2.95-4.03,1.86-5.08-1.24c-0.4,0.11-0.8,0.22-1.21,0.33c0.11,0.83,0.22,1.67,0.33,2.5c0.38-0.05,0.76-0.1,1.14-0.15
				c-0.31,0.21-0.62,0.41-0.93,0.62c0.38,0.05,0.76,0.1,1.14,0.15c-0.54-1.05-0.75-2.18-0.65-3.38c-0.39,0.11-0.78,0.21-1.16,0.32
				c0.28,0.53,0.56,1.06,0.83,1.58c0.34,0.65,1.3,0.19,1.14-0.48c0.57-0.6,1.14-1.2,1.72-1.8c0.61,0.18,1.03-0.6,0.61-1.04
				c-0.31-0.32-0.61-0.64-0.92-0.96c-0.25,0.33-0.5,0.65-0.76,0.98c0.68,0.53,1.37,1.07,2.05,1.6c0.25-0.33,0.5-0.65,0.76-0.98
				c-0.65-0.3-1.3-0.59-1.95-0.89c-0.61-0.28-1.3,0.45-0.76,0.98c0.5,0.49,1,0.98,1.5,1.46c0.25-0.33,0.5-0.65,0.76-0.98
				c-0.53-0.4-1.06-0.81-1.59-1.21c-0.59-0.45-1.21,0.48-0.76,0.98c0.45,0.56,0.89,1.11,1.34,1.67c0.33-0.25,0.65-0.5,0.98-0.76
				c-0.66-0.52-1.32-1.04-1.97-1.56c-0.42-0.33-1.32-0.04-1.04,0.61c0.46,1.09,0.92,2.19,1.37,3.28c0.35-0.2,0.7-0.41,1.04-0.61
				c-0.62-0.61-1.24-1.22-1.86-1.83c-0.42-0.42-1.25,0-1.04,0.61c0.3,0.87,0.6,1.75,0.9,2.62c0.35-0.2,0.7-0.41,1.04-0.61
				c-0.77-0.9-1.54-1.8-2.3-2.7c-0.43-0.51-1.17,0.04-1.04,0.61c0.35,1.36,0.57,2.74,0.65,4.14c0.39-0.11,0.78-0.21,1.16-0.32
				c-0.93-1.54-1.6-3.11-2.07-4.85c-0.38,0.16-0.76,0.32-1.14,0.48c1.83,2.5,3.87,4.26,6.69,5.57c0.05-0.38,0.1-0.76,0.15-1.14
				c-1.44,0.43-2.8-2.29-3.17-3.21c-0.19-0.47-0.04-1.03-0.27-1.49c-0.26-0.51-0.29-1.03-0.8-1.3c-1.51-0.78-2.79,0.68-3.3,1.94
				c-1.98,4.93,3.45,7.83,7.49,7.37c0.32-0.04,0.65-0.26,0.62-0.62c-0.08-1.08-0.19-0.6-0.72-1.47c-0.08-0.13-0.31-0.06-0.38-0.13
				c-2.16-1.43-4.33-2.86-6.49-4.3c-0.22-1.52,0.31-2.64,1.6-3.36c-0.24-0.31-0.47-0.61-0.71-0.92c-0.48,0.94-1.16,1.71-1.55,2.69
				c-0.12,0.31,0.17,1.03,0.18,1.35c0.16,0.35,0.07,0.21-0.26-0.44c-1.25-1.81,0.16-2.84,4.24-3.09c0.15-0.36,0.29-0.71,0.44-1.07
				c-0.12-0.06-0.25-0.12-0.37-0.18c-0.15,0.36-0.29,0.71-0.44,1.07c1.33-0.16,1.12-0.06,2.26-0.78c0.38-0.24,0.43-0.85,0-1.08
				c-1.64-0.89-2.9-0.68-4.1,0.8c-0.22,0.27-0.28,0.81,0.13,0.98c1.12,0.48,2.22,1.29,3.47,1.19c0.28-0.02,0.53-0.18,0.6-0.46
				c-0.04,0.72,0.32,1.17,1.11,1.33c0.65,0.41,1.16-0.46,0.76-0.98c-0.29-0.37-0.58-0.74-0.87-1.11c-0.25,0.33-0.5,0.65-0.76,0.98
				c0.76,0.4,1.52,0.8,2.28,1.19c0.72,0.38,1.29-0.62,0.63-1.08c-1.36-0.89-2.64-1.88-3.85-2.96c-0.15,0.36-0.29,0.71-0.44,1.07
				c1.39-0.31,2.76-0.21,4.12,0.3c0.78,0.21,1.11-0.98,0.33-1.21c-5.32-1.53-6.92-2.99-10.43,1.55c-2.4,3.1-2.64,4.35-0.25,7.44
				c6.34,8.23,18.33,5.8,27.26,4.7c0.56-0.07,0.92-0.84,0.32-1.16c-2.31-1.24-4.39-2.68-6.36-4.42c-0.25,0.33-0.5,0.65-0.76,0.98
				c0.51,0.34,1.02,0.67,1.53,1.01c0.58,0.39,1.31-0.53,0.76-0.98c-0.9-0.73-1.79-1.45-2.69-2.18c-0.25,0.33-0.5,0.65-0.76,0.98
				c0.53,0.28,1.06,0.55,1.59,0.83c0.72,0.37,1.3-0.64,0.63-1.08c-1.42-0.94-2.83-1.87-4.25-2.81c-0.6-0.39-1.26,0.49-0.76,0.98
				c0.37,0.36,0.74,0.73,1.12,1.09c0.25-0.33,0.5-0.65,0.76-0.98c-0.88-0.52-1.75-1.05-2.63-1.57c-0.71-0.43-1.25,0.61-0.63,1.08
				c0.8,0.7,1.59,1.39,2.39,2.09c0.25-0.33,0.5-0.65,0.76-0.98c-0.69-0.44-1.38-0.89-2.07-1.33c-0.69-0.44-1.26,0.61-0.63,1.08
				c0.87,0.64,1.74,1.28,2.61,1.92c0.21-0.36,0.42-0.72,0.63-1.08c-0.83-0.62-1.66-1.23-2.49-1.85c-0.25,0.33-0.5,0.65-0.76,0.98
				c1.07,0.83,2.15,1.65,3.22,2.48c0.21-0.36,0.42-0.72,0.63-1.08c-1.14-0.77-2.26-1.44-3.49-2.07c-0.61-0.31-1.29,0.47-0.76,0.98
				c0.51,0.58,1.01,1.15,1.52,1.73c0.29-0.29,0.57-0.57,0.86-0.86c-1.5-0.98-2.86-2.08-4.15-3.32c-0.49-0.47-1.41,0.16-0.98,0.76
				c0.47,0.66,0.94,1.31,1.41,1.97c0.33-0.25,0.65-0.5,0.98-0.76c-1.72-1.38-3.27-2.83-4.76-4.46c-0.25,0.33-0.5,0.65-0.76,0.98
				c0.48,0.28,0.96,0.57,1.44,0.85c0.21-0.36,0.42-0.72,0.63-1.08c-0.82-0.57-1.64-1.15-2.46-1.72c-0.2,0.35-0.41,0.7-0.61,1.04
				c0.43,0.21,0.86,0.42,1.29,0.62c0.2-0.35,0.41-0.7,0.61-1.04c-0.43-0.22-0.86-0.43-1.29-0.65c-0.2,0.35-0.41,0.7-0.61,1.04
				c1.12,0.33,2.24,0.67,3.35,1c0.11-0.4,0.22-0.8,0.33-1.21c-0.72-0.16-1.44-0.32-2.16-0.48c-0.78-0.17-1.11,0.97-0.33,1.21
				c1.06,0.38,2.13,0.77,3.19,1.15c0.16-0.38,0.32-0.76,0.48-1.14c-0.63-0.09-1.26-0.17-1.89-0.26c-0.78-0.11-1.13,1.07-0.33,1.21
				c0.95,0.09,1.86,0.32,2.74,0.7c0.11-0.4,0.22-0.8,0.33-1.21c-0.8-0.13-1.59-0.25-2.39-0.38c-0.63-0.1-1.19,0.84-0.48,1.14
				c0.97,0.41,1.94,0.82,2.91,1.23c0.16-0.38,0.32-0.76,0.48-1.14c-0.59-0.15-1.19-0.29-1.78-0.44c-0.66-0.16-1.14,0.82-0.48,1.14
				c0.93,0.42,1.84,0.89,2.71,1.41c0.16-0.38,0.32-0.76,0.48-1.14c-0.69-0.33-1.38-0.67-2.07-1c-0.7-0.4-1.31,0.65-0.63,1.08
				c0.98,0.53,1.78,1.25,2.4,2.15c0.25-0.33,0.5-0.65,0.76-0.98c-0.78-0.54-1.56-1.08-2.34-1.61c-0.62-0.43-1.19,0.47-0.76,0.98
				c1,1.14,1.93,2.34,2.77,3.6c0.33-0.25,0.65-0.5,0.98-0.76c-1.43-1.29-2.72-2.64-3.96-4.12c-0.46-0.55-1.35,0.16-0.98,0.76
				c0.59,0.97,1.18,1.95,1.78,2.92c0.33-0.25,0.65-0.5,0.98-0.76c-1.29-1.37-2.59-2.75-3.88-4.12c-0.48-0.51-1.37,0.15-0.98,0.76
				c0.92,1.45,1.84,2.89,2.77,4.34c0.33-0.25,0.65-0.5,0.98-0.76c-1.48-1.15-2.96-2.3-4.43-3.45c-0.54-0.42-1.34,0.09-0.98,0.76
				c0.69,1.12,1.14,2.32,1.34,3.6c0.31-0.24,0.61-0.47,0.92-0.71c-1.24-0.95-2.47-1.9-3.71-2.85c-0.59-0.46-1.19,0.48-0.76,0.98
				c1.1,1.27,2.19,2.55,3.29,3.82c0.46,0.53,1.41-0.18,0.98-0.76c-1-1.2-1.77-2.55-2.3-4.04c-0.31,0.24-0.61,0.47-0.92,0.71
				c1.54,1.08,2.68,2.09,3.93,3.44c0.5,0.54,1.3-0.15,0.98-0.76c-0.76-1.27-1.25-2.63-1.47-4.08c-0.31,0.24-0.61,0.47-0.92,0.71
				c0.53,0.41,1.07,0.82,1.6,1.23C115.34,69.73,116.22,68.84,115.73,68.21L115.73,68.21z"/>
		</g>
	</g>
	<g>
		<g>
			<path class="st2" d="M124.33,77.35c0.86,0.62,1.23,0.77,2.27,1c0.22-1.64,0.44-3.27,0.66-4.91c-3.27-0.4-6.45-0.75-9.74-1.09
				c-2.48-0.25-9.47-1.71-9.21-5.3c0.18-2.49-3.52-3.39-4.66-1.26c-1.74,3.27-0.51,11.97,4.95,9.04c0.81-0.43,1.37-1.1,1.77-1.93
				c0.75-1.56,0.26-2.04,1.88-3.54c0.33-0.31,0.85-0.38,1.17-0.74c1.49-1.72,1.92-3.41,0.22-5.22c-1.01,1.31-2.02,2.62-3.03,3.93
				c1.88,1.03,3.74,2.09,5.57,3.22c1.53,0.94,1.48,1.57,2.86-0.08c1.56-1.87,0.36-1.65-1.14-2.97c-1.56-1.37-3.35-3.55-5.59-1.93
				c-1.71,1.24-1.51,4.12-0.69,5.79c1.55,3.16,5.13,2.87,7.8,4.46c2.19,1.31,4.6-1.27,3.42-3.42c-1.14-2.08-2.76-3.11-4.91-4.05
				c-2.92-1.27-5.47,3.04-2.52,4.32c1.26,0.54,2.39,0.94,3.12,2.25c1.14-1.14,2.28-2.28,3.42-3.42c-0.6-0.36-6-2.64-5.95-2.71
				c-0.72,0.41-1.44,0.83-2.16,1.24c-1.3-0.72-1.29-0.54,0.03,0.54c0.67,0.63,1.37,1.23,2.1,1.79c0.81,0.63,1.69,1.48,2.72,1.74
				c1.49,0.37,3.09-0.17,3.82-1.61c2.37-4.7-6.6-7.96-9.35-9.47c-2.5-1.37-4.98,1.84-3.03,3.93c0.15,0.16,0.3,0.32,0.45,0.48
				c-0.21-0.81-0.43-1.62-0.64-2.43c-0.02,0.09-2.37,1.91-2.5,2.08c-0.34,0.45-0.66,0.94-0.88,1.46c-0.36,0.85-0.88,4.13,1.43-0.21
				c-1.55-0.42-3.11-0.84-4.66-1.26c-0.34,4.8,3.63,7.18,7.72,8.82c2.43,0.98,4.96,1.45,7.57,1.59c2.98,0.15,5.72,0.63,8.66,0.99
				c2.8,0.34,3.39-4.31,0.66-4.91c-0.36-0.17-0.72-0.33-1.07-0.5C124.24,71.15,121.74,75.48,124.33,77.35L124.33,77.35z"/>
		</g>
	</g>
</g>
<g id="Layer_2">
	
		<rect x="56.33" y="98.72" transform="matrix(0.6851 0.7284 -0.7284 0.6851 119.0212 -2.8966)" class="st2" width="13.06" height="75"/>
	<g>
		<g>
			<path class="st2" d="M115.08,64.01c0.98,0.01,2.04,0.4,2.79-0.47c0.56-0.65,0.3-1.34-0.1-1.98c-0.66-1.03-1.43-2.06-2.42-2.81
				c-1.13-0.86-2.5-1.3-3.44-2.4c-0.53-0.61-1.41,0.28-0.88,0.88c0.94,1.09,2.22,1.56,3.37,2.36c0.77,0.54,1.36,1.26,1.91,2.02
				c0.36,0.51,1.03,1.06-0.29,1.22c-0.27,0.03-0.66-0.08-0.93-0.08C114.27,62.75,114.27,64,115.08,64.01L115.08,64.01z"/>
		</g>
	</g>
	<g>
		<g>
			<path class="st2" d="M115.08,64.17c0.73,1.25,1.9,1.77,3.31,1.88c1.65,0.14,2.62-0.26,3.35-1.81c0.58-1.23,0.12-2.84-0.52-3.97
				c-0.41-0.73-0.96-1.03-1.55-1.59c-0.66-0.62-0.94-1.48-1.61-2.08c-0.6-0.53-1.49,0.35-0.88,0.88c0.57,0.51,0.79,1.2,1.29,1.76
				c0.68,0.77,1.51,1.12,1.91,2.16c0.41,1.09,0.58,2.57-0.57,3.23c-1.11,0.64-3.04-0.08-3.64-1.11
				C115.76,62.84,114.67,63.47,115.08,64.17L115.08,64.17z"/>
		</g>
	</g>
	<g>
		<g>
			<path class="st2" d="M117.86,66.38c2.05,1.5,4.71,2.82,6.95,0.85c1.76-1.56,0.13-4.77-1.05-6.2c-0.51-0.62-1.39,0.27-0.88,0.88
				c0.99,1.2,2.33,3.91,0.42,4.81c-1.75,0.83-3.44-0.41-4.81-1.42C117.84,64.82,117.22,65.9,117.86,66.38L117.86,66.38z"/>
		</g>
	</g>
	<g>
		<g>
			<path class="st2" d="M111.07,78.66c0.8,0,0.81-1.25,0-1.25C110.27,77.41,110.27,78.66,111.07,78.66L111.07,78.66z"/>
		</g>
	</g>
	<g>
		<g>
			<path class="st2" d="M108.52,77.66c0.74,1.42,1.19,2.89,1.41,4.47c0.2-0.26,0.4-0.53,0.6-0.79c-1.55-0.13-2.5-1.55-3.63-2.46
				c-0.95-0.76-2.02-1.25-3.2-1.55c-0.78-0.19-1.11,1.01-0.33,1.21c1.86,0.46,2.94,1.57,4.35,2.77c0.85,0.72,1.7,1.18,2.81,1.28
				c0.45,0.04,0.65-0.43,0.6-0.79c-0.24-1.69-0.75-3.26-1.54-4.77C109.23,76.32,108.15,76.95,108.52,77.66L108.52,77.66z"/>
		</g>
	</g>
	<g>
		<g>
			<path class="st2" d="M114.31,79.32c0.08,0.18,0.15,0.36,0.23,0.54c0.36-0.21,0.72-0.42,1.08-0.63c-0.64-0.99-1.21-1.36-2.33-1.77
				c-1.29-0.48-2.86-0.38-4.18-0.9c-1.15-0.45-2.31-1.33-3.28-2.07c-3.47-2.66-3.25-6.56-0.84-9.8c3.02-4.07,7.11-2.62,10.16,0.44
				c0.57,0.57,1.45-0.31,0.88-0.88c-4.84-4.86-11.21-4.32-13.66,2.65c-1.05,2.98-0.5,5.79,1.84,7.94c1.11,1.02,2.51,1.86,3.83,2.56
				c1.64,0.87,5.61,1.11,6.49,2.47c0.45,0.69,1.39,0.09,1.08-0.63c-0.08-0.18-0.15-0.36-0.23-0.54
				C115.08,77.95,114,78.59,114.31,79.32L114.31,79.32z"/>
		</g>
	</g>
	<g>
		<g>
			<path class="st2" d="M120.9,67.8c3.23,3.78,6.89,7.02,11.03,9.77c0.05-0.38,0.1-0.76,0.15-1.14c-5.99,1.43-12.02,1.97-18.16,1.62
				c-0.8-0.05-0.8,1.2,0,1.25c6.26,0.35,12.39-0.21,18.49-1.66c0.55-0.13,0.58-0.86,0.15-1.14c-4.06-2.7-7.61-5.87-10.78-9.57
				C121.26,66.3,120.38,67.19,120.9,67.8L120.9,67.8z"/>
		</g>
	</g>
	<g>
		<g>
			<path class="st2" d="M114.29,79.6c0.58,1.2,1.13,2.36-0.44,3.12c-0.5,0.24-1.25,0.27-1.78,0.37c-1.54,0.27-3.09,0.41-4.65,0.47
				c-0.8,0.03-0.81,1.28,0,1.25c1.47-0.05,2.93-0.18,4.39-0.41c1.05-0.17,2.44-0.22,3.34-0.83c1.62-1.09,0.92-3.19,0.24-4.6
				C115.01,78.24,113.94,78.88,114.29,79.6L114.29,79.6z"/>
		</g>
	</g>
	<g>
		<g>
			<path class="st2" d="M119.85,79.77c0.52,0.48,0.96,1.16,0.89,1.91c-0.09,0.96-0.95,1.35-1.76,1.6c-1.28,0.41-2.36,0.85-3.49,1.59
				c-0.67,0.44-0.04,1.52,0.63,1.08c1.03-0.68,2.03-1.1,3.19-1.47c0.78-0.25,1.56-0.57,2.09-1.23c1.09-1.36,0.53-3.28-0.67-4.37
				C120.14,78.34,119.26,79.22,119.85,79.77L119.85,79.77z"/>
		</g>
	</g>
	<g>
		<g>
			<path class="st2" d="M132.43,77.34c8.98-3.4,18.92-5.14,24.65-13.61c0.45-0.67-0.63-1.29-1.08-0.63
				c-5.52,8.16-15.3,9.78-23.9,13.04C131.35,76.42,131.67,77.63,132.43,77.34L132.43,77.34z"/>
		</g>
	</g>
	<g>
		<g>
			<path class="st2" d="M132.99,76.99c0.01-0.05,0.02-0.1,0.04-0.16c0.07-0.32-0.1-0.69-0.44-0.77c-0.07-0.02-0.14-0.03-0.21-0.05
				c-0.47-0.1-0.89,0.29-0.77,0.77c1.26,4.98,9.11,7.39,13.23,8.76c4.19,1.39,11.58,3.41,14.99-0.62c0.52-0.61-0.36-1.5-0.88-0.88
				c-3.29,3.89-10.65,1.4-14.66,0c-2.15-0.75-4.52-1.53-6.47-2.66c-0.67-0.39-6.08-4.55-6.04-4.73
				C131.61,77.44,132.81,77.78,132.99,76.99L132.99,76.99z"/>
		</g>
	</g>
</g>
</svg>
