<?xml version="1.0" encoding="utf-8"?>
<!-- Generator: Adobe Illustrator 23.0.4, SVG Export Plug-In . SVG Version: 6.00 Build 0)  -->
<svg version="1.1" xmlns="http://www.w3.org/2000/svg" xmlns:xlink="http://www.w3.org/1999/xlink" x="0px" y="0px"
	 viewBox="0 0 200 200" style="enable-background:new 0 0 200 200;" xml:space="preserve">
<style type="text/css">
	.st0{fill:#3DB54A;}
	.st1{fill:#FFFFFF;stroke:#FFFFFF;stroke-miterlimit:10;}
	.st2{fill:#FFFFFF;}
</style>
<g id="Layer_1">
	<circle class="st0" cx="100" cy="100" r="100"/>
</g>
<g id="Layer_2">
	<rect x="76.06" y="157.89" class="st1" width="37.78" height="22.11"/>
	<g>
		<path class="st2" d="M27.74,131.42c-0.44-0.32-0.88-0.64-1.32-0.96c2.42,4.46,6.36,8.17,11.15,9.84c0.51,0.18,1.02,0.33,1.51,0.57
			c0.68,0.33,1.27,0.8,1.93,1.15c0.79,0.42,1.67,0.65,2.54,0.89c1.18,0.32,2.37,0.63,3.55,0.95"/>
		<g>
			<path class="st2" d="M29,129.26c-0.44-0.32-0.88-0.64-1.32-0.96c-2.11-1.53-4.59,1.39-3.42,3.42
				c4.79,8.29,13.26,12.16,22.17,14.54c3.11,0.83,4.44-3.99,1.33-4.82c-7.56-2.02-15.09-5.18-19.18-12.25
				c-1.14,1.14-2.28,2.28-3.42,3.42c0.44,0.32,0.88,0.64,1.32,0.96C29.09,135.47,31.58,131.13,29,129.26L29,129.26z"/>
		</g>
	</g>
	<g>
		<path class="st2" d="M27.98,131.07c-0.26-0.02-0.48-0.25-0.5-0.5c1.1,0.87,2.34,1.61,3.71,1.97c0.73,0.19,1.49,0.27,2.24,0.34
			c2.17,0.2,4.37,0.34,6.46,0.96c2.15,0.65,4.21,1.82,6.46,1.77"/>
		<g>
			<path class="st2" d="M29.24,128.91c0.13,0.13,0.27,0.26,0.4,0.39c-1.14,1.14-2.28,2.28-3.42,3.42c2.91,2.13,5.68,2.43,9.17,2.83
				c3.79,0.44,7.16,2.32,10.96,2.55c3.21,0.2,3.2-4.8,0-5c-2.98-0.18-5.71-1.83-8.68-2.27c-3.28-0.49-6.14-0.38-8.93-2.42
				c-2.22-1.63-4.36,1.42-3.42,3.42c0.31,0.66,0.74,1.08,1.4,1.4C29.61,134.61,32.15,130.3,29.24,128.91L29.24,128.91z"/>
		</g>
	</g>
	<g>
		<path class="st2" d="M49.44,140.79c-1.76-0.92-3.66-1.57-5.62-1.91c-1.04-0.18-2.1-0.28-3.08-0.66c-1.67-0.66-2.98-2.12-4.74-2.52
			"/>
		<g>
			<path class="st2" d="M50.7,138.63c-2.39-1.19-4.77-1.87-7.39-2.35c-2.48-0.45-4.26-2.24-6.65-2.99
				c-3.08-0.97-4.39,3.86-1.33,4.82c2.11,0.66,3.65,2.32,5.87,2.84c2.43,0.57,4.69,0.86,6.97,1.99
				C51.05,144.37,53.59,140.06,50.7,138.63L50.7,138.63z"/>
		</g>
	</g>
	<g>
		<path class="st2" d="M33.44,132.05c3.22,0.19,6.4,0.82,9.45,1.87c1.17,0.4,2.32,0.87,3.52,1.16c1.43,0.35,2.92,0.43,4.39,0.44
			c1.75,0.01,3.5-0.1,5.21-0.49c1.52-0.34,2.97-0.91,4.39-1.55c1.01-0.46,2-0.96,2.86-1.67c1-0.82,1.76-1.88,2.49-2.94
			c0.45-0.67,0.9-1.34,1.22-2.08c0.52-1.2,0.7-2.52,0.87-3.82"/>
		<g>
			<path class="st2" d="M33.44,134.55c8.63,0.7,15.89,5.26,24.72,2.48c6.5-2.05,11.1-6.53,12.07-13.4c0.45-3.15-4.37-4.51-4.82-1.33
				c-1.06,7.49-7.46,10.75-14.62,10.71c-5.85-0.03-11.44-2.99-17.36-3.47C30.24,129.29,30.25,134.29,33.44,134.55L33.44,134.55z"/>
		</g>
	</g>
	<g>
		<path class="st2" d="M65.99,123.81c0.27,0.55,0.08,1.22-0.27,1.73c-0.35,0.5-0.84,0.89-1.25,1.34c-0.67,0.73-1.15,1.64-1.9,2.31
			c-0.47,0.42-1.03,0.72-1.59,0.99c-6.63,3.23-14.43,3.28-21.65,1.77c-1.14-0.24-2.29-0.52-3.46-0.48
			c-0.74,0.02-1.47,0.18-2.21,0.21c-1,0.05-2.02-0.12-2.95-0.49c-0.56-0.22-1.13-0.41-1.71-0.55"/>
		<g>
			<path class="st2" d="M63.49,123.81c0.21,1.93-3.62,4.13-5.04,4.71c-3.39,1.38-6.99,1.9-10.63,1.88
				c-3.27-0.02-6.34-0.77-9.55-1.22c-3.05-0.42-5.57,0.02-8.62-0.97c-3.07-0.99-4.38,3.83-1.33,4.82c4.21,1.36,8.5,1.09,12.86,1.77
				c4.4,0.69,8.82,0.81,13.22,0.05c3.26-0.56,7.4-1.61,9.93-3.9c1.89-1.71,4.45-4.43,4.15-7.13
				C68.14,120.65,63.13,120.61,63.49,123.81L63.49,123.81z"/>
		</g>
	</g>
	<g>
		<path class="st2" d="M48.74,142.81c0.38,1.03,1.41,1.65,2.39,2.15c1.75,0.9,3.55,1.68,5.4,2.34c0.71,0.25,1.43,0.49,2.18,0.59
			c0.79,0.1,1.59,0.05,2.38,0.17c0.73,0.11,1.44,0.36,2.18,0.41c1.57,0.09,3.2-0.78,4.67-0.21"/>
		<g>
			<path class="st2" d="M46.58,144.07c1.9,3.01,5.51,4.25,8.73,5.44c1.81,0.66,3.5,0.84,5.39,1.08c2.11,0.27,4.58-0.26,6.57,0.08
				c3.15,0.54,4.5-4.28,1.33-4.82c-2.7-0.46-5.38,0.04-8.11-0.33c-2.75-0.38-7.94-1.36-9.59-3.97
				C49.18,138.83,44.86,141.34,46.58,144.07L46.58,144.07z"/>
		</g>
	</g>
	<g>
		<path class="st2" d="M48.02,142.73c1.1,1.46,2.6,2.62,4.3,3.31c-1.04-0.61-2.08-1.22-3.12-1.83c-0.45-0.27-0.94-0.54-1.46-0.49
			c0.6,0.87,1.56,1.42,2.56,1.77c1,0.35,2.04,0.51,3.07,0.76c1.92,0.47,3.87,1.27,5.8,0.84c-0.82-0.72-1.49-1.6-1.98-2.57
			c-0.24-0.48-0.44-1-0.81-1.4c-0.34-0.37-0.79-0.62-1.24-0.85c-1.9-1-3.93-2.08-4.94-3.97c-0.12-0.22-0.25-0.47-0.49-0.55
			c-0.15-0.04-0.3-0.01-0.46,0.01c-0.32,0.04-0.64,0-0.94-0.11"/>
		<g>
			<path class="st2" d="M46.25,144.5c1.3,1.61,2.92,2.85,4.8,3.7c2.87,1.3,5.36-2.65,2.52-4.32c-1.61-0.95-3.3-2.26-5.18-2.57
				c-2.51-0.41-4.08,2.19-2.43,4.18c1.53,1.85,3.7,2.47,5.95,3c2.73,0.64,5.08,1.41,7.9,1.02c1.9-0.26,2.34-3,1.1-4.18
				c-1.09-1.04-1.51-2.31-2.4-3.47c-0.93-1.21-2.28-1.78-3.57-2.53c-1.3-0.75-1.94-1.48-2.81-2.63c-0.98-1.29-1.74-1.11-3.18-1.47
				c-3.12-0.77-4.46,4.05-1.33,4.82c0.22,0.05,1.43,0.43,1.6,0.2c-1.24-0.97-1.53-1.03-0.88-0.16c0.13,0.17,0.26,0.34,0.39,0.51
				c0.85,1.11,1.94,1.96,3.12,2.71c1.16,0.72,2.3,1.07,3.03,2.22c0.77,1.22,1.43,2.31,2.49,3.32c0.37-1.39,0.74-2.79,1.1-4.18
				c-1.73,0.24-3.58-0.63-5.24-1.02c-1.46-0.35-2.75-0.51-3.75-1.71c-0.81,1.39-1.62,2.79-2.43,4.18c1.39,0.23,2.77,1.36,3.98,2.07
				c0.84-1.44,1.68-2.88,2.52-4.32c-1.57-0.71-2.71-1.58-3.79-2.92C47.76,138.46,44.24,142.02,46.25,144.5L46.25,144.5z"/>
		</g>
	</g>
	<g>
		<path class="st2" d="M64.41,145.75c-1.46-2.01-3.86-3.07-5.75-4.69c-1.45-1.24-2.76-2.91-4.64-3.19"/>
		<g>
			<path class="st2" d="M66.17,143.98c-1.58-1.99-3.83-3.09-5.75-4.69c-1.85-1.53-3.3-3.28-5.75-3.83
				c-3.13-0.71-4.47,4.11-1.33,4.82c1.82,0.41,3.09,2.23,4.53,3.33c1.66,1.26,3.45,2.24,4.76,3.9
				C64.63,150.04,68.15,146.48,66.17,143.98L66.17,143.98z"/>
		</g>
	</g>
	<g>
		<path class="st2" d="M57.68,138c1.44,0.15,2.9-0.29,4.13-1.06s2.24-1.84,3.12-2.99c3.37-4.46,4.73-10.38,3.64-15.86"/>
		<g>
			<path class="st2" d="M57.68,140.5c11.02,0.06,14.72-14.41,13.3-23.08c-0.52-3.17-5.34-1.82-4.82,1.33
				c0.88,5.39-1.18,16.79-8.48,16.75C54.46,135.48,54.45,140.48,57.68,140.5L57.68,140.5z"/>
		</g>
	</g>
	<g>
		<path class="st2" d="M65.88,147.51c2.74,0.45,5.54,0.31,8.31,0.17c5.19-0.26,10.37-0.53,15.56-0.79c1.35-0.07,2.69-0.14,4.04-0.08
			c1.32,0.06,2.64,0.23,3.95,0.36c1.32,0.13,2.64,0.2,3.97,0.28c2.66,0.15,5.33,0.3,7.99,0.45"/>
		<g>
			<path class="st2" d="M65.88,150.01c7.83,0.96,16.02-0.28,23.87-0.62c6.61-0.29,13.34,0.64,19.95,1.01c3.21,0.18,3.2-4.82,0-5
				c-6.61-0.38-13.33-1.3-19.95-1.01c-7.85,0.34-16.05,1.58-23.87,0.62C62.69,144.62,62.72,149.62,65.88,150.01L65.88,150.01z"/>
		</g>
	</g>
	<g>
		<path class="st2" d="M76.31,148.28c3.6,0.15,7.2,0.3,10.79,0.44c1.05,0.04,2.11,0.09,3.16,0.02c1.2-0.08,2.39-0.31,3.59-0.43
			c3.12-0.3,6.25,0.19,9.38,0.12c1.41-0.03,2.82-0.18,4.22-0.32c2.4-0.25,4.79-0.49,7.19-0.74"/>
		<g>
			<path class="st2" d="M76.31,150.78c12.82,0.53,25.57,0.41,38.34-0.9c3.17-0.32,3.2-5.33,0-5c-12.77,1.31-25.52,1.43-38.34,0.9
				C73.09,145.65,73.1,150.65,76.31,150.78L76.31,150.78z"/>
		</g>
	</g>
	<g>
		<path class="st2" d="M69.44,148.37"/>
		<g>
			<path class="st2" d="M69.44,150.87c3.22,0,3.22-5,0-5C66.22,145.87,66.22,150.87,69.44,150.87L69.44,150.87z"/>
		</g>
	</g>
	<g>
		<path class="st2" d="M69.44,147.64c-0.15,0.14,0.1,0.34,0.29,0.38c1.7,0.32,3.49-0.44,5.18-0.04c-1.27,0.81-2.93,0.33-4.42,0.46
			c1.76-0.3,3.58-0.27,5.33,0.08c-0.68,0.04-1.36,0.09-2.03,0.13c1.69-0.23,3.41-0.3,5.11-0.21"/>
		<g>
			<path class="st2" d="M66.94,147.64c0.35,4.23,4.64,2.34,7.31,2.75c-0.2-1.52-0.4-3.05-0.6-4.57c-0.84,0.42-2.25,0.08-3.16,0.12
				c0.22,1.64,0.44,3.27,0.66,4.91c1.32-0.19,2.69-0.15,4,0.08c0.22-1.64,0.44-3.27,0.66-4.91c-0.68,0.04-1.36,0.09-2.03,0.13
				c0,1.67,0,3.33,0,5c1.71-0.21,3.39-0.28,5.11-0.21c3.22,0.13,3.21-4.87,0-5c-1.72-0.07-3.4,0-5.11,0.21c-3.1,0.38-3.28,5.21,0,5
				c0.68-0.04,1.36-0.09,2.03-0.13c2.63-0.17,3.61-4.39,0.66-4.91c-2.27-0.4-4.38-0.41-6.66-0.08c-2.79,0.4-2.12,5.02,0.66,4.91
				c2.04-0.08,3.8,0.15,5.69-0.8c1.81-0.91,1.53-4.24-0.6-4.57c-1-0.16-1.91-0.23-2.92-0.13c-0.44,0.04-0.87,0.1-1.31,0.13
				c-0.39,0.02-1.27-0.22-0.63,0.14c0.41,0.72,0.83,1.44,1.24,2.16c-0.01-0.08-0.01-0.15-0.02-0.23
				C71.67,144.45,66.67,144.43,66.94,147.64L66.94,147.64z"/>
		</g>
	</g>
	<g>
		<path class="st2" d="M101.16,148.53c2.34,0.37,4.72,0.21,7.08,0.03c2.36-0.18,4.72-0.39,7.08-0.61c1.81-0.17,3.64-0.35,5.36-0.92
			c1.34-0.44,2.63-1.12,4.03-1.23"/>
		<g>
			<path class="st2" d="M101.16,151.03c4.69,0.5,9.48-0.1,14.16-0.58c3.54-0.37,6.62-1.57,10.06-2.24c3.15-0.62,1.82-5.44-1.33-4.82
				c-3.61,0.71-6.77,1.89-10.5,2.23c-4.12,0.37-8.25,0.86-12.39,0.42C97.97,145.69,97.99,150.69,101.16,151.03L101.16,151.03z"/>
		</g>
	</g>
	<g>
		<path class="st2" d="M110.15,148.53c0.25,0.27,0.66,0.3,1.03,0.32c6.93,0.24,13.87-0.11,20.78-0.59c4.2-0.29,8.41-0.64,12.57-1.31
			c1.87-0.3,3.79-0.7,5.34-1.78"/>
		<g>
			<path class="st2" d="M109.49,150.94c3.13,0.97,6.96,0.51,10.2,0.43c4.1-0.1,8.19-0.33,12.28-0.62c6.17-0.43,13.65-0.3,19.17-3.43
				c2.8-1.59,0.28-5.91-2.52-4.32c-5.17,2.94-12.73,2.5-18.53,2.88c-2.83,0.18-5.66,0.34-8.5,0.44c-3.21,0.11-7.67,0.75-10.76-0.2
				C107.74,145.17,106.42,149.99,109.49,150.94L109.49,150.94z"/>
		</g>
	</g>
	<g>
		<path class="st2" d="M163.93,144.54c2.13-1.27,4.19-2.72,6.37-4.01c2.39-1.41,5.41-2.82,7.48-4.9l-29.13,10.63
			c2.81,0.81,5.82,0.36,8.69-0.19C159.56,145.64,161.76,145.14,163.93,144.54z"/>
		<g>
			<path class="st2" d="M165.2,146.7c4.76-2.95,10.17-5.56,14.35-9.31c1.81-1.62-0.09-5.03-2.43-4.18
				c-9.71,3.54-19.42,7.08-29.13,10.63c-2.11,0.77-2.63,4.29,0,4.82c5.61,1.13,11.17-0.28,16.61-1.71c3.11-0.82,1.79-5.64-1.33-4.82
				c-4.46,1.17-9.33,2.64-13.95,1.71c0,1.61,0,3.21,0,4.82c9.71-3.54,19.42-7.08,29.13-10.63c-0.81-1.39-1.62-2.79-2.43-4.18
				c-3.83,3.43-8.98,5.82-13.34,8.53C159.94,144.08,162.45,148.4,165.2,146.7z"/>
		</g>
	</g>
	<g>
		<path class="st2" d="M143.26,146.68c0.81,0.18,1.64,0.31,2.47,0.38c0.36,0.03,0.72,0.06,1.09,0.02c0.31-0.03,0.62-0.1,0.93-0.17
			c1.63-0.38,3.25-0.75,4.88-1.13"/>
		<g>
			<path class="st2" d="M142.59,149.09c1.68,0.34,3.41,0.66,5.12,0.37c1.87-0.32,3.73-0.84,5.58-1.26c3.13-0.72,1.81-5.55-1.33-4.82
				c-2.78,0.64-5.2,1.47-8.04,0.89C140.78,143.63,139.44,148.45,142.59,149.09L142.59,149.09z"/>
		</g>
	</g>
	<g>
		<path class="st2" d="M142.52,146.62c1.01,0.35,2.05,0.7,3.13,0.66c0.94-0.03,1.85-0.35,2.79-0.44c1.35-0.13,2.78,0.22,4.04-0.3"/>
		<g>
			<path class="st2" d="M141.85,149.03c1.87,0.63,3.55,0.87,5.51,0.53c1.92-0.34,3.9-0.05,5.78-0.61c3.08-0.91,1.77-5.74-1.33-4.82
				c-1.4,0.41-2.94,0.11-4.39,0.35c-1.69,0.27-2.61,0.27-4.24-0.27C140.12,143.18,138.81,148.01,141.85,149.03L141.85,149.03z"/>
		</g>
	</g>
	<g>
		<path class="st2" d="M132.5,125.02l-6.55-1.5c0.04,1,0.58,1.91,1.16,2.73c0.86,1.22,1.84,2.33,2.9,3.37
			C130,127.81,130.84,125.97,132.5,125.02z"/>
		<g>
			<path class="st2" d="M133.16,122.61c-2.18-0.5-4.37-1-6.55-1.5c-1.43-0.33-3.35,0.71-3.16,2.41c0.35,3.18,2.59,5.69,4.79,7.87
				c1.57,1.56,4.2,0.38,4.27-1.77c0.03-1,0.39-1.89,1.26-2.43c2.71-1.71,0.21-6.04-2.52-4.32c-2.39,1.51-3.65,3.95-3.73,6.75
				c1.42-0.59,2.85-1.18,4.27-1.77c-0.74-0.73-1.46-1.48-2.1-2.3c-0.43-0.55-1.15-1.32-1.23-2.03c-1.05,0.8-2.11,1.61-3.16,2.41
				c2.18,0.5,4.37,1,6.55,1.5C134.97,128.15,136.3,123.33,133.16,122.61z"/>
		</g>
	</g>
	<g>
		<path class="st2" d="M173.38,134.4c-0.32,0.1-0.66,0.17-1.02,0.21c-6.32,0.68-12.64,1.19-19,1.09c-5.63-0.09-11.18-1.37-16.8-1.37
			c0.77,0.4,1.55,0.78,2.35,1.12c1.56,0.65,3.17,1.18,4.82,1.58c4.42,1.07,9.02,1.19,13.56,1.48c3.47,0.23,6.96,0.56,10.42,0.26
			c3.47-0.3,6.96-1.29,9.7-3.44L173.38,134.4z"/>
		<g>
			<path class="st2" d="M172.72,131.99c-12.12,2.47-24.05,0.13-36.16-0.17c-2.41-0.06-3.5,3.53-1.26,4.66
				c7.02,3.53,14.29,4.03,21.99,4.52c7.46,0.48,14.96,0.98,21.38-3.52c1.64-1.15,1.65-4.05-0.6-4.57c-1.34-0.31-2.68-0.62-4.03-0.92
				c-3.13-0.72-4.47,4.1-1.33,4.82c1.34,0.31,2.68,0.62,4.03,0.92c-0.2-1.52-0.4-3.05-0.6-4.57c-5.67,3.98-12.3,3.26-18.86,2.84
				c-6.74-0.43-13.31-0.75-19.47-3.84c-0.42,1.55-0.84,3.11-1.26,4.66c12.6,0.31,24.89,2.56,37.49-0.01
				C177.19,136.17,175.86,131.35,172.72,131.99z"/>
		</g>
	</g>
	<g>
		<path class="st2" d="M131.17,126.16l-4.21-0.83c1.09,0.98,2.13,2.03,3.18,3.07C130.31,127.58,130.65,126.81,131.17,126.16z"/>
		<g>
			<path class="st2" d="M131.84,123.75c-1.4-0.28-2.81-0.56-4.21-0.83c-1.1-0.22-2.24,0.14-2.82,1.15
				c-0.54,0.92-0.42,2.29,0.39,3.03c1.09,0.99,2.13,2.03,3.18,3.07c1.3,1.29,3.74,0.75,4.18-1.1c0.18-0.75,0.28-0.97,0.78-1.64
				c0.81-1.08,0.17-2.79-0.9-3.42c-1.28-0.75-2.61-0.19-3.42,0.9c-0.63,0.83-1.05,1.82-1.29,2.83c1.39-0.37,2.79-0.74,4.18-1.1
				c-1.04-1.04-2.09-2.08-3.18-3.07c-0.81,1.39-1.62,2.79-2.43,4.18c1.4,0.28,2.81,0.56,4.21,0.83c1.32,0.26,2.7-0.38,3.08-1.75
				C133.92,125.59,133.17,124.01,131.84,123.75z"/>
		</g>
	</g>
	<g>
		<path class="st2" d="M172.35,134.61c-6.32,0.68-12.64,1.19-19,1.09c-5.22-0.08-10.37-1.18-15.56-1.35
			c0.31,0.14,0.63,0.27,0.95,0.39c1.42,0.52,2.92,0.8,4.4,1.07c3.98,0.72,7.96,1.45,11.95,2.14c1.77,0.31,3.55,0.61,5.34,0.62
			c1.87,0.01,3.73-0.29,5.58-0.6c2.72-0.45,5.47-0.9,8-2c0.66-0.28,1.29-0.61,1.92-0.95l-2.78-0.55
			C172.9,134.53,172.63,134.58,172.35,134.61z"/>
		<g>
			<path class="st2" d="M172.35,132.11c-5.99,0.63-12.02,1.16-18.05,1.09c-5.54-0.06-10.99-1.08-16.51-1.36
				c-3.06-0.16-3.06,3.92-0.66,4.91c6.1,2.53,14.08,3.38,20.62,4.1c6.38,0.7,13.75-0.71,19.44-3.68c1.84-0.96,1.51-4.15-0.6-4.57
				c-1.73-0.34-3.16-0.73-4.91-0.4c-3.16,0.59-1.82,5.41,1.33,4.82c-0.2,0.04,1.6,0.27,2.25,0.4c-0.2-1.52-0.4-3.05-0.6-4.57
				c-5.96,3.12-13.26,3.62-19.77,2.53c-5.37-0.9-11.39-1.35-16.44-3.45c-0.22,1.64-0.44,3.27-0.66,4.91
				c5.52,0.28,10.98,1.3,16.51,1.36c6.03,0.06,12.05-0.46,18.05-1.09C175.52,136.78,175.56,131.78,172.35,132.11z"/>
		</g>
	</g>
	<g>
		<path class="st2" d="M132.23,125.18c-1.43-0.93-2.8-1.95-4.04-3.13c0.76,1.53,1.77,2.92,2.95,4.15
			C131.44,125.82,131.8,125.47,132.23,125.18z"/>
		<g>
			<path class="st2" d="M133.49,123.02c-1.32-0.87-2.39-1.66-3.54-2.73c-2.11-1.97-5.22,0.5-3.93,3.03
				c0.87,1.71,2.02,3.27,3.34,4.66c0.86,0.91,2.7,1.03,3.54,0c0.13-0.16,0.26-0.32,0.41-0.46c0.05-0.05,0.45-0.37,0.18-0.17
				c1.1-0.78,1.62-2.18,0.9-3.42c-0.63-1.09-2.32-1.68-3.42-0.9c-0.6,0.42-1.14,0.85-1.6,1.42c1.18,0,2.36,0,3.54,0
				c-1.08-1.14-1.81-2.17-2.56-3.65c-1.31,1.01-2.62,2.02-3.93,3.03c1.4,1.31,2.94,2.47,4.55,3.52c1.13,0.74,2.76,0.23,3.42-0.9
				C135.1,125.23,134.62,123.76,133.49,123.02z"/>
		</g>
	</g>
	<g>
		<path class="st2" d="M166.65,137.32c0.28-0.1,0.56-0.19,0.84-0.29c-1.77-0.69-3.61-1.16-5.47-1.54c-2.89,0.17-5.77,0.26-8.67,0.21
			c-3.37-0.05-6.71-0.53-10.05-0.91c3.82,1.67,7.78,3.01,11.84,3.97c1.91,0.45,3.87,0.83,5.82,0.69c3.43-0.24,6.53-2.01,9.75-3.22
			c-0.19-0.01-0.37-0.02-0.56-0.03L166.65,137.32z"/>
		<g>
			<path class="st2" d="M167.32,139.73c0.28-0.1,0.56-0.19,0.84-0.29c2.37-0.82,2.37-4,0-4.82c-7.76-2.69-16.68-1.37-24.85-2.33
				c-2.4-0.28-3.51,3.71-1.26,4.66c4.91,2.07,10.02,4.02,15.33,4.79c5.12,0.75,9.36-1.23,14.01-3.09c2.56-1.02,2.29-4.74-0.66-4.91
				c-1.62-0.09-3.22,0.69-4.73,1.18C162.93,135.88,164.24,140.71,167.32,139.73c1-0.32,2.37-1.06,3.4-1
				c-0.22-1.64-0.44-3.27-0.66-4.91c-4.33,1.73-8.02,3.71-12.81,2.85c-4.35-0.78-8.63-2.33-12.68-4.04
				c-0.42,1.55-0.84,3.11-1.26,4.66c3.64,0.43,7.25,0.88,10.92,0.92c4.45,0.05,8.3-0.26,12.6,1.23c0-1.61,0-3.21,0-4.82
				c-0.28,0.1-0.56,0.19-0.84,0.29C162.97,135.96,164.27,140.79,167.32,139.73z"/>
		</g>
	</g>
	<g>
		<path class="st2" d="M177.01,134.02l-5.77,1.84C173.3,135.64,175.29,135.14,177.01,134.02
			C177.01,134.02,177.01,134.02,177.01,134.02z"/>
		<g>
			<path class="st2" d="M176.35,131.6c-1.92,0.61-3.85,1.23-5.77,1.84c-1.18,0.38-1.98,1.49-1.79,2.74c0.17,1.11,1.2,2.31,2.46,2.17
				c2.5-0.28,4.88-0.83,7.04-2.18c1.64-1.02,1.59-3.29,0-4.32c0,0,0,0,0,0c-2.71-1.76-5.22,2.57-2.52,4.32c0,0,0,0,0,0
				c0-1.44,0-2.88,0-4.32c-1.38,0.86-2.9,1.32-4.51,1.5c0.22,1.64,0.44,3.27,0.66,4.91c1.92-0.61,3.85-1.23,5.77-1.84
				C180.73,135.45,179.42,130.62,176.35,131.6z"/>
		</g>
	</g>
	<g>
		<path class="st2" d="M165.79,135.95c1.46,0.08,2.91,0.17,4.37,0.25l1.07-0.34C169.44,136.04,167.59,136.01,165.79,135.95z"/>
		<g>
			<path class="st2" d="M165.79,138.45c2.07,0.12,4.11,0.45,6.11-0.18c1.18-0.38,1.98-1.49,1.79-2.74c-0.17-1.13-1.2-2.28-2.46-2.17
				c-1.81,0.17-3.63,0.15-5.45,0.09C162.57,133.35,162.57,138.35,165.79,138.45c1.82,0.06,3.63,0.07,5.45-0.09
				c-0.22-1.64-0.44-3.27-0.66-4.91c-0.21,0.07-0.42,0.14-0.64,0.2c-0.11,0.03-0.22,0.09-0.33,0.11c-0.07,0.01,0.6,0.01-0.24-0.1
				c-1.17-0.15-2.4-0.14-3.58-0.2c-1.35-0.08-2.5,1.2-2.5,2.5C163.29,137.37,164.44,138.37,165.79,138.45z"/>
		</g>
	</g>
	<g>
		<path class="st2" d="M165.14,141.09c0.38-0.08,0.79,0.16,0.92,0.52c-2.9,0.14-5.8,0.27-8.7,0.41c-3.17,0.15-6.38,0.29-9.49-0.35
			c-1.54-0.32-3.04-0.83-4.46-1.52c-2.22-1.08-4.22-2.59-6.5-3.51"/>
		<g>
			<path class="st2" d="M164.47,143.5c-0.06-0.04-0.12-0.08-0.18-0.12c0.59-1.42,1.18-2.85,1.77-4.27
				c-4.76,0.22-9.66,0.79-14.42,0.5c-5.3-0.32-8.86-3.01-13.47-5.14c-2.9-1.34-5.45,2.97-2.52,4.32c4.57,2.1,8.32,4.88,13.43,5.58
				c5.55,0.76,11.4-0.01,16.98-0.27c2.25-0.11,3.19-2.62,1.77-4.27c-0.59-0.69-1.13-1.01-2.03-1.17
				C162.65,138.13,161.3,142.95,164.47,143.5L164.47,143.5z"/>
		</g>
	</g>
	<g>
		<path class="st2" d="M136.34,143.1c-1.47,0.02-2.93,0.28-4.39,0.44c-1.34,0.14-2.68,0.2-4.02,0.17c-1.02-0.02-2.1-0.08-3,0.39
			c0.72,0.76,1.83,1.02,2.87,0.97c1.04-0.04,2.05-0.35,3.07-0.56c1.77-0.36,3.6-0.42,5.4-0.18c0.93,0.12,1.88,0.32,2.78,0.09
			c0.57-0.15,1.11-0.54,1.4-1.03c0,0,0,0,0,0C139.08,143.27,137.72,143.08,136.34,143.1z"/>
		<g>
			<path class="st2" d="M136.34,140.6c-2.14,0.11-4.25,0.49-6.4,0.58c-1.95,0.08-3.8-0.12-5.68,0.49c-1.6,0.53-2.68,2.93-1.1,4.18
				c3.01,2.38,5.61,1.42,9.12,0.96c3.5-0.45,7.22,1.31,9.94-1.67c1.48-1.63,0.43-4.17-1.77-4.27
				C139.08,140.82,137.72,140.63,136.34,140.6c-3.22-0.07-3.22,4.93,0,5c1.38,0.03,2.73,0.22,4.11,0.28
				c-0.59-1.42-1.18-2.85-1.77-4.27c-0.92,1.01-4.29,0.02-5.66,0.1c-1.43,0.09-5.19,1.5-6.33,0.6c-0.37,1.39-0.74,2.79-1.1,4.18
				c1.69-0.55,3.6-0.24,5.36-0.37c1.8-0.13,3.58-0.44,5.39-0.53C139.55,145.44,139.57,140.44,136.34,140.6z"/>
		</g>
	</g>
	<g>
		<path class="st2" d="M125.15,137.76c0.02,0.14,0.05,0.28,0.06,0.42c-0.64-0.18-1.24-0.48-1.78-0.85
			c-0.46-0.07-0.91-0.11-1.38-0.08c-1.62,0.08-3.31,1-3.82,2.54c-0.14,0.41-0.19,0.85-0.39,1.23c-0.51,0.95-1.72,1.2-2.69,1.67
			c-0.27,0.13-0.58,0.41-0.44,0.69c0.05,0.1,0.14,0.16,0.23,0.22c1.03,0.64,2.34,0.68,3.53,0.42c1.19-0.26,2.29-0.79,3.42-1.23
			c1.91-0.74,3.91-1.23,5.95-1.47c-2.42-1.43-5.7,0.2-8.24-0.97c0.07-0.5,0.6-0.79,1.08-0.96c1.06-0.38,2.17-0.62,3.29-0.72
			c0.61-0.05,1.25-0.06,1.83,0.15c0.58,0.2,1.11,0.65,1.26,1.25c-0.24-0.47-0.06-0.96,0.2-1.46c-0.16-0.07-0.33-0.15-0.49-0.22
			C126.22,138.16,125.69,137.94,125.15,137.76z"/>
		<g>
			<path class="st2" d="M122.73,138.42c0.02,0.14,0.04,0.28,0.06,0.42c1.03-1.03,2.05-2.05,3.08-3.08c-1.7-0.59-2.6-1.19-4.52-0.94
				c-1.34,0.18-2.65,0.67-3.68,1.57c-0.49,0.43-0.98,0.94-1.31,1.51c-0.26,0.44-0.43,1.54-0.69,1.83c-0.78,0.86-2.33,0.76-3.05,1.98
				c-1.78,3.01,1.9,4.91,4.39,4.95c3.72,0.05,7.14-2.35,10.83-2.84c2.13-0.28,3.8-3.47,1.26-4.66c-2.95-1.38-5.94-0.19-8.84-1.23
				c0.5,1.22,1,2.45,1.49,3.67c0.15-0.31,2.95-0.66,3.14-0.28c1.05,2.14,4.96,1.21,4.66-1.26c0.04-0.26,0.07-0.53,0.11-0.79
				c0.36-0.92-0.22-2.41-1.15-2.82c-0.89-0.39-1.78-0.76-2.69-1.1c-3.02-1.12-4.32,3.71-1.33,4.82c0.51,0.17,1.01,0.37,1.5,0.6
				c-0.38-0.94-0.77-1.88-1.15-2.82c-0.32,0.84-0.39,1.24-0.29,2.12c1.55-0.42,3.11-0.84,4.66-1.26c-1.88-3.81-9.99-3.55-11.77,0.28
				c-0.72,1.54-0.12,3.09,1.49,3.67c2.43,0.87,5.41-0.32,7.65,0.72c0.42-1.55,0.84-3.11,1.26-4.66c-1.97,0.26-3.9,0.6-5.79,1.25
				c-1.08,0.37-4.63,2.43-5.57,1.53c0.21,0.81,0.43,1.62,0.64,2.43c-0.18,1.04,1.11,0.01,1.61-0.37c0.84-0.66,1.17-1.35,1.64-2.29
				c1.15-2.3,2.21-1.47,4.18-0.79c2,0.69,3.33-1.36,3.08-3.08c-0.02-0.14-0.04-0.28-0.06-0.42
				C127.09,133.92,122.27,135.27,122.73,138.42z"/>
		</g>
	</g>
	<g>
		<path class="st2" d="M134.82,134.35c-4.5,0.23-5.84-4.59-4.05-7.62l-8.98-9.82c-0.35,1.23-0.68,2.46-1.01,3.7
			c-0.39,1.49-0.78,3.01-0.67,4.54c0.08,1.12,0.43,2.21,0.57,3.33c0.23,1.86-0.13,3.8,0.39,5.6c0.38,1.31,1.24,2.45,2.36,3.23
			c0.58,0.09,1.15,0.24,1.72,0.44c-0.42-3.13-1.81-6.06-2.72-9.1c-0.95-3.17-1.3-6.82,0.47-9.61c0.28,0.86,0.13,1.8,0.04,2.7
			c-0.4,4.14,0.79,8.41,3.27,11.74c0.89,1.2,2.01,2.58,1.56,4c-0.12,0.37-0.34,0.74-0.53,1.11c1.33,0.59,2.66,1.18,4.09,1.38
			c1.28,0.18,2.68-0.03,3.73-0.74c1.65,0.54,3.42,0.85,4.75,1.94c0.39,0.32,0.74,0.73,0.83,1.23c0.06,0.34-0.02,0.67-0.19,0.97
			c1.88,0.15,3.78,0.14,5.67,0.11l-8.37-9.15C136.77,134.31,135.8,134.3,134.82,134.35z"/>
		<g>
			<path class="st2" d="M134.82,131.85c-2.23-0.79-2.86-2.08-1.89-3.86c0.49-1.06,0.42-2.15-0.39-3.03
				c-2.99-3.27-5.99-6.54-8.98-9.82c-1.29-1.41-3.69-0.65-4.18,1.1c-0.66,2.39-1.57,4.88-1.73,7.37c-0.18,2.76,0.47,5.63,0.65,8.38
				c0.26,4.09,2.16,7.13,6.18,8.16c1.96,0.5,3.41-1.22,3.08-3.08c-0.97-5.27-5.18-11.51-2.5-16.78c-1.55-0.42-3.11-0.84-4.66-1.26
				c0.38,3.24-0.23,6.31,0.68,9.54c0.32,1.14,0.83,2.45,1.35,3.51c0.57,1.15,3.29,3.89,2.64,5.25c-0.53,1.1-0.42,2.85,0.9,3.42
				c2.1,0.91,4.31,1.93,6.66,1.77c0.2-0.01,5.66-1.11,5.41,0.18c-0.32,1.65,0.7,3.07,2.41,3.16c1.9,0.1,3.76,0.13,5.67,0.11
				c2.23-0.02,3.21-2.69,1.77-4.27c-1.93-2.11-3.87-4.23-5.8-6.34C139.51,132.57,138.96,131.75,134.82,131.85
				c-3.21,0.08-3.22,5.08,0,5c2.64-0.06,0.33-1.06,2.11,0.3c1.07,0.82,1.99,2.18,2.9,3.17c1.51,1.65,3.01,3.29,4.52,4.94
				c0.59-1.42,1.18-2.85,1.77-4.27c-1.9,0.02-3.77-0.01-5.67-0.11c0.8,1.05,1.61,2.11,2.41,3.16c0.53-2.72-0.68-4.58-3.16-5.83
				c-3.93-1.99-7.43-0.14-11.2-1.77c0.3,1.14,0.6,2.28,0.9,3.42c1.49-3.13,0.68-4.81-1.03-7.64c-1.26-2.09-2.4-4.01-2.82-6.49
				c-0.38-2.27,0.11-4.45-0.15-6.69c-0.26-2.21-3.41-3.71-4.66-1.26c-3.65,7.17,0.68,13.49,1.99,20.63
				c1.03-1.03,2.05-2.05,3.08-3.08c-5.01-1.28-2.51-14.51-1.61-17.76c-1.39,0.37-2.79,0.74-4.18,1.1c2.99,3.27,5.99,6.54,8.98,9.82
				c-0.13-1.01-0.26-2.02-0.39-3.03c-2.51,5.41-0.01,11,6.2,11.38C138.04,137.05,138.02,132.05,134.82,131.85z"/>
		</g>
	</g>
	<g>
		<path class="st2" d="M130.43,120.91c3.11,0.98,6.46,0.29,9.72,0.15c3.56-0.16,7.15,0.35,10.69-0.1c1.45-0.18,2.88-0.53,4.31-0.88
			c1.31-0.33,2.63-0.67,3.88-1.19c1.96-0.81,3.75-2.04,5.2-3.59"/>
		<g>
			<path class="st2" d="M129.77,123.32c3.27,0.75,6.24,0.48,9.57,0.29c3.83-0.21,7.68,0.29,11.5-0.15
				c5.67-0.65,10.99-2.41,15.16-6.39c2.33-2.23-1.21-5.76-3.54-3.54c-3.97,3.8-9.81,5.03-15.18,5.12
				c-5.1,0.08-11.24,0.98-16.19-0.15C127.97,117.78,126.63,122.6,129.77,123.32L129.77,123.32z"/>
		</g>
	</g>
	<g>
		<path class="st2" d="M121.97,97.53c1.28,0.62,2.07,1.91,2.97,3.01c0.79,0.98,1.71,1.85,2.63,2.7c1.21,1.12,2.43,2.23,3.66,3.32
			c0.88,0.78,1.77,1.55,2.76,2.2c1.04,0.68,2.18,1.21,3.32,1.7c2.89,1.22,5.9,2.17,8.97,2.82c1.9,0.4,3.82,0.7,5.76,0.8
			c3.46,0.18,6.95-0.24,10.26-1.26"/>
		<g>
			<path class="st2" d="M120.7,99.69c3.17,2.26,5.75,6.06,8.75,8.64c2.48,2.14,5.01,3.68,8.06,4.89c8.23,3.27,16.85,4.37,25.44,2.02
				c3.1-0.85,1.78-5.67-1.33-4.82c-8.09,2.22-17.3,1.05-24.76-2.9c-5.61-2.97-8.67-8.6-13.64-12.15
				C120.6,93.5,118.1,97.83,120.7,99.69L120.7,99.69z"/>
		</g>
	</g>
	<g>
		<path class="st2" d="M161.75,114.98c-4.3,3.1-10.03,2.94-15.32,3.2c-4.24,0.21-8.46,0.76-12.71,0.83s-8.58-0.39-12.46-2.1
			c2.33,1.64,5.49,1.11,8.29,0.61c5.62-1,11.32-1.6,17.03-1.77c-3.9-0.79-7.7-2.03-11.48-3.27c-2.12-0.69-4.26-1.4-6.17-2.56
			c-1.96-1.2-3.62-2.85-5.12-4.59c-2.22-2.58-4.15-5.41-5.75-8.41c5.34,6.04,10.68,12.08,16.02,18.12
			c-1.74-0.06-3.48-0.26-5.18-0.61c-1.34-0.27-2.7-0.65-3.79-1.48c-0.89-0.68-1.54-1.62-2.17-2.54c-2.75-4.07-5.29-8.27-7.63-12.59
			c1.2,3.47,2.63,6.88,4.69,9.92c1.65,2.42,3.74,4.71,4.29,7.59c0.19,0.98,0.17,2.04-0.34,2.89s-1.62,1.39-2.54,1.01
			c-0.96-0.4-1.34-1.61-1.24-2.65s0.56-2.01,0.76-3.04c0.29-1.44,0.06-2.98-0.64-4.27c-0.94-1.74-2.6-2.94-4.03-4.3
			c-1.43-1.37-2.71-3.18-2.5-5.14c0.12-1.07,1.02-2.23,2.07-1.97c0.82,0.2,1.21,1.11,1.43,1.93c0.74,2.77,0.79,5.68,1.48,8.46
			c0.47,1.88,1.22,3.69,1.46,5.61c0.23,1.9-0.06,3.82-0.01,5.73c0.07,2.65,0.76,5.45-0.39,7.84"/>
		<g>
			<path class="st2" d="M160.48,112.82c-5.45,3.43-12.41,2.69-18.6,3.18c-6.83,0.54-13.45,1.04-19.96-1.5
				c-2.65-1.03-4.4,3.26-1.93,4.57c3.14,1.66,6.05,1.52,9.51,0.98c5.69-0.89,11.32-1.58,17.08-1.81c2.71-0.11,3.53-4.28,0.66-4.91
				c-5.09-1.12-10.9-2.44-15.58-4.79c-5.22-2.61-8.69-7.95-11.44-12.9c-1.31,1.01-2.62,2.02-3.93,3.03
				c5.34,6.04,10.68,12.08,16.02,18.12c0.59-1.42,1.18-2.85,1.77-4.27c-1.82-0.11-4.14-0.13-5.85-0.84
				c-2.48-1.04-3.8-3.52-5.15-5.63c-1.99-3.1-3.83-6.28-5.61-9.51c-1.34-2.43-5.54-0.78-4.57,1.93c1.04,2.92,2.17,5.82,3.71,8.51
				c0.41,0.72,5.49,9.06,6.32,8.73c1.57-0.61,0.17-6.26-0.22-7.12c-0.38-0.84-0.88-1.6-1.47-2.32c-0.37-0.44-5.79-5.85-4.74-6.02
				c-0.81-0.21-1.62-0.43-2.43-0.64c1.6,1.24,1.36,4.08,1.66,5.9c0.35,2.12,0.92,4.09,1.42,6.17c0.97,4.09,1.6,10.97,0.25,15.07
				c-1.01,3.06,3.82,4.38,4.82,1.33c0.78-2.36,0.68-4.43,0.57-6.9c-0.11-2.65,0.21-5.37-0.18-8c-0.41-2.77-1.48-5.38-1.93-8.15
				c-0.39-2.37-0.31-5.33-1.62-7.42c-1.49-2.37-4.23-3-6.34-0.99c-2.65,2.52-1.24,6.57,0.75,9c2.61,3.17,5.36,4.01,4.63,8.76
				c-0.25,1.61-0.68,2.93-0.03,4.51c1.06,2.6,3.97,3.77,6.46,2.2c3.14-1.98,2.54-6.22,1.22-9.09c-2.4-5.22-6.06-9.31-8.04-14.86
				c-1.52,0.64-3.05,1.28-4.57,1.93c2.65,4.82,5.33,10.34,9,14.46c3.01,3.37,7.67,3.74,11.92,4c2.31,0.14,3.1-2.76,1.77-4.27
				c-5.34-6.04-10.68-12.08-16.02-18.12c-1.92-2.18-5.27,0.61-3.93,3.03c2.88,5.17,6.61,10.75,11.76,13.9
				c5.26,3.22,12.29,4.78,18.25,6.08c0.22-1.64,0.44-3.27,0.66-4.91c-3.92,0.15-7.82,0.45-11.72,0.95
				c-3.67,0.48-8.88,2.39-12.35,0.55c-0.64,1.52-1.28,3.05-1.93,4.57c7.54,2.94,15.22,2.11,23.11,1.54
				c6.66-0.48,13.44-0.03,19.31-3.72C165.73,115.43,163.22,111.1,160.48,112.82L160.48,112.82z"/>
		</g>
	</g>
	<g>
		<path class="st2" d="M119.07,94.6c5.06,1.48,10.42,1.62,15.69,1.45c3.79-0.12,7.64-0.39,11.21-1.7c1.1-0.4,2.19-0.92,3.08-1.69
			c0.89-0.77,1.56-1.84,1.68-3.01"/>
		<g>
			<path class="st2" d="M118.4,97.01c7.34,1.93,15.35,2.12,22.85,1.02c4.95-0.72,10.48-2.33,11.88-7.71
				c0.81-3.12-4.01-4.45-4.82-1.33c-1.22,4.69-9.88,4.44-13.56,4.56c-5.09,0.17-10.08-0.07-15.03-1.37
				C116.62,91.37,115.29,96.19,118.4,97.01L118.4,97.01z"/>
		</g>
	</g>
	<g>
		<path class="st2" d="M116.29,74.9c0.88,2.13,2.58,3.82,4.46,5.15c1.87,1.34,3.94,2.37,5.89,3.59c0.76,0.47,1.5,0.98,2.32,1.35
			c0.84,0.39,1.73,0.64,2.62,0.88c5.99,1.66,12.09,3.33,18.3,3.21"/>
		<g>
			<path class="st2" d="M114.13,76.16c2.64,5.22,8.7,8.78,13.86,11.12c6.53,2.96,14.77,4.25,21.89,4.31c3.22,0.03,3.22-4.97,0-5
				c-6.11-0.05-12.52-1.3-18.3-3.31c-4.63-1.61-10.88-5.2-13.13-9.64C117,70.77,112.68,73.29,114.13,76.16L114.13,76.16z"/>
		</g>
	</g>
	<g>
		<path class="st2" d="M148.71,91.37c-2.53,1.05-5.35,1.11-8.1,1.16c-3.46,0.05-6.92,0.11-10.37,0.16
			c-2.28,0.04-4.57,0.07-6.82-0.32c-2.23-0.39-4.39-1.2-6.65-1.38"/>
		<g>
			<path class="st2" d="M148.04,88.96c-4.79,1.61-10.22,1.11-15.22,1.19c-5.38,0.08-10.11-0.82-15.39-1.57
				c-3.15-0.45-4.51,4.37-1.33,4.82c5.78,0.82,10.81,1.84,16.72,1.75c5.48-0.09,11.28,0.4,16.54-1.37
				C152.41,92.76,151.11,87.93,148.04,88.96L148.04,88.96z"/>
		</g>
	</g>
	<g>
		<path class="st2" d="M137.81,91.3c-0.89-0.26-1.78-0.51-2.66-0.77c-1.55-0.45-3.1-0.89-4.69-1.2c-2.29-0.44-4.63-0.58-6.94-0.91
			c-2.31-0.33-4.63-0.87-6.65-2.04s-3.73-3.04-4.27-5.3c-0.2-0.83-0.25-1.69-0.52-2.5c-0.37-1.07-1.15-2.01-1.27-3.14
			c0.8-0.42,1.83-0.06,2.47,0.57c0.65,0.63,1.01,1.49,1.41,2.3c0.97,1.97,2.27,3.85,4.11,5.06c0.7,0.46,1.47,0.82,2.23,1.17
			c1.86,0.86,3.71,1.72,5.57,2.58"/>
		<g>
			<path class="st2" d="M138.47,88.89c-4.9-1.41-9.61-2.13-14.63-2.95c-3.65-0.59-7.42-1.68-8.85-5.51
				c-0.64-1.73-1.3-3.86-1.79-5.64c-0.8,1.05-1.61,2.11-2.41,3.16c1.44-0.12,4.12,5.45,5.44,6.59c2.55,2.21,6.07,3.34,9.09,4.75
				c2.9,1.34,5.44-2.97,2.52-4.32c-4.14-1.91-8.33-3.16-10.7-7.33c-1.58-2.77-2.84-4.99-6.36-4.69c-1.59,0.13-2.88,1.49-2.41,3.16
				c1.45,5.2,2.85,10.18,8,12.82c2.78,1.42,5.82,1.83,8.87,2.22c4.13,0.52,7.9,1.41,11.89,2.56
				C140.24,94.6,141.56,89.78,138.47,88.89L138.47,88.89z"/>
		</g>
	</g>
	<g>
		<path class="st2" d="M112.9,54.99c0.52,1.37,1.8,2.29,3.02,3.12c3.17,2.18,6.39,4.38,9.99,5.73c1.02,0.38,2.07,0.69,3.12,1
			c1.12,0.33,2.26,0.67,3.43,0.66c1.16,0,2.31-0.34,3.47-0.33"/>
		<g>
			<path class="st2" d="M110.74,56.25c2.02,3.68,6.64,6.09,10.18,8.01c4.83,2.62,9.55,3.92,15.01,3.42c3.18-0.29,3.21-5.29,0-5
				c-4.6,0.42-8.36-0.52-12.49-2.74c-2.63-1.41-6.91-3.54-8.39-6.22C113.51,50.91,109.19,53.43,110.74,56.25L110.74,56.25z"/>
		</g>
	</g>
	<g>
		<path class="st2" d="M135.69,66.62c0.24,1.11-0.35,2.27-1.21,3.02c-0.86,0.74-1.96,1.14-3.04,1.5c-6.67,2.18-14,3.1-20.68,0.94"/>
		<g>
			<path class="st2" d="M133.19,66.62c-0.04,2.81-8.87,3.75-10.67,3.95c-3.79,0.42-7.41,0.13-11.09-0.91
				c-3.1-0.88-4.42,3.94-1.33,4.82c6.16,1.75,12.42,1.56,18.62,0.04c4.42-1.09,9.39-2.61,9.47-7.9
				C138.23,63.4,133.23,63.4,133.19,66.62L133.19,66.62z"/>
		</g>
	</g>
	<g>
		<path class="st2" d="M133.66,67.15c0.68-0.3,1.43-0.46,2.18-0.47c-0.03-0.26-0.07-0.53-0.1-0.79c-0.08,0.81-0.68,1.48-1.4,1.86
			c-0.72,0.38-1.54,0.5-2.34,0.59c-3.06,0.36-6.25,0.4-9.11-0.72c-2.91-1.14-5.23-3.39-7.3-5.73c-2.07-2.34-3.99-4.85-6.44-6.78
			c0.62,2.2,1.25,4.43,1.26,6.72c0.01,1.39-0.21,2.78-0.04,4.16c0.16,1.26,0.63,2.46,1.1,3.64c0.06,0.16,0.13,0.32,0.26,0.43
			c0.14,0.13,0.35,0.17,0.54,0.19c0.83,0.11,1.67-0.01,2.5-0.1c2.57-0.25,5.18-0.14,7.72,0.32c-2.62-1.61-5.23-3.22-7.85-4.84
			c-0.5-0.31-1-0.62-1.38-1.05c-0.66-0.74-0.9-1.75-1.12-2.72c0.03,2.24,0.22,4.48,0.56,6.7"/>
		<g>
			<path class="st2" d="M134.33,69.56c0.5-0.13,1.01-0.25,1.51-0.38c1.21-0.14,2.69-1.04,2.5-2.5c-0.03-0.26-0.07-0.53-0.1-0.79
				c-0.37-2.85-3.79-3.33-4.91-0.66c-0.54,1.28-4.81,0.9-5.95,0.81c-3.16-0.25-5.56-1.53-7.85-3.65c-3.07-2.85-5.41-6.33-8.61-9.06
				c-1.82-1.55-4.88-0.12-4.18,2.43c0.9,3.25,0.92,6.22,1.1,9.52c0.09,1.75,0.43,4.14,1.48,5.59c2.52,3.5,8.83,1.46,12.51,2
				c2.67,0.39,4.51-2.98,1.93-4.57c-2.72-1.67-8.31-3.85-9.2-7.11c-0.73-2.68-5-2.2-4.91,0.66c0.08,2.48,0.31,4.91,0.65,7.36
				c0.43,3.17,5.25,1.82,4.82-1.33c-0.27-2.02-0.4-4-0.47-6.03c-1.64,0.22-3.27,0.44-4.91,0.66c1.47,5.38,7.07,7.37,11.5,10.1
				c0.64-1.52,1.28-3.05,1.93-4.57c-2.16-0.32-4.26-0.58-6.45-0.53c-2.71,0.06-2.52,0.91-3.67-0.97c-0.84-1.38-0.07-4.84-0.23-6.44
				c-0.19-1.94-0.72-3.81-1.24-5.68c-1.39,0.81-2.79,1.62-4.18,2.43c5.4,4.6,8.99,11.7,16.3,13.63c4.9,1.29,12.24,1.36,14.47-3.94
				c-1.64-0.22-3.27-0.44-4.91-0.66c0.03,0.26,0.07,0.53,0.1,0.79c0.83-0.83,1.67-1.67,2.5-2.5c-1.09,0.13-1.8,0.22-2.84,0.56
				C129.95,65.72,131.25,70.55,134.33,69.56L134.33,69.56z"/>
		</g>
	</g>
	<g>
		<path class="st2" d="M132.34,69.48c-0.16,0.01-0.28,0.19-0.23,0.34c1.11-0.16,2.09-0.75,3.05-1.33c0.46-0.28,0.93-0.57,1.23-1.02
			c0.44-0.64,0.41-1.56-0.05-2.19c0.25,0.35,0.47,0.74,0.54,1.16c0.14,0.86-0.39,1.73-1.1,2.24c-0.71,0.51-1.58,0.75-2.42,0.97
			c0.26,0.01,0.53,0.02,0.79,0.03c0.07,0,0.15,0.01,0.21,0.06c0.05,0.05,0.05,0.16-0.02,0.18c0.09,0,0.18,0,0.27-0.02
			c0.62-0.14,0.99-0.76,1.28-1.33c0.28-0.56,0.54-1.26,0.19-1.79"/>
		<g>
			<path class="st2" d="M131.08,67.32c-0.7,0.43-1.23,1.01-1.38,1.83c-0.35,1.96,1.11,3.43,3.08,3.08c1.71-0.31,3.78-1.35,5.03-2.59
				c1.51-1.48,1.84-3.81,0.69-5.61c-1.44,0.84-2.88,1.68-4.32,2.52c0.24,0.36,0.19,0.33,0.22,0.09c0.03-0.18,0.23-0.12-0.16,0.1
				c-0.39,0.22-1.05,0.38-1.55,0.51c-2.77,0.74-2.13,4.82,0.66,4.91c0.1,0,0.8,0.12,0.33-0.01c-0.58-0.58-1.16-1.16-1.75-1.75
				c0.01,0.03,0.02,0.07,0.04,0.1c0.08-0.64,0.17-1.28,0.25-1.93c-0.02,0.03-0.04,0.05-0.06,0.08c-1.06,1.48,0.35,3.93,2.16,3.76
				c1.66-0.15,2.87-0.99,3.64-2.47c0.77-1.47,1-2.9,0.26-4.43c-0.59-1.21-2.32-1.54-3.42-0.9c-1.24,0.72-1.49,2.2-0.9,3.42
				c-0.02-1-0.09-1.21-0.22-0.65c0.05-0.13,0.04-0.12-0.04,0.03c-0.35,0.68-0.21,0.07,0.68-0.01c0.72,1.25,1.44,2.51,2.16,3.76
				c0.69-0.96,0.44-2.4-0.37-3.21c-0.75-0.75-1.77-0.78-2.77-0.82c0.22,1.64,0.44,3.27,0.66,4.91c1.76-0.47,3.49-1.17,4.55-2.74
				c1.12-1.65,1.03-3.68-0.08-5.31c-0.76-1.12-2.2-1.61-3.42-0.9c-1.13,0.66-1.63,2.28-0.9,3.42c0.17,0.27,0.03,0.15,0.07,0.1
				c-0.05,0.08,0.12-0.61,0.09-0.52c0.15-0.46,0.01-0.07-0.02-0.06c0.1-0.05-0.4,0.24-0.42,0.26c-0.79,0.49-1.53,0.91-2.45,1.08
				c1.03,1.03,2.05,2.05,3.08,3.08c0.01-0.07,0.03-0.15,0.04-0.22c-0.38,0.5-0.77,1-1.15,1.49c0.06-0.04,0.13-0.08,0.19-0.12
				C136.35,69.96,133.84,65.63,131.08,67.32L131.08,67.32z"/>
		</g>
	</g>
	<g>
		<path class="st2" d="M123.82,45.44c-2.33-1.03-4.66-2.06-6.99-3.1c-1.27-0.56-2.55-1.13-3.66-1.98c-0.78-0.6-1.46-1.32-2.12-2.05
			c-1.73-1.9-3.39-3.86-4.98-5.88c-0.61-0.78-1.23-1.59-1.54-2.53c-0.39-1.18-0.3-2.51-0.91-3.6"/>
		<g>
			<path class="st2" d="M125.08,43.28c-4.26-1.89-8.96-3.34-12.26-6.73c-1.43-1.46-2.73-3.08-4.02-4.67
				c-1.66-2.06-1.91-3.84-2.77-6.23c-1.08-3-5.92-1.71-4.82,1.33c0.75,2.07,0.86,4.05,2.1,5.93c1.42,2.15,3.24,4.11,4.94,6.03
				c3.99,4.49,8.92,6.27,14.31,8.66C125.48,48.89,128.02,44.58,125.08,43.28L125.08,43.28z"/>
		</g>
	</g>
	<g>
		<path class="st2" d="M123.78,46.69c0.12,0.38-0.33,0.68-0.7,0.83c-2.28,0.93-4.59,1.84-7.01,2.27c-2.42,0.43-5,0.36-7.25-0.62"/>
		<g>
			<path class="st2" d="M121.37,46.02c-0.06,0.17-0.11,0.34-0.17,0.5c0.38-0.5,0.77-1,1.15-1.49c-3.64,2.25-8.86,3.22-12.87,1.74
				c-3.02-1.12-4.32,3.71-1.33,4.82c3.47,1.29,7.1,1.11,10.63,0.14c2.62-0.72,6.46-1.52,7.41-4.37
				C127.21,44.29,122.38,42.98,121.37,46.02L121.37,46.02z"/>
		</g>
	</g>
	<g>
		<path class="st2" d="M110.75,56.55c0.35-0.24,0.51-0.69,0.52-1.12c0.01-0.43-0.09-0.85-0.15-1.27c-0.06-0.41-0.07-0.82-0.08-1.23
			c-0.01-0.18-0.01-0.36,0.06-0.52c0.07-0.16,0.22-0.31,0.4-0.29c0.3,0.02,0.4,0.39,0.47,0.68c0.24,1.04,0.92,1.91,1.58,2.74
			c0.31,0.39,0.62,0.78,0.93,1.17"/>
		<g>
			<path class="st2" d="M112.52,58.32c0.85-0.76,1.26-1.92,1.25-3.04c-0.01-0.47-0.14-1.05-0.18-1.44c0-0.05-0.02-0.32-0.03-0.44
				c-0.01-0.1-0.01-0.21-0.01-0.31c0-0.33-0.04-0.21-0.13,0.37c-0.5,0.38-1,0.77-1.49,1.15c0.08-0.03,0.16-0.05,0.24-0.08
				c-0.44,0-0.89,0-1.33,0c0.06,0.02,0.13,0.05,0.19,0.07c-0.37-0.21-0.74-0.43-1.1-0.64c0.04,0.06,0.09,0.11,0.13,0.17
				c-0.21-0.37-0.43-0.74-0.64-1.1c0.4,0.98,0.66,1.96,1.27,2.85c0.63,0.9,1.34,1.74,2.02,2.6c0.84,1.06,2.66,0.88,3.54,0
				c1.05-1.05,0.84-2.47,0-3.54c-0.66-0.83-1.25-1.42-1.7-2.33c-0.14-0.27-0.15-0.49-0.31-0.92c-0.34-0.92-1-1.69-1.97-1.95
				c-1.95-0.53-3.61,1.01-3.72,2.92c-0.03,0.5,0.03,1.01,0.08,1.5c0-0.03,0.11,0.9,0.14,0.95c0,0.11,0.01,0.21,0.01,0.32
				c0.04-0.23,0.11-0.45,0.21-0.65c-1.01,0.9-0.92,2.62,0,3.54C109.98,59.32,111.51,59.22,112.52,58.32L112.52,58.32z"/>
		</g>
	</g>
	<g>
		<path class="st2" d="M105.87,31.77c-1.68-1.9-3.39-3.85-4.39-6.18c-0.23-0.54-0.43-1.1-0.62-1.65c-0.25-0.72-0.5-1.43-0.74-2.15
			c0.55,0.62,1.1,1.25,1.65,1.87c0.23,0.27,0.48,0.54,0.57,0.89c0.1,0.36,0.03,0.79,0.28,1.07"/>
		<g>
			<path class="st2" d="M107.64,30c-1.16-1.32-2.32-2.62-3.21-4.14c-0.87-1.48-1.34-3.12-1.9-4.73c-1.39,0.81-2.79,1.62-4.18,2.43
				c0.82,0.93,1.42,1.6,1.85,2.72c1.14,2.98,5.97,1.68,4.82-1.33c-0.37-0.98-0.5-1.79-1.15-2.64c-0.61-0.8-1.32-1.53-1.99-2.28
				c-1.63-1.85-4.99,0.1-4.18,2.43c0.7,2.01,1.31,4.08,2.4,5.93c1.1,1.87,2.56,3.53,3.99,5.15C106.24,35.96,109.76,32.41,107.64,30
				L107.64,30z"/>
		</g>
	</g>
	<g>
		<path class="st2" d="M94.95,31.9c1.39-1.01,2.4-2.51,2.83-4.17c0.11-0.41,0.18-0.84,0.32-1.24c0.21-0.59,0.58-1.11,0.86-1.66
			c0.28-0.56,0.48-1.2,0.31-1.81"/>
		<g>
			<path class="st2" d="M96.71,33.66c1.5-1.18,2.59-2.75,3.24-4.54c0.35-0.96,0.55-1.85,1.02-2.76c0.55-1.09,0.91-2.1,0.8-3.34
				c-0.28-3.18-5.28-3.21-5,0c0.07,0.84-0.51,1.46-0.83,2.21c-0.29,0.68-0.42,1.38-0.65,2.08c-0.4,1.2-1.13,2.05-2.12,2.82
				c-1.07,0.84-0.86,2.65,0,3.54C94.22,34.72,95.66,34.49,96.71,33.66L96.71,33.66z"/>
		</g>
	</g>
	<g>
		<path class="st2" d="M69.03,45.74c4.35-1.75,8.7-3.52,13.03-5.32c0.94-0.39,1.88-0.78,2.79-1.26c1.22-0.64,2.36-1.41,3.5-2.18
			c1.57-1.06,3.14-2.14,4.46-3.49s2.38-3.03,2.69-4.9"/>
		<g>
			<path class="st2" d="M69.7,48.16c9.36-3.77,25.21-7.66,28.22-18.9c0.83-3.11-3.99-4.44-4.82-1.33
				c-2.39,8.94-17.27,12.41-24.73,15.41C65.42,44.52,66.71,49.36,69.7,48.16L69.7,48.16z"/>
		</g>
	</g>
	<g>
		<path class="st2" d="M96.53,29.53c-0.07,0.07-0.14,0.14-0.21,0.22c0.35,0,0.56-0.37,0.7-0.69c0.95-2.19,1.68-4.47,2.17-6.8
			c-0.08,1.33-0.96,2.45-1.54,3.65c-0.36,0.76-0.61,1.56-0.99,2.31c-0.38,0.75-0.9,1.46-1.65,1.83c0.48-1.79,1.59-3.34,2.5-4.96
			c0.6-1.06,1.13-2.17,1.58-3.31c0.03-0.07,0.08-0.16,0.16-0.15c0.08,0.01,0.01,0.17-0.03,0.1"/>
		<g>
			<path class="st2" d="M94.76,27.76c-0.07,0.07-0.14,0.14-0.21,0.22c-1.66,1.69,0,5.05,2.43,4.18c1.84-0.65,2.35-2.1,3.01-3.81
				c0.68-1.76,1.2-3.57,1.6-5.42c-1.61-0.44-3.21-0.89-4.82-1.33c-0.16,1.17-0.79,2.02-1.28,3.06c-0.49,1.02-0.74,2.63-1.74,3.25
				c1.22,0.94,2.45,1.88,3.67,2.82c0.43-1.41,1.24-2.61,1.97-3.88c0.4-0.69,0.78-1.39,1.13-2.11c0.18-0.37,0.34-0.74,0.5-1.12
				c0.35-0.72,0.35-0.79-0.01-0.21c-1.39-0.37-2.79-0.74-4.18-1.1c0.01,0.03,0.02,0.05,0.03,0.08c0.58-1.03,1.16-2.05,1.75-3.08
				c-0.02,0.01-0.04,0.01-0.06,0.02c-3.05,0.98-1.75,5.81,1.33,4.82c0.02-0.01,0.04-0.01,0.06-0.02c1.23-0.39,2.2-1.75,1.75-3.08
				c-0.01-0.03-0.02-0.05-0.03-0.08c-0.61-1.79-2.75-2.44-4.18-1.1c-0.6,0.57-0.81,1.32-1.15,2.06c-0.41,0.9-0.89,1.77-1.4,2.63
				c-0.92,1.56-1.8,3.09-2.33,4.83c-0.63,2.07,1.83,3.96,3.67,2.82c1.76-1.09,2.51-2.64,3.3-4.48c0.69-1.6,1.79-3.05,2.03-4.81
				c0.18-1.35-0.32-2.67-1.75-3.08c-1.25-0.36-2.79,0.43-3.08,1.75c-0.26,1.16-0.55,2.32-0.91,3.45c-0.18,0.57-0.38,1.13-0.59,1.69
				c-0.07,0.19-0.14,0.37-0.21,0.56c-0.41,0.71-0.21,0.72,0.59,0.04c0.81,1.39,1.62,2.79,2.43,4.18c0.07-0.07,0.14-0.14,0.21-0.22
				C100.56,29,97.02,25.46,94.76,27.76L94.76,27.76z"/>
		</g>
	</g>
	<g>
		<path class="st2" d="M100.09,23.33c0.02-0.51-0.04-1.03-0.2-1.52c-0.03-0.1-0.07-0.21-0.15-0.28s-0.22-0.08-0.29,0
			c0.44,0.55,0.82,1.15,1.13,1.79"/>
		<g>
			<path class="st2" d="M102.59,23.33c0.02-0.87-0.11-1.78-0.45-2.58c-0.65-1.55-2.46-2.23-3.96-1.38
				c-0.68,0.39-1.09,1.07-1.19,1.83c-0.11,0.85,0.18,1.45,0.69,2.1c-0.41-0.52-0.04-0.03,0.03,0.06c0.08,0.12,0.16,0.24,0.24,0.37
				c0.17,0.28,0.32,0.56,0.47,0.85c0.58,1.17,2.34,1.59,3.42,0.9c1.2-0.78,1.52-2.16,0.9-3.42c-0.41-0.84-0.94-1.56-1.52-2.29
				c-0.17,1.31-0.34,2.62-0.51,3.93c0.03-0.02,0.06-0.03,0.09-0.05c-0.42,0.11-0.84,0.23-1.26,0.34c0.04,0,0.07,0,0.11,0
				c-0.42-0.11-0.84-0.23-1.26-0.34c-0.3-0.39-0.6-0.78-0.9-1.16c0.02,0.05,0.03,0.11,0.05,0.16c0.01,0.09,0.08,0.58,0.06,0.17
				c-0.02-0.39,0,0.01,0,0.09c0.01,0.14,0.01,0.28,0,0.43c-0.03,1.31,1.17,2.56,2.5,2.5C101.48,25.77,102.56,24.73,102.59,23.33
				L102.59,23.33z"/>
		</g>
	</g>
	<g>
		<path class="st2" d="M70.43,47.31c4.74,2.62,10.34,3.27,15.75,2.95"/>
		<g>
			<path class="st2" d="M69.17,49.46c5.31,2.76,11.08,3.57,17.01,3.29c3.2-0.15,3.22-5.15,0-5c-5.03,0.24-9.96-0.25-14.49-2.61
				C68.84,43.66,66.31,47.98,69.17,49.46L69.17,49.46z"/>
		</g>
	</g>
	<g>
		<path class="st2" d="M51.71,70.47c4.55-2.13,9.73-2.7,14.19-4.99c1.49-0.77,2.89-1.72,4.38-2.48c2.17-1.11,4.53-1.8,6.68-2.95
			c3.25-1.74,5.95-4.51,7.59-7.81"/>
		<g>
			<path class="st2" d="M52.97,72.62c3.41-1.46,7.05-2.17,10.53-3.43c3.33-1.21,6.23-3.17,9.42-4.65
				c5.91-2.73,10.52-5.15,13.79-11.06c1.56-2.82-2.76-5.34-4.32-2.52c-3.55,6.41-9.62,7.74-15.57,11.11
				c-5.16,2.92-10.96,3.92-16.38,6.24C47.5,69.57,50.04,73.87,52.97,72.62L52.97,72.62z"/>
		</g>
	</g>
	<g>
		<path class="st2" d="M51.21,72.7c-0.11,0.06,0.01-0.16,0.13-0.12c1.32,0.4,2.47,1.23,3.75,1.75c1.07,0.43,2.21,0.64,3.35,0.82
			c6.04,0.91,12.24,0.8,18.24-0.35"/>
		<g>
			<path class="st2" d="M53.62,72.04c-0.01-0.02-0.01-0.04-0.02-0.05c-0.38,0.94-0.77,1.88-1.15,2.82
				c-1.39,0.64,3.44,2.39,3.62,2.44c2.22,0.55,4.65,0.74,6.92,0.88c4.83,0.32,9.59-0.1,14.35-0.92c3.16-0.55,1.82-5.37-1.33-4.82
				c-5.55,0.96-11.61,1.38-17.19,0.27c-2.58-0.51-6.27-3.38-8.9-2.16c-0.91,0.42-1.52,1.88-1.15,2.82c0.01,0.02,0.01,0.04,0.02,0.05
				C49.97,76.33,54.8,75.04,53.62,72.04L53.62,72.04z"/>
		</g>
	</g>
	<g>
		<path class="st2" d="M56.41,73.64c-0.9-0.25-1.86-0.11-2.8-0.12c-0.15,0-0.3-0.01-0.43-0.07c-0.11-0.05-0.19-0.14-0.27-0.23
			c-0.44-0.47-0.88-0.93-1.31-1.4c-0.07-0.07-0.14-0.14-0.23-0.17c-0.06-0.02-0.13-0.02-0.19-0.04c-0.26-0.06-0.44-0.39-0.3-0.62
			c0.14-0.23,0.56-0.2,0.63,0.05c0.08,0.29-0.24,0.51-0.37,0.78c-0.19,0.38,0.04,0.85,0.38,1.09c0.34,0.24,0.78,0.31,1.19,0.38
			c1.23,0.22,2.44,0.53,3.62,0.94"/>
		<g>
			<path class="st2" d="M57.07,71.23c-0.67-0.15-1.36-0.24-2.05-0.24c-0.27,0-0.54,0.01-0.81,0.02c-0.18,0-0.88-0.12-0.38,0.03
				c0.37,0.21,0.74,0.43,1.1,0.64c-0.48-0.41-0.88-0.9-1.32-1.35c-0.24-0.24-0.48-0.48-0.77-0.67c-0.1-0.07-1.11-0.62-0.64-0.34
				c0.3,0.3,0.6,0.6,0.9,0.9c-0.04-0.08-0.08-0.16-0.12-0.23c0.08,0.64,0.17,1.28,0.25,1.93c0.01-0.08,0.03-0.17,0.04-0.25
				c-0.21,0.37-0.43,0.74-0.64,1.1c0.05-0.04,0.1-0.08,0.15-0.13c-0.37,0.21-0.74,0.43-1.1,0.64c0.06-0.01,0.13-0.02,0.19-0.03
				c-0.44,0-0.89,0-1.33,0c0.06,0.02,0.12,0.04,0.18,0.06c-0.5-0.38-1-0.77-1.49-1.15c0.04,0.05,0.07,0.1,0.11,0.15
				c-0.11-0.42-0.23-0.84-0.34-1.26c-0.01,0.09-0.02,0.18-0.03,0.27c0.11-0.42,0.23-0.84,0.34-1.26c-1.19,1.81-0.8,4.12,1.21,5.17
				c0.74,0.39,1.53,0.47,2.33,0.64c0.95,0.2,1.88,0.47,2.8,0.78c1.28,0.43,2.73-0.5,3.08-1.75c0.38-1.37-0.46-2.64-1.75-3.08
				c-0.79-0.27-1.58-0.51-2.4-0.69c-0.41-0.09-0.81-0.17-1.22-0.25c-0.1-0.02-0.21-0.04-0.31-0.06c-0.61-0.2-0.47,0.01,0.42,0.63
				c0,0.44,0,0.89,0,1.33c-0.02,0.1,0.46-1.01,0.41-0.81c0.13-0.46,0.16-1.14,0.03-1.6c-0.25-0.92-1.04-1.67-1.95-1.93
				c-2.06-0.58-4.13,1.34-3.55,3.45c0.27,0.98,0.94,1.54,1.79,1.99c0.44,0.18,0.4,0.17-0.12-0.03c0.09,0.09,0.18,0.19,0.26,0.28
				c0.17,0.29,0.53,0.61,0.79,0.84c0.72,0.67,1.5,0.99,2.47,1.04c0.71,0.03,1.44-0.12,2.14,0.03c1.32,0.29,2.7-0.4,3.08-1.75
				C59.16,73.05,58.39,71.52,57.07,71.23L57.07,71.23z"/>
		</g>
	</g>
	<g>
		<path class="st2" d="M45.26,87c2.15-0.26,4.32-0.15,6.47-0.4c1.43-0.17,2.83-0.49,4.23-0.82c2.09-0.49,4.19-0.97,6.28-1.46
			c3.32-0.77,6.66-1.54,9.81-2.84c2.49-1.02,5-2.52,6.09-4.99"/>
		<g>
			<path class="st2" d="M45.26,89.5c6.95-0.59,13.33-1.68,20.13-3.35c5.61-1.38,11.86-3.03,14.91-8.38c1.59-2.8-2.72-5.32-4.32-2.52
				c-2.76,4.86-10.23,5.7-15.19,6.86c-5.25,1.22-10.16,1.95-15.53,2.4C42.08,84.77,42.05,89.77,45.26,89.5L45.26,89.5z"/>
		</g>
	</g>
	<g>
		<path class="st2" d="M44.06,89.58c0.76,0.96,1.79,1.67,2.85,2.29c4.39,2.56,9.47,3.65,14.48,4.48c1.29,0.21,2.58,0.41,3.89,0.43
			c2.52,0.03,4.99-0.63,7.42-1.28"/>
		<g>
			<path class="st2" d="M42.29,91.35c7.27,7.6,21.48,9.06,31.07,6.56c3.11-0.81,1.79-5.64-1.33-4.82
				c-7.62,1.99-20.31,0.9-26.21-5.27C43.6,85.48,40.07,89.02,42.29,91.35L42.29,91.35z"/>
		</g>
	</g>
	<g>
		<path class="st2" d="M44.87,89.65c0.13-0.24,0.25-0.48,0.38-0.72c-0.22,0.21-0.45,0.42-0.67,0.63c-0.06-0.72,0.41-1.36,0.85-1.93
			c-0.61,0.47-1.1,1.1-1.42,1.8c0.34-0.56,0.67-1.12,1.01-1.68c-0.04,0.04-0.1,0.07-0.15,0.06c-0.05-0.02-0.05-0.12,0-0.11
			c-0.27,0.41-0.55,0.82-0.82,1.24c-0.01-0.55,0.34-1.08,0.84-1.31c-0.32,0.14-0.63,0.31-0.9,0.53c0.26-0.21,0.52-0.42,0.78-0.63
			c-0.1-0.15-0.35-0.1-0.46,0.04c-0.11,0.14-0.11,0.34-0.11,0.52c0,0.37,0,0.75,0.14,1.09c0.09-0.64,0.19-1.28,0.28-1.92
			c0.01-0.05,0.01-0.1-0.03-0.13s-0.1,0.03-0.06,0.06"/>
		<g>
			<path class="st2" d="M47.03,90.92c0.13-0.24,0.25-0.48,0.38-0.72c0.59-1.11,0.36-2.45-0.64-3.23c-1-0.77-2.37-0.67-3.28,0.2
				c-0.22,0.21-0.45,0.42-0.67,0.63c1.42,0.59,2.85,1.18,4.27,1.77c-0.01-0.51-0.19,0.5-0.01,0.02c-0.09,0.24-0.19,0.39-0.01,0.07
				c0.15-0.27,0.34-0.52,0.53-0.76c0.35-0.46,0.42-1.4,0.25-1.93c-0.17-0.53-0.46-0.96-0.9-1.3c-1.05-0.81-2.29-0.59-3.28,0.2
				c-0.76,0.61-1.4,1.43-1.81,2.31c-0.29,0.62-0.44,1.24-0.25,1.93c0.16,0.58,0.61,1.21,1.15,1.49c1.21,0.64,2.7,0.3,3.42-0.9
				c0.34-0.56,0.67-1.12,1.01-1.68c0.55-0.91,0.41-2.29-0.39-3.03c-0.79-0.72-2.09-1.02-3.03-0.39c-0.02,0.02-0.05,0.03-0.07,0.05
				c0.42-0.11,0.84-0.23,1.26-0.34c-0.03,0-0.05,0.01-0.08,0.01c0.72,0.41,1.44,0.83,2.16,1.24c-0.01-0.02-0.03-0.04-0.04-0.06
				c-0.13,1.01-0.26,2.02-0.39,3.03c0.01-0.02,0.03-0.03,0.04-0.05c-1.31-1.01-2.62-2.02-3.93-3.03c-0.27,0.41-0.55,0.82-0.82,1.24
				c1.55,0.42,3.11,0.84,4.66,1.26c-0.08,0.44-0.09,0.52-0.03,0.26c-0.18,0.38-0.21,0.45-0.08,0.23c-0.26,0.31-0.31,0.38-0.12,0.2
				c-0.33,0.24-0.39,0.3-0.16,0.17c1.17-0.59,1.6-2.33,0.9-3.42c-0.8-1.24-2.14-1.47-3.42-0.9c-0.32,0.14-0.62,0.32-0.9,0.53
				c1.01,1.31,2.02,2.62,3.03,3.93c0.26-0.21,0.52-0.42,0.78-0.63c1.01-0.81,0.94-2.72,0-3.54c-0.73-0.63-1.43-0.89-2.38-0.77
				c-0.89,0.12-1.64,0.65-2.07,1.43c-0.53,0.95-0.51,2.4-0.17,3.42c0.34,1.01,1.27,1.89,2.41,1.84c0.44-0.02,0.87-0.13,1.26-0.34
				c0.48-0.25,1.07-0.94,1.15-1.49c0.06-0.38,0.11-0.77,0.17-1.15c0.07-0.49,0.21-1.01,0.21-1.5c-0.02-1.08-0.76-2.22-1.87-2.47
				c-0.93-0.21-1.79,0.02-2.5,0.67c-0.66,0.59-0.86,1.6-0.64,2.43c0,0.01,0.01,0.02,0.01,0.03c0.33,1.26,1.8,2.16,3.08,1.75
				c1.3-0.42,2.1-1.72,1.75-3.08c0-0.01-0.01-0.02-0.01-0.03c-0.21,0.81-0.43,1.62-0.64,2.43c0.01-0.01,0.02-0.02,0.03-0.03
				c-0.59,0.24-1.18,0.49-1.77,0.73c0.01,0,0.03,0,0.04,0c-0.72-0.41-1.44-0.83-2.16-1.24c0.01,0.02,0.02,0.04,0.03,0.06
				c-0.11-0.42-0.23-0.84-0.34-1.26c0.02-0.13,0.04-0.27,0.06-0.4c-0.01,0.1-0.03,0.19-0.04,0.29c-0.02,0.16-0.05,0.32-0.07,0.48
				c-0.05,0.32-0.09,0.64-0.14,0.96c1.61,0,3.21,0,4.82,0c-0.04-0.1-0.07-0.2-0.09-0.3c0.05,0.41,0.06,0.47,0.04,0.19
				c0-0.11,0-0.21,0-0.32c0.04-0.77-0.28-0.26-0.95,1.52c-0.42,0.11-0.84,0.23-1.26,0.34c-0.15-0.03-0.31-0.05-0.46-0.08
				c-0.37-0.21-0.74-0.43-1.1-0.64c0.03,0.02,0.05,0.04,0.08,0.07c0-1.18,0-2.36,0-3.54c-0.26,0.21-0.52,0.42-0.78,0.63
				c-0.45,0.36-0.76,1.21-0.73,1.77c0.03,0.56,0.19,1.07,0.54,1.51c0.69,0.9,2.22,1.39,3.23,0.64c0.29-0.21,0.58-0.38,0.9-0.53
				c-0.84-1.44-1.68-2.88-2.52-4.32c-1.3,0.66-2.02,2.05-2.08,3.47c-0.04,1.05,0.8,2.18,1.84,2.41c1.13,0.26,2.18-0.19,2.82-1.15
				c0.27-0.41,0.55-0.82,0.82-1.24c0.69-1.04,0.29-2.51-0.64-3.23c-0.92-0.71-2.47-0.75-3.28,0.2c-0.01,0.02-0.03,0.03-0.04,0.05
				c-0.71,0.83-1.01,2.04-0.39,3.03c0.01,0.02,0.03,0.04,0.04,0.06c0.43,0.69,1.29,1.34,2.16,1.24c0.53-0.06,0.95-0.09,1.41-0.4
				c-1.14-1.14-2.28-2.28-3.42-3.42c-0.34,0.56-0.67,1.12-1.01,1.68c1.44,0.84,2.88,1.68,4.32,2.52c0.07-0.15,0.14-0.3,0.23-0.44
				c0.06-0.1,0.11-0.19,0.18-0.28c0.13-0.18,0.13-0.18,0-0.01c-0.13,0.16-0.12,0.16,0.02,0c0.06-0.06,0.11-0.12,0.17-0.18
				c0.14-0.14,0.28-0.26,0.44-0.38c-1.31-1.01-2.62-2.02-3.93-3.03c-0.71,0.92-1.22,1.99-1.19,3.19c0.03,1.01,0.61,1.89,1.54,2.28
				c0.94,0.4,1.99,0.18,2.73-0.52c0.22-0.21,0.45-0.42,0.67-0.63c-1.31-1.01-2.62-2.02-3.93-3.03c-0.13,0.24-0.25,0.48-0.38,0.72
				c-0.61,1.16-0.33,2.77,0.9,3.42C44.77,92.42,46.38,92.15,47.03,90.92L47.03,90.92z"/>
		</g>
	</g>
	<g>
		<path class="st2" d="M69.98,97.52c-5.75,5.54-13.02,9.48-20.81,11.26c-1.07,0.25-2.16,0.45-3.26,0.54
			c-1.1,0.09-2.21,0.06-3.32,0.13c-1.34,0.09-2.68,0.33-4.01,0.19c-1.12-0.11-2.21-0.49-3.15-1.1"/>
		<g>
			<path class="st2" d="M68.21,95.75c-4.19,3.9-8.97,7.02-14.35,9.02c-4.57,1.7-12.47,3.89-17.17,1.61
				c-2.88-1.4-5.42,2.91-2.52,4.32c5.73,2.78,13.67,1.33,19.51-0.58c6.81-2.23,12.83-5.96,18.07-10.83
				C74.11,97.09,70.57,93.56,68.21,95.75L68.21,95.75z"/>
		</g>
	</g>
	<g>
		<path class="st2" d="M34.7,110.62c-0.07,0.08-0.14-0.13-0.04-0.15c0.1-0.02,0.18,0.08,0.23,0.17c1.67,2.78,4.77,4.32,7.7,5.71
			c1.11,0.53,2.22,1.05,3.37,1.49c5.15,1.98,10.81,2.12,16.33,1.93c1.7-0.06,3.41-0.15,5.04-0.63"/>
		<g>
			<path class="st2" d="M35.96,108.46c-0.03-0.01-0.05-0.02-0.08-0.04c0.38,0.94,0.77,1.88,1.15,2.82c0.01-0.04,0.03-0.08,0.04-0.11
				c-1.22,0.5-2.45,1-3.67,1.49c1.67,1.21,2.83,3.12,4.81,4.28c2.71,1.59,5.81,3.03,8.83,3.94c6.5,1.95,14.36,2.16,20.96,0.71
				c3.14-0.69,1.81-5.51-1.33-4.82c-5.95,1.31-13.44,1.01-19.17-1c-2.49-0.88-5.14-2.05-7.38-3.49c-1.69-1.09-2.62-2.78-4.2-3.93
				c-1.42-1.03-3.16,0.13-3.67,1.49c-0.01,0.04-0.03,0.08-0.04,0.11c-0.35,0.93,0.21,2.41,1.15,2.82c0.03,0.01,0.05,0.02,0.08,0.04
				C36.35,114.05,38.9,109.75,35.96,108.46L35.96,108.46z"/>
		</g>
	</g>
	<g>
		<path class="st2" d="M35.27,110.35c0.06,0.03,0.13,0.05,0.19,0.08c-0.31-0.32-0.68-0.57-1.09-0.73c0.04-0.1,0.08-0.2,0.13-0.29
			c-0.27,0.14-0.62,0.11-0.87-0.08c0.1,0,0.2,0,0.3,0c-0.26-0.15-0.51-0.31-0.77-0.46c0.48-0.03,0.97,0.09,1.37,0.36"/>
		<g>
			<path class="st2" d="M34.6,112.77c0.06,0.03,0.13,0.05,0.19,0.08c0.98,0.39,2.35-0.25,2.82-1.15c0.51-0.97,0.43-2.24-0.39-3.03
				c-0.47-0.45-1-0.86-1.6-1.12c0.3,1.14,0.6,2.28,0.9,3.42c0.04-0.1,0.08-0.2,0.13-0.29c0.41-0.96,0.48-1.9-0.2-2.78
				c-0.56-0.72-1.71-1.26-2.63-0.9c-0.28,0.09-0.18,0.11,0.3,0.06c0.27-0.05,0.52-0.01,0.76,0.12c-0.42,1.55-0.84,3.11-1.26,4.66
				c0.1,0,0.2,0,0.3,0c1.05,0.02,2.17-0.78,2.41-1.84c0.25-1.09-0.17-2.23-1.15-2.82c-0.26-0.15-0.51-0.31-0.77-0.46
				c-0.42,1.55-0.84,3.11-1.26,4.66c0.11-0.01,0.21-0.01,0.32,0c-0.37-0.06-0.46-0.07-0.27-0.02c0.59,0.25-0.37-0.23,0.06,0.04
				c1.12,0.67,2.79,0.29,3.42-0.9c0.64-1.21,0.3-2.7-0.9-3.42c-0.79-0.47-1.71-0.73-2.64-0.7c-1.06,0.04-2.16,0.75-2.41,1.84
				c-0.25,1.09,0.17,2.23,1.15,2.82c0.26,0.15,0.51,0.31,0.77,0.46c0.42-1.55,0.84-3.11,1.26-4.66c-0.1,0-0.2,0-0.3,0
				c-1.05-0.02-2.17,0.78-2.41,1.84c-0.25,1.1,0.17,2.22,1.15,2.82c0.79,0.49,1.91,0.68,2.79,0.33c-0.94-1.22-1.88-2.45-2.82-3.67
				c-0.04,0.1-0.08,0.2-0.13,0.29c-0.26,0.61-0.47,1.25-0.25,1.93c0.19,0.57,0.57,1.24,1.15,1.49c0.18,0.08,0.34,0.18,0.52,0.26
				c0.16,0.1,0.1,0.05-0.17-0.15c0.09,0.07,0.17,0.15,0.24,0.22c0.81-1.39,1.62-2.79,2.43-4.18c-0.06-0.03-0.13-0.05-0.19-0.08
				c-0.57-0.22-1.42-0.04-1.93,0.25c-0.52,0.3-1.01,0.9-1.15,1.49C32.53,111.13,33.3,112.25,34.6,112.77L34.6,112.77z"/>
		</g>
	</g>
	<g>
		<path class="st2" d="M43.52,113.84c-1-0.47-2.09-0.75-3.19-0.84c1.78,0.07,3.65,0.17,5.16,1.12c0.46,0.29,0.87,0.65,1.32,0.95
			c1.98,1.34,4.52,1.46,6.91,1.5c2.54,0.05,5.11,0.05,7.6-0.45c1.35-0.28,2.67-0.7,4.03-0.96c1.39-0.26,2.8-0.35,4.2-0.55
			c0.88-0.13,1.81-0.32,2.46-0.93c0.78-0.72,0.99-1.85,1.1-2.9c0.25-2.47,0.15-4.97-0.3-7.41c-0.11-0.58-0.24-1.18-0.14-1.77
			c0.24-1.38,1.67-2.35,1.84-3.74c0.01-0.1,0.02-0.21-0.04-0.29c-0.07-0.12-0.22-0.16-0.36-0.16c-0.66-0.03-1.2,0.5-1.65,1
			c-1.6,1.77-3.17,3.56-4.75,5.35c-0.85,0.97-1.71,1.94-2.79,2.65c-1.09,0.71-2.36,1.11-3.6,1.51c-3.51,1.14-6.97,2.43-10.37,3.85
			c-1.32,0.55-2.74,1.13-4.14,0.85c3.1,0.6,6.29-0.11,9.36-0.81c1.76-0.4,3.53-0.8,5.29-1.21c2.64-0.6,5.31-1.21,7.71-2.46
			c0.68-0.35,1.36-0.78,1.79-1.41s0.54-1.54,0.09-2.16c0.01,1.65-0.07,3.3-0.24,4.94c-0.03,0.33-0.08,0.67-0.27,0.94
			c-0.2,0.27-0.52,0.42-0.83,0.56c-4.59,1.94-9.67,2.25-14.64,2.53"/>
		<g>
			<path class="st2" d="M44.18,111.43c-1.01-0.47-2.08-0.75-3.19-0.84c-0.22,1.64-0.44,3.27-0.66,4.91
				c4.07,0.22,7.06,3.1,11.22,3.47c4.53,0.4,8.73-0.13,13.12-1.1c2.91-0.64,7.08-0.26,9.31-2.68c2.39-2.59,1.78-7.18,1.56-10.32
				c-0.1-1.45-0.19-2.58,0.24-3.88c0.2-0.62,0.7-1.17,0.9-1.83c0.29-0.98,0.54-1.89-0.04-2.86c-1.08-1.81-3.4-1.54-4.94-0.56
				c-3.85,2.47-5.4,7.45-9.78,9.34c-2.07,0.89-4.34,1.45-6.47,2.23c-2.66,0.99-5.72,2.84-8.62,2.78c-3.29-0.07-3.12,4.65,0,5
				c6.44,0.73,13.94-1.31,20.04-3.33c3.8-1.26,7.84-3.28,6.61-7.88c-0.73-2.74-4.88-2.15-4.91,0.66c-0.04,3.76-0.55,4.69-4.24,5.48
				c-3.03,0.65-6.16,0.81-9.25,0.99c-3.2,0.19-3.22,5.19,0,5c4.98-0.29,10.73-0.4,15.31-2.62c3.58-1.74,3.14-5.23,3.18-8.84
				c-1.64,0.22-3.27,0.44-4.91,0.66c0.68,2.58-20.33,5.05-21.83,4.88c0,1.67,0,3.33,0,5c2.99,0.06,5.48-1.25,8.23-2.31
				c2.9-1.12,5.94-1.93,8.8-3.13c1.88-0.79,3.32-1.75,4.78-3.19c1.15-1.13,2.15-2.44,3.22-3.64c0.99-1.11,3.3-2.22,1.36-3.11
				c-0.41-0.72-0.83-1.44-1.24-2.16c0.1,0.85-1.67,2.83-1.8,4.03c-0.19,1.74,0.48,3.72,0.55,5.46c0.15,3.77-0.17,4.64-3.98,5.38
				c-1.36,0.26-2.72,0.46-4.08,0.78c-4.02,0.96-9.63,1.75-13.6,0.11c-3.26-1.35-5.07-2.64-8.74-2.83c-2.77-0.15-3.47,4.43-0.66,4.91
				c1.11,0.09,2.18,0.37,3.19,0.84C45.88,117.34,47.19,112.51,44.18,111.43L44.18,111.43z"/>
		</g>
	</g>
	<g>
		<path class="st2" d="M62.8,93.63c0.25-0.86,1.06-1.52,1.95-1.59c-5.37-1.34-10.74-2.68-16.11-4.02c-0.58-0.14-1.34-0.22-1.63,0.3
			c-0.12,0.21-0.12,0.47-0.08,0.71c0.29,1.73,2.26,2.55,3.94,3.06c2,0.6,4.01,1.21,6.02,1.81c2.46,0.74,5.08,1.47,7.56,0.81
			c-1.09-1.81-3.38-2.38-5.28-3.29c-0.98-0.47-2.04-1.35-1.83-2.42c0.23-1.21,1.78-1.52,3-1.62c6.79-0.54,13.48-2.42,19.56-5.48
			c1.08-0.55,2.22-1.21,2.69-2.33c0.45-1.07,0.21-2.4,0.92-3.31c-2.74,4.5-7.55,7.26-12.15,9.83c-2.41,1.34-4.81,2.68-7.22,4.03
			c1.34,3.47,6.26,3.72,8.89,6.35c-0.71-1.6-1.3-3.25-1.75-4.94c0.73,1.23,1.13,2.65,1.15,4.08c-1.36-1.1-2.73-2.2-4.09-3.3
			c0.06,1.52,0.35,3.04,0.86,4.47c0.07-2.02-0.13-4.06-0.59-6.03c0.38,0.86,0.76,1.73,1.14,2.59c0.46-1.82,1.19-3.58,2.16-5.19
			c1.27,1.34,2.08,3.1,2.26,4.94c1.04-1.94,2.09-3.88,3.13-5.83c-0.71,2.94-1.67,5.81-2.87,8.58c1.61-3.77,3.22-7.53,4.83-11.3
			c-1.38,3.26-2.6,6.59-3.68,9.96c2.7-4.76,5.53-9.45,8.49-14.06c-1.98,4.22-3.96,8.45-5.94,12.67c2.47-4.08,4.72-8.29,6.75-12.6
			c-1.4,3.02-2.8,6.03-4.2,9.05c0.78-6.45,3.05-12.72,6.58-18.18c-1.09,3.15-2.46,6.21-4.09,9.12c3.09-6.14,6.65-12.05,10.64-17.65
			C90,69.15,86.7,75.75,83.98,82.57c2.15-4.02,4.39-7.99,6.72-11.91c0.94-1.58,1.94-3.2,3.46-4.24c0.94,1.3,0.95,3.03,0.87,4.62
			c-0.2,3.98-0.73,7.94-1.58,11.83c0.09-4.48,1.11-8.93,2.96-13.01c-2.49,9.6-5.54,19.06-9.12,28.32
			c0.41-6.62,1.82-13.17,4.18-19.37c-1.34,7.32-3.21,14.55-5.58,21.61c0.54-9.16,2.79-18.21,6.6-26.55
			c-2.19,6.91-4.56,13.77-7.1,20.56c-0.21,0.55-0.54,1.2-1.12,1.23c2.02-7.46,5.83-14.28,9.61-21.03
			c-2.72,5.69-5.94,11.14-9.6,16.27c0.18-3.49,1.73-6.73,3.25-9.87c-2.5,5.96-5.2,11.84-8.1,17.62c0.52-3.19,1.4-6.32,2.63-9.3
			c-2.07,5.46-4.15,10.93-6.22,16.39c1.17-4.47,2.52-8.88,4.06-13.24c-1.2,5.81-2.39,11.62-3.59,17.43
			c1.01-4.17,2.27-8.29,3.77-12.31c-0.74,5.31-1.47,10.63-2.21,15.94c1.68-4.39,3.36-8.77,5.04-13.16
			c-0.02,4.52-0.6,9.04-1.75,13.42c0.86-5.26,2.16-10.45,3.89-15.5c-0.63,4.55-1.53,9.07-2.7,13.52c1.02-6.87,2.06-13.86,5-20.15
			c-0.26,6.14-1.35,12.25-3.24,18.1c-0.39-6.22,0.68-12.53,3.1-18.28c0.31,2.14,0.04,4.31-0.23,6.45
			c-0.59,4.62-1.23,9.23-1.91,13.84c1.24-4.74,2.67-9.43,4.29-14.05c0.5-1.43,1.07-2.92,2.25-3.87c-0.3,7.78-2.09,15.42-3.88,23
			c1.15-6.99,2.87-13.88,5.16-20.58c0.15-0.44,0.42-0.97,0.89-0.96c-0.38,6.33-0.92,12.65-1.62,18.95c0.8-6.51,1.77-13,2.91-19.47
			c0.35-2,0.73-4.01,1.58-5.85c-0.15,7.33-0.83,14.66-2.03,21.89c-0.05-9,0.91-18,2.84-26.78c-0.83,5.84-1.65,11.68-2.48,17.52
			c0.11-9.27,1.43-18.53,3.92-27.46c-1.51,9.34-3.24,18.63-5.19,27.89c-0.49-0.19-0.55-0.85-0.52-1.38c0.5-10.03,2.13-20,4.86-29.66
			c-1.41,10.32-2.82,20.64-4.23,30.96c0.31-7.75,1.13-15.48,2.46-23.12c-1.75,9.58-2.9,19.27-3.44,28.99"/>
		<g>
			<path class="st2" d="M64.96,94.89c0.15-0.15,0.3-0.29,0.45-0.44c2.1-0.87,2.63-4.16,0-4.82c-5.27-1.31-11.36-3.88-16.78-4.11
				c-2.41-0.1-4.47,1.14-4.16,3.84c0.41,3.57,4.39,4.7,7.24,5.59c4.46,1.39,8.71,2.92,13.41,2.16c2.04-0.33,2.16-2.9,1.1-4.18
				c-1-1.21-2.02-1.92-3.42-2.65c-1.74-0.91-3.38-0.49-0.77-0.57c3.52-0.11,7.33-1.16,10.65-2.21c3.09-0.97,6.89-2.19,9.55-4.05
				c2.5-1.75,2.3-3.39,3.43-5.94c1.29-2.91-2.48-5.23-4.32-2.52c-4.23,6.24-12.08,9.39-18.47,12.95c-1.21,0.68-1.52,2.25-0.9,3.42
				c2.07,3.9,6.15,4.2,9.28,6.86c1.67,1.42,5.24,0.11,4.18-2.43c-0.68-1.64-1.25-3.24-1.75-4.94c-1.52,0.64-3.05,1.28-4.57,1.93
				c0.27,0.94,0.54,1.88,0.81,2.82c1.42-0.59,2.85-1.18,4.27-1.77c-1.36-1.1-2.73-2.2-4.09-3.3c-1.49-1.2-4.49-0.62-4.27,1.77
				c0.16,1.79,0.44,3.41,0.95,5.14c0.79,2.68,4.91,2.2,4.91-0.66c0-2.28-0.24-4.46-0.68-6.69c-1.52,0.64-3.05,1.28-4.57,1.93
				c0.38,0.86,0.76,1.73,1.14,2.59c0.91,2.07,4.02,1.3,4.57-0.6c0.48-1.64,1.08-3.1,1.9-4.59c-1.31,0.17-2.62,0.34-3.93,0.51
				c0.96,1.13,1.51,2.41,1.62,3.84c0.39,2.13,3.6,2.41,4.57,0.6c1.04-1.94,2.09-3.88,3.13-5.83c-1.52-0.64-3.05-1.28-4.57-1.93
				c-0.77,2.95-1.71,5.77-2.87,8.58c-1.07,2.59,3.46,4.53,4.57,1.93c1.61-3.77,3.22-7.53,4.83-11.3c-1.52-0.64-3.05-1.28-4.57-1.93
				c-1.35,3.28-2.57,6.59-3.68,9.96c-0.89,2.71,3.18,4.37,4.57,1.93c2.71-4.76,5.54-9.44,8.49-14.06c-1.44-0.84-2.88-1.68-4.32-2.52
				c-1.98,4.22-3.96,8.45-5.94,12.67c-1.35,2.87,2.64,5.33,4.32,2.52c2.44-4.1,4.69-8.29,6.75-12.6c-1.44-0.84-2.88-1.68-4.32-2.52
				c-1.4,3.02-2.8,6.03-4.2,9.05c1.52,0.64,3.05,1.28,4.57,1.93c0.89-6.35,2.95-12.13,6.33-17.58c-1.52-0.64-3.05-1.28-4.57-1.93
				c-1.07,2.96-2.35,5.76-3.84,8.53c1.44,0.84,2.88,1.68,4.32,2.52c3.14-6.14,6.68-12.01,10.64-17.65
				c-1.44-0.84-2.88-1.68-4.32-2.52c-3.9,6.51-7.23,13.26-10.08,20.29c-1.07,2.64,3.24,4.39,4.57,1.93
				c2.7-5.02,5.36-11.94,9.79-15.64c-1.31-0.17-2.62-0.34-3.93-0.51c1.75,3.77-0.18,10.71-0.96,14.53c1.64,0.22,3.27,0.44,4.91,0.66
				c0.19-4.11,1.01-7.96,2.62-11.75c-1.52-0.64-3.05-1.28-4.57-1.93c-2.53,9.6-5.57,19.04-9.12,28.32c1.64,0.22,3.27,0.44,4.91,0.66
				c0.49-6.46,1.87-12.63,4.09-18.71c-1.61-0.44-3.21-0.89-4.82-1.33c-1.39,7.33-3.25,14.52-5.58,21.61
				c1.64,0.22,3.27,0.44,4.91,0.66c0.63-8.78,2.7-17.24,6.26-25.29c-1.52-0.64-3.05-1.28-4.57-1.93c-1.1,3.45-2.23,6.9-3.42,10.33
				c-0.61,1.76-2.03,9-3.66,9.97c1.22,0.94,2.45,1.88,3.67,2.82c2.12-7.28,5.67-13.84,9.36-20.43c-1.44-0.84-2.88-1.68-4.32-2.52
				c-2.77,5.69-5.96,11.09-9.6,16.27c1.55,0.42,3.11,0.84,4.66,1.26c0.36-3.12,1.57-5.81,2.91-8.61c-1.44-0.84-2.88-1.68-4.32-2.52
				c-2.52,5.96-5.22,11.83-8.1,17.62c1.52,0.64,3.05,1.28,4.57,1.93c0.58-3.21,1.45-6.26,2.63-9.3c-1.61-0.44-3.21-0.89-4.82-1.33
				c-2.07,5.46-4.15,10.93-6.22,16.39c1.61,0.44,3.21,0.89,4.82,1.33c1.19-4.47,2.54-8.87,4.06-13.24
				c-1.61-0.44-3.21-0.89-4.82-1.33c-1.2,5.81-2.39,11.62-3.59,17.43c-0.64,3.13,4.03,4.48,4.82,1.33c1.05-4.18,2.3-8.26,3.77-12.31
				c-1.61-0.44-3.21-0.89-4.82-1.33c-0.74,5.31-1.47,10.63-2.21,15.94c-0.44,3.16,3.65,4.39,4.82,1.33
				c1.68-4.39,3.36-8.77,5.04-13.16c-1.64-0.22-3.27-0.44-4.91-0.66c-0.09,4.34-0.63,8.53-1.66,12.76c1.61,0.44,3.21,0.89,4.82,1.33
				c0.91-5.27,2.2-10.42,3.89-15.5c-1.61-0.44-3.21-0.89-4.82-1.33c-0.67,4.56-1.56,9.05-2.7,13.52c1.61,0.44,3.21,0.89,4.82,1.33
				c0.99-6.66,2.02-13.34,4.75-19.55c-1.55-0.42-3.11-0.84-4.66-1.26c-0.33,5.97-1.4,11.73-3.15,17.44
				c1.64,0.22,3.27,0.44,4.91,0.66c-0.25-6.14,0.75-11.91,3.01-17.62c-1.64-0.22-3.27-0.44-4.91-0.66
				c0.54,6.45-1.12,13.26-2.05,19.62c-0.45,3.09,3.97,4.53,4.82,1.33c1.32-4.94,2.39-12.91,5.9-16.82
				c-1.42-0.59-2.85-1.18-4.27-1.77c-0.41,7.6-2.05,14.95-3.79,22.34c1.61,0.44,3.21,0.89,4.82,1.33c0.6-3.49,1.29-6.96,2.15-10.4
				c0.35-1.39,1.49-8.96,2.75-9.65c-1.25-0.72-2.51-1.44-3.76-2.16c-0.39,6.33-0.93,12.65-1.62,18.95c-0.35,3.21,4.61,3.14,5,0
				c1-7.98,1.4-17.12,4.4-24.65c-1.64-0.22-3.27-0.44-4.91-0.66c-0.19,7.13-0.82,14.19-1.94,21.23c1.64,0.22,3.27,0.44,4.91,0.66
				c0.02-8.82,0.93-17.49,2.75-26.12c-1.61-0.44-3.21-0.89-4.82-1.33c-0.83,5.84-1.65,11.68-2.48,17.52
				c1.64,0.22,3.27,0.44,4.91,0.66c0.19-9.11,1.47-18,3.84-26.8c-1.61-0.44-3.21-0.89-4.82-1.33c-1.53,9.33-3.26,18.63-5.19,27.89
				c1.39-0.37,2.79-0.74,4.18-1.1c0.43,0.95,0.54,0.46,0.32-1.49c0.08-1.25,0.18-2.5,0.29-3.75c0.27-2.9,0.63-5.79,1.1-8.67
				c0.81-4.96,1.94-9.85,3.27-14.69c-1.61-0.44-3.21-0.89-4.82-1.33c-1.41,10.32-2.82,20.64-4.23,30.96
				c1.64,0.22,3.27,0.44,4.91,0.66c0.34-7.54,1.12-15.01,2.37-22.46c0.53-3.14-4.25-4.51-4.82-1.33c-1.75,9.82-2.94,19.7-3.53,29.66
				c-0.19,3.21,4.81,3.2,5,0c0.57-9.51,1.68-18.95,3.35-28.33c-1.61-0.44-3.21-0.89-4.82-1.33c-1.32,7.88-2.18,15.8-2.55,23.79
				c-0.13,2.76,4.52,3.49,4.91,0.66c1.41-10.32,2.82-20.64,4.23-30.96c0.42-3.08-3.94-4.53-4.82-1.33
				c-1.73,6.28-3.06,12.63-3.92,19.08c-0.54,4.1-2.61,10.87,0.22,14.39c1.16,1.45,3.82,0.63,4.18-1.1
				c1.93-9.26,3.66-18.55,5.19-27.89c0.51-3.11-3.97-4.5-4.82-1.33c-2.48,9.21-3.82,18.59-4.01,28.13
				c-0.06,2.74,4.51,3.51,4.91,0.66c0.83-5.84,1.65-11.68,2.48-17.52c0.44-3.09-4.14-4.55-4.82-1.33
				c-1.92,9.06-2.9,18.19-2.93,27.45c-0.01,2.72,4.46,3.52,4.91,0.66c1.19-7.48,1.92-14.99,2.12-22.56
				c0.08-3.02-3.93-3.13-4.91-0.66c-3.15,7.91-3.52,17.58-4.58,25.98c1.67,0,3.33,0,5,0c0.69-6.31,1.23-12.62,1.62-18.95
				c0.12-1.97-2.19-3.01-3.76-2.16c-2.68,1.45-3.14,5.75-3.89,8.36c-1.39,4.83-2.46,9.72-3.31,14.67c-0.53,3.11,4.07,4.51,4.82,1.33
				c1.84-7.82,3.53-15.63,3.97-23.67c0.12-2.12-2.84-3.35-4.27-1.77c-4.32,4.82-5.56,12.93-7.18,19.02
				c1.61,0.44,3.21,0.89,4.82,1.33c0.99-6.75,2.8-14.12,2.23-20.95c-0.24-2.89-3.87-3.3-4.91-0.66c-2.42,6.11-3.46,12.39-3.19,18.95
				c0.12,2.81,4.07,3.4,4.91,0.66c1.89-6.14,2.97-12.36,3.33-18.77c0.13-2.37-3.65-3.55-4.66-1.26c-2.92,6.66-4.19,13.59-5.26,20.75
				c-0.46,3.09,4.01,4.53,4.82,1.33c1.13-4.47,2.03-8.96,2.7-13.52c0.46-3.12-3.78-4.46-4.82-1.33c-1.68,5.08-2.97,10.22-3.89,15.5
				c-0.54,3.11,4.05,4.51,4.82,1.33c1.13-4.66,1.73-9.29,1.84-14.08c0.06-2.99-3.95-3.17-4.91-0.66c-1.68,4.39-3.36,8.77-5.04,13.16
				c1.61,0.44,3.21,0.89,4.82,1.33c0.74-5.31,1.47-10.63,2.21-15.94c0.44-3.14-3.7-4.42-4.82-1.33c-1.47,4.05-2.72,8.13-3.77,12.31
				c1.61,0.44,3.21,0.89,4.82,1.33c1.2-5.81,2.39-11.62,3.59-17.43c0.65-3.16-3.77-4.38-4.82-1.33c-1.51,4.37-2.86,8.77-4.06,13.24
				c-0.85,3.17,3.7,4.29,4.82,1.33c2.07-5.46,4.15-10.93,6.22-16.39c1.15-3.02-3.67-4.29-4.82-1.33c-1.19,3.04-2.05,6.09-2.63,9.3
				c-0.47,2.59,3.22,4.64,4.57,1.93c2.88-5.79,5.58-11.66,8.1-17.62c1.22-2.89-2.9-5.48-4.32-2.52c-1.74,3.64-3.13,7.1-3.59,11.14
				c-0.31,2.71,3.4,3.05,4.66,1.26c3.64-5.18,6.83-10.58,9.6-16.27c1.4-2.86-2.73-5.36-4.32-2.52c-3.89,6.96-7.62,13.94-9.86,21.62
				c-0.61,2.09,1.81,3.93,3.67,2.82c2.81-1.68,3.43-5.83,4.45-8.68c1.73-4.84,3.36-9.71,4.92-14.6c0.84-2.65-3.41-4.55-4.57-1.93
				c-3.93,8.89-6.25,18.12-6.94,27.82c-0.21,2.93,4.07,3.23,4.91,0.66c2.33-7.09,4.19-14.28,5.58-21.61
				c0.6-3.17-3.72-4.36-4.82-1.33c-2.37,6.5-3.75,13.14-4.27,20.04c-0.23,3.01,3.97,3.11,4.91,0.66c3.55-9.28,6.59-18.71,9.12-28.32
				c0.69-2.63-3.43-4.61-4.57-1.93c-1.96,4.63-3.07,9.25-3.3,14.27c-0.13,2.78,4.34,3.44,4.91,0.66c1.18-5.74,3.03-12.85,0.46-18.38
				c-0.74-1.58-2.81-1.44-3.93-0.51c-4.86,4.06-7.64,11.2-10.57,16.65c1.52,0.64,3.05,1.28,4.57,1.93
				c2.69-6.62,5.91-12.96,9.58-19.1c1.68-2.8-2.5-5.12-4.32-2.52c-3.96,5.65-7.49,11.52-10.64,17.65c-1.46,2.85,2.78,5.37,4.32,2.52
				c1.7-3.15,3.13-6.36,4.34-9.72c0.99-2.74-3.12-4.26-4.57-1.93c-3.59,5.79-5.89,12.02-6.84,18.77c-0.35,2.51,3.25,4.76,4.57,1.93
				c1.4-3.02,2.8-6.03,4.2-9.05c1.34-2.89-2.92-5.44-4.32-2.52c-2.06,4.31-4.31,8.5-6.75,12.6c1.44,0.84,2.88,1.68,4.32,2.52
				c1.98-4.22,3.96-8.45,5.94-12.67c1.35-2.88-2.56-5.27-4.32-2.52c-2.95,4.62-5.78,9.3-8.49,14.06c1.52,0.64,3.05,1.28,4.57,1.93
				c1.1-3.37,2.32-6.68,3.68-9.96c1.07-2.59-3.46-4.53-4.57-1.93c-1.61,3.77-3.22,7.53-4.83,11.3c1.52,0.64,3.05,1.28,4.57,1.93
				c1.16-2.81,2.11-5.64,2.87-8.58c0.7-2.68-3.2-4.48-4.57-1.93c-1.04,1.94-2.09,3.88-3.13,5.83c1.52,0.2,3.05,0.4,4.57,0.6
				c-0.45-2.42-1.38-4.14-2.91-6.04c-1.01-1.26-3.21-0.79-3.93,0.51c-1.04,1.87-1.81,3.73-2.41,5.79c1.52-0.2,3.05-0.4,4.57-0.6
				c-0.38-0.86-0.76-1.73-1.14-2.59c-1.2-2.73-5.09-0.68-4.57,1.93c0.38,1.88,0.51,3.47,0.5,5.36c1.64-0.22,3.27-0.44,4.91-0.66
				c-0.44-1.23-0.7-2.5-0.77-3.81c-1.42,0.59-2.85,1.18-4.27,1.77c1.36,1.1,2.73,2.2,4.09,3.3c1.47,1.19,4.52,0.63,4.27-1.77
				c-0.21-1.99-0.63-3.55-1.5-5.35c-1.23-2.57-5.37-0.76-4.57,1.93c0.5,1.7,1.07,3.3,1.75,4.94c1.39-0.81,2.79-1.62,4.18-2.43
				c-2.48-2.1-6.95-2.94-8.5-5.84c-0.3,1.14-0.6,2.28-0.9,3.42c7.31-4.08,15.43-7.62,20.26-14.75c-1.44-0.84-2.88-1.68-4.32-2.52
				c-0.8,1.81-1.01,3.44-2.71,4.74c-2.13,1.63-5.51,2.42-8.1,3.19c-4.07,1.21-8.89,0.9-12.73,2.49c-2.12,0.87-3.55,2.9-2.72,5.25
				c1.18,3.34,5.54,3.32,7.6,5.81c0.37-1.39,0.74-2.79,1.1-4.18c-1.36,0.22-14.52-1.79-14.28-3.97c-0.41,0.72-0.83,1.44-1.24,2.16
				c0.94-0.53,6.79,1.72,7.76,1.96c2.69,0.67,5.37,1.34,8.06,2.01c0-1.61,0-3.21,0-4.82c-1.79,0.74-2.36,1.13-3.44,2.74
				C58.84,95.04,63.17,97.55,64.96,94.89L64.96,94.89z"/>
		</g>
	</g>
	<g>
		<path class="st2" d="M97.27,115.78c-0.89,1.01-1.58,2.19-2.01,3.47c2.45-5.07,4.91-10.16,6.4-15.59c1.27-4.6,1.82-9.36,2.37-14.1
			c0.88-7.56,1.75-15.12,2.33-22.71c0.17-2.23,0.29-4.59-0.73-6.57c-3.82,10.98-1.85,23.14-4.28,34.51
			c-1.29,6.04-3.81,11.8-4.62,17.93c-0.36,2.73-0.42,5.65-1.94,7.94c0.28-11.42,7.37-21.87,7.47-33.29c0.02-2.54-0.3-5.08-0.38-7.62
			c-0.11-3.8,0.34-7.62,1.4-11.27c-5.07,12.64-7.86,26.19-8.18,39.81c0.89-10.64,2.9-21.28,7.21-31.04
			c-0.44,5.49-1.09,10.97-1.96,16.41c1.56-7.25,3.15-14.55,6.07-21.36c0.15,4.69,0.02,9.39-0.38,14.07
			c0.25-4.33,1.28-8.62,3.03-12.59c0.23,4.98-0.19,9.98-1.25,14.85c-0.1-7.69-0.2-15.42,0.8-23.05c0.73,13.89,2.12,27.74,4.15,41.5
			c-2.19-7.4-2.91-15.24-2.1-22.92c1.05,5.31,2.09,10.63,3.14,15.94c-0.07-4.5-0.13-9.01-0.2-13.51c1.34,3.98,2.27,8.1,2.77,12.27
			c-0.7-4.21-1.15-8.46-1.35-12.72c1.55,4.09,2.43,8.43,2.6,12.8c-1.45-3.79-2.89-7.58-4.34-11.36c-0.56-0.1-0.85,0.63-0.93,1.19
			c-0.68,4.69-1.35,9.38-2.03,14.07c-0.45,0.4-1-0.36-1.11-0.95c-1-5.29-1.73-10.63-2.17-16c-0.22,6.58-0.17,13.18,0.14,19.76
			c-1.55-6.26-2.54-12.66-2.95-19.09c1.29,7.31,2.89,14.56,4.81,21.73c-0.6-4.61-1.19-9.23-1.79-13.84
			c2.65,7.5,5.29,14.99,7.94,22.49c-1.4-5.72-3.08-11.36-5.01-16.92c1.06,5.7,2.81,11.27,5.19,16.56
			c-0.78-3.68-1.56-7.37-2.33-11.05c2.05,3,3.78,6.22,5.15,9.58c-0.47-2.93-0.94-5.86-1.42-8.79c1.18,3.47,2.04,7.05,2.58,10.67"/>
		<g>
			<path class="st2" d="M95.5,114.01c-1.14,1.48-1.94,2.85-2.65,4.57c-1.08,2.6,3.34,4.47,4.57,1.93c4.6-9.54,7.63-18.63,8.9-29.18
				c0.64-5.32,1.24-10.64,1.78-15.96c0.51-5.1,1.75-10.83-0.06-15.76c-0.84-2.29-4.04-2.45-4.82,0c-2.96,9.22-2.43,18.76-3.36,28.28
				c-0.51,5.25-1.92,10.14-3.41,15.17c-1.49,5.01-1.43,11.75-3.81,16.34c1.55,0.42,3.11,0.84,4.66,1.26
				c0.45-8.61,4.36-16.32,6.31-24.61c2.11-8.96-0.23-17.97,2.09-26.91c0.83-3.18-3.67-4.26-4.82-1.33
				c-5.08,12.97-7.83,26.55-8.27,40.47c-0.1,3.26,4.72,3.16,5,0c0.92-10.22,2.83-20.31,6.87-29.78c-1.55-0.42-3.11-0.84-4.66-1.26
				c-0.45,5.27-1.06,10.51-1.87,15.74c-0.48,3.1,4.13,4.53,4.82,1.33c1.57-7.27,3.24-14.46,6.07-21.36
				c-1.64-0.22-3.27-0.44-4.91-0.66c0.11,4.7-0.01,9.38-0.38,14.07c-0.25,3.21,4.75,3.19,5,0c0.33-4.21,1.33-8.05,2.94-11.93
				c-1.64-0.22-3.27-0.44-4.91-0.66c0.14,4.82-0.21,9.44-1.16,14.18c1.64,0.22,3.27,0.44,4.91,0.66c-0.1-7.71-0.11-15.38,0.8-23.05
				c-1.67,0-3.33,0-5,0c0.77,14.12,2.2,28.17,4.24,42.16c1.61-0.44,3.21-0.89,4.82-1.33c-2.05-7.33-2.69-14.68-2.01-22.26
				c-1.64,0.22-3.27,0.44-4.91,0.66c1.05,5.31,2.09,10.63,3.14,15.94c0.55,2.79,4.95,2.12,4.91-0.66c-0.07-4.5-0.13-9.01-0.2-13.51
				c-1.64,0.22-3.27,0.44-4.91,0.66c1.29,4.04,2.21,8.07,2.77,12.27c1.61-0.44,3.21-0.89,4.82-1.33c-0.63-4-1.04-8.01-1.26-12.06
				c-1.64,0.22-3.27,0.44-4.91,0.66c1.4,3.99,2.24,7.9,2.51,12.14c1.64-0.22,3.27-0.44,4.91-0.66c-1.45-3.79-2.89-7.58-4.34-11.36
				c-0.58-1.53-2.15-2.32-3.67-1.49c-2.13,1.15-2.13,3.03-2.46,5.32c-0.55,3.81-1.1,7.62-1.65,11.43c1.03-0.58,2.05-1.16,3.08-1.75
				c-0.12-0.02-1.32-13.1-1.44-14.53c-0.28-3.16-4.9-3.27-5,0c-0.19,6.59-0.15,13.17,0.14,19.76c1.64-0.22,3.27-0.44,4.91-0.66
				c-1.45-6.08-2.41-12.19-2.86-18.43c-1.64,0.22-3.27,0.44-4.91,0.66c1.32,7.31,2.92,14.55,4.81,21.73
				c0.69,2.63,5.28,2.2,4.91-0.66c-0.6-4.61-1.19-9.23-1.79-13.84c-1.64,0.22-3.27,0.44-4.91,0.66c2.65,7.5,5.29,14.99,7.94,22.49
				c1.06,3,5.61,1.83,4.82-1.33c-1.43-5.72-3.1-11.35-5.01-16.92c-1.05-3.05-5.45-1.83-4.82,1.33c1.18,5.95,3.02,11.6,5.44,17.16
				c1.19,2.72,5.12,0.69,4.57-1.93c-0.78-3.68-1.56-7.37-2.33-11.05c-1.52,0.64-3.05,1.28-4.57,1.93c2.02,3.06,3.71,6.21,5.15,9.58
				c1.2,2.81,4.98,0.63,4.57-1.93c-0.47-2.93-0.94-5.86-1.42-8.79c-1.61,0.44-3.21,0.89-4.82,1.33c1.13,3.51,1.98,7.03,2.58,10.67
				c0.52,3.17,5.34,1.82,4.82-1.33c-0.6-3.64-1.45-7.16-2.58-10.67c-1.01-3.12-5.33-1.8-4.82,1.33c0.47,2.93,0.94,5.86,1.42,8.79
				c1.52-0.64,3.05-1.28,4.57-1.93c-1.44-3.37-3.14-6.52-5.15-9.58c-1.57-2.39-5.16-0.88-4.57,1.93c0.78,3.68,1.56,7.37,2.33,11.05
				c1.52-0.64,3.05-1.28,4.57-1.93c-2.24-5.14-3.84-10.46-4.94-15.96c-1.61,0.44-3.21,0.89-4.82,1.33
				c1.92,5.57,3.58,11.2,5.01,16.92c1.61-0.44,3.21-0.89,4.82-1.33c-2.65-7.5-5.29-14.99-7.94-22.49c-0.87-2.46-5.3-2.31-4.91,0.66
				c0.6,4.61,1.19,9.23,1.79,13.84c1.64-0.22,3.27-0.44,4.91-0.66c-1.89-7.18-3.5-14.42-4.81-21.73c-0.5-2.76-5.11-2.14-4.91,0.66
				c0.48,6.68,1.48,13.24,3.04,19.76c0.65,2.72,5.03,2.17,4.91-0.66c-0.29-6.59-0.33-13.17-0.14-19.76c-1.67,0-3.33,0-5,0
				c0.39,4.4,0.91,8.77,1.63,13.13c0.41,2.45,0.49,5.76,3.48,6.23c1.2,0.19,2.87-0.29,3.08-1.75c0.38-2.64,0.76-5.28,1.14-7.92
				c0.18-1.23,0.81-5.93,0.67-5.85c-1.22-0.5-2.45-1-3.67-1.49c1.45,3.79,2.89,7.58,4.34,11.36c0.93,2.44,5.1,2.37,4.91-0.66
				c-0.29-4.65-1.13-9.06-2.68-13.47c-0.88-2.51-5.08-2.32-4.91,0.66c0.25,4.49,0.74,8.94,1.44,13.39c0.5,3.2,5.24,1.8,4.82-1.33
				c-0.57-4.2-1.48-8.23-2.77-12.27c-0.84-2.62-4.95-2.25-4.91,0.66c0.07,4.5,0.13,9.01,0.2,13.51c1.64-0.22,3.27-0.44,4.91-0.66
				c-1.05-5.31-2.09-10.63-3.14-15.94c-0.58-2.95-4.67-1.96-4.91,0.66c-0.72,8.01,0.02,15.84,2.19,23.59
				c0.89,3.18,5.27,1.77,4.82-1.33c-1.97-13.55-3.31-27.16-4.06-40.83c-0.18-3.28-4.63-3.14-5,0c-0.91,7.66-0.9,15.34-0.8,23.05
				c0.03,2.73,4.34,3.51,4.91,0.66c1.03-5.14,1.49-10.27,1.33-15.51c-0.09-2.99-3.87-3.17-4.91-0.66
				c-1.78,4.29-2.76,8.64-3.12,13.26c1.67,0,3.33,0,5,0c0.37-4.69,0.49-9.37,0.38-14.07c-0.07-2.99-3.88-3.17-4.91-0.66
				c-2.83,6.9-4.49,14.09-6.07,21.36c1.61,0.44,3.21,0.89,4.82,1.33c0.87-5.67,1.56-11.36,2.05-17.07c0.2-2.38-3.69-3.54-4.66-1.26
				c-4.4,10.34-6.55,21.15-7.55,32.31c1.67,0,3.33,0,5,0c0.43-13.49,3.17-26.58,8.09-39.14c-1.61-0.44-3.21-0.89-4.82-1.33
				c-2.46,9.48,0.01,19.05-2.49,28.49c-2.16,8.17-5.63,15.81-6.08,24.36c-0.13,2.45,3.53,3.44,4.66,1.26
				c2.26-4.35,2.09-9.29,3.3-13.97c1.38-5.33,3.3-10.46,4.12-15.93c1.56-10.37,0.43-20.97,3.67-31.08c-1.61,0-3.21,0-4.82,0
				c1.7,4.63,0.28,10.57-0.21,15.38c-0.45,4.42-0.96,8.83-1.47,13.24c-1.21,10.31-3.91,19.06-8.43,28.43
				c1.52,0.64,3.05,1.28,4.57,1.93c0.46-0.79,0.91-1.58,1.36-2.36C100.98,115.03,97.46,111.47,95.5,114.01L95.5,114.01z"/>
		</g>
	</g>
	<g>
		<path class="st2" d="M80.59,72.92c-0.51,1.22-1.02,2.45-1.53,3.67c6.02-6.86,11.08-14.55,14.99-22.8
			c-4.29,7.92-8.58,15.85-12.88,23.77c3.71-8.41,7.44-16.84,12.24-24.68c0.54,1.23,0.26,2.65-0.03,3.96
			c-1.24,5.63-2.49,11.25-3.73,16.88c1.87-7.38,4.19-14.64,6.95-21.73c0.36,0.96,0.21,2.03,0.05,3.05
			c-1.01,6.47-2.02,12.95-3.04,19.42c0.4-5.63,1.5-11.21,3.25-16.58c0.26-0.79,0.64-1.69,1.45-1.91c-0.1,5.03-0.34,10.06-0.73,15.08
			c1.11-5.3,2.25-10.68,4.71-15.51c-0.42,5.27-1.54,10.49-3.34,15.47c1.25-5.08,2.54-10.26,5.33-14.69
			c0.24,2.57,0.48,5.15,0.73,7.72c0.53-2.82,1.06-5.64,1.59-8.46c0.07,0.83,0.13,1.67,0.2,2.5c0.14-1.57,0.29-3.15,0.43-4.72
			c0.03-0.27,0.07-0.59,0.3-0.74c0.23-0.16,0.64,0.06,0.52,0.31c0.2-2.72,0.1-5.45-0.3-8.14c3.67,0.55,7.34,1.09,11.01,1.64
			c-5.5-3.33-11.25-7.05-14-12.87c-1.19-2.51-2.03-5.62-4.59-6.69c-1.83,5.06-5.7,9.2-10.17,12.18c-4.48,2.99-9.56,4.93-14.67,6.62
			c1,0.95,2.54,0.95,3.92,0.9c4.52-0.16,9.04-0.33,13.56-0.49c0.67-0.02,1.35-0.05,1.98-0.28c2.3-0.83,2.88-3.72,3.46-6.09
			c0.76-3.08,2.11-6.02,3.96-8.61c-3.85,2.63-5.86,7.33-9.64,10.06c-2.47,1.79-5.56,2.61-7.94,4.52c3.49-2.11,7.31-3.68,11.28-4.62
			c0.3,0.73-0.2,1.55-0.79,2.08c-0.59,0.53-1.3,0.97-1.63,1.69c-0.33,0.72,0.06,1.82,0.85,1.79c0.64-0.02,1.01-0.7,1.25-1.29
			c1.29-3.22,2.35-6.54,3.16-9.92c-0.99,8.14-1.95,16.63,0.77,24.37"/>
		<g>
			<path class="st2" d="M78.18,72.26c-0.51,1.22-1.02,2.45-1.53,3.67c-0.96,2.31,2.61,4.25,4.18,2.43
				c6.13-7.11,11.28-14.85,15.38-23.3c1.39-2.86-2.77-5.38-4.32-2.52c-4.29,7.92-8.58,15.85-12.88,23.77
				c1.44,0.84,2.88,1.68,4.32,2.52c3.72-8.42,7.5-16.78,12.24-24.68c-1.52-0.2-3.05-0.4-4.57-0.6c0.69,2.97-1.04,7.2-1.69,10.13
				c-0.69,3.13-1.38,6.25-2.07,9.38c-0.69,3.13,4.01,4.46,4.82,1.33c1.91-7.38,4.22-14.61,6.95-21.73c-1.61,0-3.21,0-4.82,0
				c0.51,3.48-0.92,7.94-1.47,11.43c-0.51,3.24-1.01,6.47-1.52,9.71c1.64,0.22,3.27,0.44,4.91,0.66c0.25-2.91,0.62-5.79,1.22-8.65
				c0.45-2.14,0.94-6.63,2.75-8.08c-1.42-0.59-2.85-1.18-4.27-1.77c-0.12,5.04-0.36,10.06-0.73,15.08c-0.2,2.8,4.33,3.42,4.91,0.66
				c1.08-5.11,2.21-10.16,4.46-14.91c-1.55-0.42-3.11-0.84-4.66-1.26c-0.48,5.1-1.59,9.97-3.25,14.8c1.61,0.44,3.21,0.89,4.82,1.33
				c1.22-4.92,2.51-9.68,5.08-14.09c-1.55-0.42-3.11-0.84-4.66-1.26c0.24,2.57,0.48,5.15,0.73,7.72c0.24,2.58,4.35,3.65,4.91,0.66
				c0.53-2.82,1.06-5.64,1.59-8.46c-1.64-0.22-3.27-0.44-4.91-0.66c0.07,0.83,0.13,1.67,0.2,2.5c0.25,3.23,4.71,3.2,5,0
				c0.13-1.46,0.09-3.42,0.64-4.8c-0.8,0.61-1.61,1.22-2.41,1.84c0.13,0,0.26,0,0.39,0c-0.72-0.41-1.44-0.83-2.16-1.24
				c0.04,0.1,0.09,0.21,0.13,0.31c1.05,2.46,4.54,0.96,4.66-1.26c0.14-2.75,0.04-5.41-0.3-8.14c-1.05,0.8-2.11,1.61-3.16,2.41
				c3.67,0.55,7.34,1.09,11.01,1.64c2.66,0.4,4.52-2.99,1.93-4.57c-4.65-2.83-9.58-5.85-12.42-10.67c-1.96-3.33-2.61-6.84-6.18-8.89
				c-1.53-0.88-3.07,0.02-3.67,1.49c-3.91,9.66-13.87,13.94-23.09,17.06c-1.98,0.67-2.54,3.45-0.6,4.57
				c3.35,1.93,7.26,1.17,10.99,1.03c3.27-0.12,7.29,0.44,10.39-0.65c2.06-0.72,3.27-2.29,4.12-4.21c1.75-3.97,2.29-7.89,4.79-11.63
				c1.33-1.99-1.42-4.96-3.42-3.42c-2.85,2.19-4.77,4.91-7.12,7.57c-2.94,3.33-6.91,4.53-10.45,7.01c-2.6,1.82-0.31,5.95,2.52,4.32
				c3.4-1.96,6.89-3.38,10.68-4.37c-1.05-0.8-2.11-1.61-3.16-2.41c-0.05,0.85-2.01,2.07-2.33,3.11c-0.2,0.64-0.25,1.48-0.1,2.12
				c0.32,1.43,1.54,2.66,3.03,2.79c5,0.45,6.36-9.88,7.15-13c-1.64-0.22-3.27-0.44-4.91-0.66c-1.02,8.45-1.75,16.79,0.86,25.03
				c0.97,3.06,5.8,1.75,4.82-1.33c-2.46-7.79-1.64-15.73-0.68-23.7c0.34-2.82-4.23-3.35-4.91-0.66c-0.49,1.94-1.45,8.71-3.25,9.72
				c0.84,0,1.68,0,2.52,0c0.05,1.47,0.48,1.62,1.29,0.44c0.26-0.33,0.51-0.66,0.75-0.99c0.62-1.03,0.7-1.62,0.77-2.86
				c0.09-1.65-1.67-2.8-3.16-2.41c-4.21,1.1-8.1,2.7-11.88,4.88c0.84,1.44,1.68,2.88,2.52,4.32c3.06-2.15,6.71-3.27,9.53-5.78
				c2.99-2.66,4.85-6.35,8.05-8.8c-1.14-1.14-2.28-2.28-3.42-3.42c-1.16,1.73-2.15,3.51-2.95,5.44c-0.77,1.87-0.9,4.51-1.91,6.21
				c-1.68,2.84-5.4,2.19-8.19,2.29c-2.73,0.1-7.91,1.15-10.41-0.28c-0.2,1.52-0.4,3.05-0.6,4.57c11.17-3.78,21.93-9.05,26.59-20.55
				c-1.22,0.5-2.45,1-3.67,1.49c2.18,1.25,2.66,3.71,3.7,5.79c0.97,1.94,2.22,3.73,3.69,5.33c3.16,3.46,7.24,6.01,11.21,8.44
				c0.64-1.52,1.28-3.05,1.93-4.57c-3.67-0.55-7.34-1.09-11.01-1.64c-1.4-0.21-3.39,0.62-3.16,2.41c0.34,2.73,0.44,5.4,0.3,8.14
				c1.55-0.42,3.11-0.84,4.66-1.26c-0.04-0.1-0.09-0.21-0.13-0.31c-0.34-0.79-1.36-1.23-2.16-1.24c-0.13,0-0.26,0-0.39,0
				c-1.2-0.01-2,0.8-2.41,1.84c-0.74,1.85-0.64,4.16-0.82,6.13c1.67,0,3.33,0,5,0c-0.07-0.83-0.13-1.67-0.2-2.5
				c-0.21-2.62-4.35-3.62-4.91-0.66c-0.53,2.82-1.06,5.64-1.59,8.46c1.64,0.22,3.27,0.44,4.91,0.66c-0.24-2.57-0.48-5.15-0.73-7.72
				c-0.22-2.35-3.32-3.55-4.66-1.26c-2.79,4.78-4.26,9.94-5.59,15.28c-0.78,3.15,3.78,4.35,4.82,1.33
				c1.81-5.26,2.91-10.6,3.43-16.13c0.23-2.43-3.62-3.46-4.66-1.26c-2.44,5.16-3.78,10.54-4.96,16.1c1.64,0.22,3.27,0.44,4.91,0.66
				c0.37-5.02,0.61-10.05,0.73-15.08c0.06-2.37-2.68-3.03-4.27-1.77c-2.4,1.92-2.95,5.6-3.62,8.45c-0.92,3.89-1.47,7.83-1.81,11.81
				c-0.24,2.78,4.47,3.46,4.91,0.66c0.71-4.53,1.42-9.06,2.13-13.59c0.53-3.42,1.36-6.76,0.86-10.21c-0.4-2.71-4.05-2-4.82,0
				c-2.72,7.12-5.04,14.35-6.95,21.73c1.61,0.44,3.21,0.89,4.82,1.33c0.97-4.38,1.93-8.75,2.9-13.13c0.68-3.06,1.58-5.92,0.86-9.04
				c-0.5-2.14-3.5-2.38-4.57-0.6c-4.74,7.9-8.52,16.27-12.24,24.68c-1.27,2.87,2.75,5.42,4.32,2.52
				c4.29-7.92,8.58-15.85,12.88-23.77c-1.44-0.84-2.88-1.68-4.32-2.52c-3.91,8.07-8.73,15.5-14.59,22.29
				c1.39,0.81,2.79,1.62,4.18,2.43c0.51-1.22,1.02-2.45,1.53-3.67C84.23,70.62,79.4,69.33,78.18,72.26L78.18,72.26z"/>
		</g>
	</g>
	<g>
		<path class="st2" d="M102.96,61.48c-1.84-3.38-1.75-7.47-1.24-11.28c0.52-3.81,1.42-7.63,1.04-11.46
			c-1.23,5.91-0.64,12.19,1.67,17.76c0.09-4.62-0.02-9.25-0.33-13.86c-0.08-1.17-0.18-2.38-0.73-3.42c-0.7-1.32-2.12-2.4-2.05-3.9
			c2.24,2.95,4.48,5.9,6.72,8.85c-2.04,1.27-4.83-0.93-7.05-0.01c-0.45,0.19-0.88,0.5-1.36,0.51c-0.49,0.01-1-0.56-0.7-0.95
			c-0.55,4.15-2.64,8.07-5.76,10.86c0.92-2.67,1.84-5.34,2.77-8.02c-1.81,3.63-3.63,7.25-5.44,10.88c0.47-2.96,1.16-5.88,2.05-8.74
			c-0.35,1.41-0.7,2.83-1.05,4.24c-0.02-1.49-0.03-2.98-0.05-4.46c-0.9,0.22-1.57,1.16-1.48,2.09c-0.22-0.62-0.45-1.25-0.67-1.87
			c0.71,3.68-2.07,7.03-4.7,9.69c-2.77,2.8-5.65,5.55-9.03,7.57c-1.07,0.64-2.19,1.2-3.4,1.5c-0.98,0.24-2,0.3-2.97,0.59
			c-0.88,0.26-1.69,0.71-2.51,1.11c-2.95,1.43-6.16,2.24-9.35,3.04c1.99,0.64,4.14,0.53,6.23,0.41c4.96-0.28,10.06-0.58,14.58-2.66
			c3.83-1.76,7.07-4.77,9.1-8.46c0.88-1.61,1.56-3.47,1.11-5.25c-3.32,4.63-7,9.02-10.98,13.1"/>
		<g>
			<path class="st2" d="M105.12,60.22c-3.03-6.69,0.47-14.45,0.15-21.48c-0.12-2.67-4.39-3.58-4.91-0.66
				c-1.18,6.55-0.71,12.86,1.67,19.09c0.97,2.53,4.87,2.32,4.91-0.66c0.06-4.6,0.08-9.27-0.33-13.86c-0.13-1.51-0.22-2.68-0.82-4.09
				c-0.59-1.4-1.77-2.35-2.05-3.9c-1.52,0.64-3.05,1.28-4.57,1.93c2.24,2.95,4.48,5.9,6.72,8.85c0.5-1.22,1-2.45,1.49-3.67
				c-1.6,0.56-3.06-0.24-4.63-0.28c-0.31-0.01-3.17,0.36-2.51,0.7c0.41,0.72,0.83,1.44,1.24,2.16c-0.02-0.21-0.04-0.42-0.06-0.62
				c-0.23-2.59-4.37-3.65-4.91-0.66c-0.7,3.9-2.26,6.96-5.12,9.75c1.39,0.81,2.79,1.62,4.18,2.43c0.92-2.67,1.84-5.34,2.77-8.02
				c0.92-2.66-3.3-4.46-4.57-1.93c-1.81,3.63-3.63,7.25-5.44,10.88c1.52,0.64,3.05,1.28,4.57,1.93c0.52-2.97,1.19-5.85,2.05-8.74
				c-1.61-0.44-3.21-0.89-4.82-1.33c-0.35,1.41-0.7,2.83-1.05,4.24c1.64,0.22,3.27,0.44,4.91,0.66c-0.02-1.49-0.03-2.98-0.05-4.46
				c-0.02-1.77-2.16-3.28-3.76-2.16c-1.65,1.15-2.08,1.64-2.63,3.58c1.61,0,3.21,0,4.82,0c-0.22-0.62-0.45-1.25-0.67-1.87
				c-0.89-2.49-5.1-2.33-4.91,0.66c0.39,5.98-8.56,13.38-13.59,15.71c-2.09,0.97-4.43,1.08-6.56,1.99c-3.31,1.41-6.49,2.51-9.98,3.4
				c-2.35,0.6-2.42,4.26,0,4.82c6.88,1.59,16.34,0.54,22.73-2.5c5.72-2.72,12.16-9.01,11.44-15.87c-0.26-2.53-3.15-3.33-4.66-1.26
				c-3.24,4.45-6.77,8.63-10.59,12.6c-2.23,2.32,1.3,5.86,3.54,3.54c4.11-4.28,7.88-8.81,11.37-13.61
				c-1.55-0.42-3.11-0.84-4.66-1.26c0.63,6.06-6.39,10.9-11.46,12.45c-4.81,1.46-11.45,2.24-16.38,1.1c0,1.61,0,3.21,0,4.82
				c4.16-1.06,7.84-2.81,11.85-4.15c3.75-1.26,6.44-1.77,9.75-4.24c5.42-4.04,12.67-10.09,12.19-17.52
				c-1.64,0.22-3.27,0.44-4.91,0.66c0.22,0.62,0.45,1.25,0.67,1.87c0.8,2.24,4.12,2.5,4.82,0c0.11-0.2,0.22-0.39,0.33-0.59
				c-1.25-0.72-2.51-1.44-3.76-2.16c0.02,1.49,0.03,2.98,0.05,4.46c0.03,2.77,4.22,3.46,4.91,0.66c0.35-1.41,0.7-2.83,1.05-4.24
				c0.77-3.13-3.9-4.42-4.82-1.33c-0.86,2.89-1.54,5.77-2.05,8.74c-0.45,2.58,3.21,4.65,4.57,1.93c1.81-3.63,3.63-7.25,5.44-10.88
				c-1.52-0.64-3.05-1.28-4.57-1.93c-0.92,2.67-1.84,5.34-2.77,8.02c-0.84,2.44,2.48,4.1,4.18,2.43c3.41-3.34,5.55-7.25,6.4-11.96
				c-1.64-0.22-3.27-0.44-4.91-0.66c0.16,1.85,1.12,3.39,3.2,3.45c0.71-0.05,1.39-0.25,2.03-0.6c1.18-0.02,2.34,0.1,3.48,0.37
				c1.38,0.07,2.25,0.1,3.57-0.36c1.35-0.47,2.54-2.29,1.49-3.67c-2.24-2.95-4.48-5.9-6.72-8.85c-1.7-2.24-5.11-0.98-4.57,1.93
				c0.57,3.09,2.44,5.32,2.81,8.63c0.44,3.9,0.26,7.97,0.21,11.88c1.64-0.22,3.27-0.44,4.91-0.66c-2.04-5.35-2.68-10.78-1.67-16.43
				c-1.64-0.22-3.27-0.44-4.91-0.66c0.38,8.36-3.11,15.97,0.53,24.01C102.13,65.67,106.44,63.13,105.12,60.22L105.12,60.22z"/>
		</g>
	</g>
	<g>
		<path class="st2" d="M77.97,117.82c-2.11-0.08-3.54,2.05-4.53,3.92c0.42-2.07,0.69-4.18,0.82-6.29c-0.78,1.06-1.55,2.12-2.33,3.18
			c1.12-2.55,2.66-4.9,4.56-6.94c-2.02,2.26-3.86,4.7-5.48,7.26c1.71-3.18,3.6-6.26,5.64-9.24c-1.98,5.74-3.97,11.48-5.95,17.22
			c0.19-2.05,0.66-4.07,1.4-5.98c-0.91,4.3-2.07,8.55-3.49,12.72c0.83-2.83,1.66-5.66,2.5-8.49c-0.7,3.36-1.43,6.79-3.17,9.75
			s-4.71,5.42-8.14,5.62c2.73-0.73,5.34-1.86,7.75-3.34c1.43-0.88,2.79-1.89,3.93-3.12c1.16-1.25,2.07-2.7,2.97-4.14
			c3.99-6.39,7.95-13.06,9.13-20.5c-3.43,7.36-7.54,14.4-12.24,21.02c3.2-8.07,13.43-11,18.14-18.3c1.17-1.82,1.96-3.85,2.74-5.86
			c-3.12,9.45-8.28,18.22-15.03,25.53c3.82-4.51,6.47-9.9,10.18-14.5c4.33-5.37,10.26-10,11.78-16.73
			c-0.85,4.04-1.7,8.07-2.54,12.11c-0.58,2.77-1.16,5.57-1.03,8.39c0.93-4.93,2.14-9.82,3.63-14.61c0.11,5.22,0.02,10.44-0.25,15.65
			c0.49-4.95,0.98-9.91,1.47-14.86c0.84,3.79,1.68,7.58,2.52,11.37c-0.4-3.8-0.8-7.6-1.2-11.4c1.46,3.82,2.93,7.65,4.39,11.47
			c-0.55-3.04-1.1-6.07-1.65-9.11c1.41,3.17,2.82,6.34,4.23,9.51c-0.85-3.56-1.91-7.08-3.17-10.52c1.49,3.84,3.3,7.56,5.4,11.11
			c-1.29-4.25-2.82-8.42-4.57-12.51c2.13,3.54,4.47,6.94,7.03,10.19c-1.36-3.55-2.95-7.01-4.75-10.36c1.6,4.03,3.91,7.78,6.77,11.04
			c-1.31-2.12-2.46-4.34-3.44-6.63c2.24,3.82,4.64,7.55,7.19,11.17c-0.37-1.6-0.96-3.14-1.75-4.58c1.99,3.2,3.79,6.52,5.38,9.93
			c-2.03-2.31-4.06-4.61-6.09-6.92c1.08,2.03,2.15,4.06,3.23,6.09c-4.46-3.03-6.69-8.41-10.5-12.22c0.54,1.38,1.49,2.59,2.69,3.45
			c-1.8-5.09-4.63-9.8-8.28-13.78c0.57,2.05,1.75,3.93,3.35,5.33c-2.09-3.57-4.94-6.7-8.31-9.1c3.37,4.07,6.8,8.09,10.29,12.06
			c-0.94-2.09-2.15-4.05-3.6-5.83c2.95,6.44,6.29,12.7,9.99,18.74c-2.44-3.37-4.89-6.74-7.33-10.11c2.23,3.98,4.7,7.82,7.41,11.49
			c-2.52-4.1-5.38-8-8.53-11.64c1.79,4.08,4.07,7.95,6.78,11.48c-2.07-3.65-4.46-7.11-7.13-10.34c1.77,3.59,3.54,7.17,5.31,10.76
			c-2.3-3.66-4.92-7.13-7.8-10.35c1.84,4.16,4.29,8.05,7.26,11.5c-1.97-4.08-5-7.64-8.71-10.23c1.91,4.74,5.53,8.77,10.04,11.18
			c0.9-1.89,0.06-4.11-0.78-6.02c2.11,3.65,4.52,7.13,7.2,10.39c-0.93-1.14-1.85-2.28-2.78-3.42c1.49,2.52,2.97,5.04,4.46,7.57
			c-2-2.61-4.25-5.04-6.69-7.24c0.48,2.23,1.11,4.44,1.89,6.58c-1.82-0.85-3.65-1.69-5.47-2.54c-0.35,2.13,3.28,2.88,3.64,5
			c0.08,0.46-0.01,0.93-0.17,1.37c-1.08,2.98-4.75,4.01-7.91,4.19c-6.1,0.33-12.15-0.99-18.21-1.84c-6.05-0.85-12.4-1.19-18.11,0.99
			c-1.32,0.51-2.63,1.15-4.04,1.21s-2.99-0.69-3.32-2.07c8.98-6,17.97-12.01,26.57-18.55c3.05-2.32,6.31-5.18,6.49-9.01
			c0.02-0.49-0.02-1.01-0.29-1.42c-0.61-0.92-2.03-0.8-3.01-0.29c-4.07,2.15-4.34,8.24-8.04,10.97c3.54-2.77,6.78-5.93,9.64-9.41
			c1.66,2.36,3.71,4.44,6.04,6.13c2.36,1.71,4.99,3.01,7.33,4.76c2.33,1.74,4.42,4.06,5.05,6.9c0.21,0.97-0.16,2.4-1.15,2.26
			c-0.46-0.07-0.77-0.48-1.03-0.87c-2.35-3.47-4.37-7.21-7.29-10.22c-2.91-3.01-7-5.27-11.16-4.73c1.89,3.34,5.06,5.75,8.27,7.85
			c3.99,2.62,8.19,4.92,12.55,6.88c-6.26-4.51-13.49-7.68-21.05-9.23c3.98,3.63,8.86,6.26,14.08,7.59
			c-5.11-2.34-10.71-3.59-16.33-3.65c2.75,1.76,6.02,2.69,9.29,2.66c-4.03-0.81-8.38-1.59-12.11,0.13c-0.3,0.14-0.64,0.51-0.4,0.74
			c2.47,0.33,5,0.23,7.44-0.31c-4.06-0.33-8.16-0.02-12.13,0.9c2.13,0.66,4.41,0.83,6.61,0.51c-6.68-0.11-13.38,1.96-18.83,5.81
			c1.25,0.92,2.98,0.66,4.52,0.41c4.28-0.68,8.64-0.9,12.97-0.66c8.73,0.49,17.6,2.86,26.1,0.77c-1.92-2.52-5.17-3.56-8.26-4.25
			c-7.5-1.69-15.26-2.15-22.91-1.36c2.34,1.06,4.91,1.51,7.44,1.95c6.88,1.2,13.76,2.39,20.64,3.59
			c-8.52-1.52-16.99-3.28-25.41-5.27"/>
		<g>
			<path class="st2" d="M77.3,115.41c-2.98,0.5-4.58,2.55-6.02,5.07c1.52,0.64,3.05,1.28,4.57,1.93c0.43-2.31,0.73-4.61,0.91-6.95
				c0.22-2.73-3.35-3.05-4.66-1.26c-0.78,1.06-1.55,2.12-2.33,3.18c1.44,0.84,2.88,1.68,4.32,2.52c1.14-2.39,2.42-4.42,4.16-6.43
				c-1.18-1.18-2.36-2.36-3.54-3.54c-2.14,2.47-4.08,5.03-5.87,7.76c1.44,0.84,2.88,1.68,4.32,2.52c1.75-3.17,3.62-6.24,5.64-9.24
				c-1.52-0.64-3.05-1.28-4.57-1.93c-1.98,5.74-3.97,11.48-5.95,17.22c1.64,0.22,3.27,0.44,4.91,0.66c0.24-1.9,0.69-3.53,1.31-5.32
				c-1.61-0.44-3.21-0.89-4.82-1.33c-0.95,4.31-2.1,8.53-3.49,12.72c1.61,0.44,3.21,0.89,4.82,1.33c0.83-2.83,1.66-5.66,2.5-8.49
				c-1.61-0.44-3.21-0.89-4.82-1.33c-1.22,5.74-2.81,12.6-9.57,13.63c0.44,1.61,0.89,3.21,1.33,4.82
				c6.98-2.1,12.21-5.61,16.14-11.76c4.18-6.53,7.94-13.41,9.38-21.1c0.48-2.58-3.27-4.66-4.57-1.93
				c-3.49,7.36-7.56,14.35-12.24,21.02c1.44,0.84,2.88,1.68,4.32,2.52c2.43-5.36,7.4-8.2,11.83-11.74
				c4.56-3.64,7.17-7.61,9.29-13.02c-1.61-0.44-3.21-0.89-4.82-1.33c-3.12,9.11-7.94,17.28-14.39,24.43
				c1.18,1.18,2.36,2.36,3.54,3.54c4.66-5.78,8.13-12.35,13.13-17.87c3.99-4.4,7.86-8.6,9.48-14.45c-1.61-0.44-3.21-0.89-4.82-1.33
				c-1.45,6.91-3.66,14.06-3.67,21.16c0,2.74,4.36,3.5,4.91,0.66c0.96-4.94,2.17-9.79,3.63-14.61c-1.64-0.22-3.27-0.44-4.91-0.66
				c0.08,5.22,0,10.43-0.25,15.65c-0.16,3.26,4.69,3.15,5,0c0.49-4.95,0.98-9.91,1.47-14.86c-1.64,0.22-3.27,0.44-4.91,0.66
				c0.84,3.79,1.68,7.58,2.52,11.37c0.6,2.7,5.21,2.17,4.91-0.66c-0.4-3.8-0.8-7.6-1.2-11.4c-1.64,0.22-3.27,0.44-4.91,0.66
				c1.46,3.82,2.93,7.65,4.39,11.47c1.15,3,5.4,1.86,4.82-1.33c-0.55-3.04-1.1-6.07-1.65-9.11c-1.52,0.64-3.05,1.28-4.57,1.93
				c1.41,3.17,2.82,6.34,4.23,9.51c1.18,2.66,5.23,0.73,4.57-1.93c-0.89-3.57-1.94-7.06-3.17-10.52c-1.61,0.44-3.21,0.89-4.82,1.33
				c1.63,4.04,3.48,7.93,5.65,11.71c1.39,2.42,5.43,0.82,4.57-1.93c-1.33-4.25-2.85-8.4-4.57-12.51c-1.52,0.64-3.05,1.28-4.57,1.93
				c2.17,3.53,4.49,6.91,7.03,10.19c1.54,1.99,5.72,0.98,4.57-1.93c-1.49-3.75-3.13-7.38-5-10.96c-1.53-2.92-5.53-0.35-4.32,2.52
				c1.8,4.25,4.19,8.02,7.16,11.55c1.85,2.2,5.35-0.63,3.93-3.03c-1.28-2.16-2.41-4.34-3.44-6.63c-1.44,0.84-2.88,1.68-4.32,2.52
				c2.26,3.82,4.65,7.53,7.19,11.17c1.55,2.23,5.38,0.95,4.57-1.93c-0.52-1.83-1.17-3.47-2-5.18c-1.44,0.84-2.88,1.68-4.32,2.52
				c1.96,3.23,3.75,6.53,5.38,9.93c1.31-1.01,2.62-2.02,3.93-3.03c-2.03-2.31-4.06-4.61-6.09-6.92c-1.94-2.2-5.21,0.61-3.93,3.03
				c1.08,2.03,2.15,4.06,3.23,6.09c1.14-1.14,2.28-2.28,3.42-3.42c-4.14-3.14-6.49-8.07-10-11.83c-2.01-2.16-5.17,0.58-3.93,3.03
				c0.82,1.6,1.71,2.76,3.08,3.96c1.7,1.48,5.13,0.1,4.18-2.43c-2.09-5.55-5-10.43-8.92-14.88c-1.62-1.84-5.01,0.1-4.18,2.43
				c0.9,2.53,2.1,4.51,3.99,6.43c1.97,2,5.45-0.59,3.93-3.03c-2.47-3.97-5.48-7.19-9.2-10c-2.42-1.83-4.7,1.91-3.03,3.93
				c3.38,4.06,6.81,8.08,10.29,12.06c1.97,2.25,5.11-0.61,3.93-3.03c-1.03-2.09-2.19-3.97-3.6-5.83c-1.93-2.55-5.69-0.44-4.32,2.52
				c2.99,6.44,6.31,12.67,9.99,18.74c1.44-0.84,2.88-1.68,4.32-2.52c-2.44-3.37-4.89-6.74-7.33-10.11
				c-1.85-2.55-5.94-0.33-4.32,2.52c2.26,3.97,4.72,7.79,7.41,11.49c1.85,2.55,6.06,0.25,4.32-2.52c-2.69-4.27-5.66-8.3-8.93-12.15
				c-1.97-2.32-5.02,0.64-3.93,3.03c1.87,4.09,4.1,7.87,6.78,11.48c1.87,2.52,5.98,0.33,4.32-2.52c-2.23-3.82-4.74-7.4-7.52-10.85
				c-1.87-2.33-5.11,0.64-3.93,3.03c1.77,3.59,3.54,7.17,5.31,10.76c1.44-0.84,2.88-1.68,4.32-2.52c-2.47-3.83-5.19-7.43-8.19-10.86
				c-1.99-2.28-5.04,0.62-3.93,3.03c2.03,4.37,4.58,8.3,7.65,12c1.89,2.28,5.17-0.62,3.93-3.03c-2.35-4.54-5.52-8.09-9.61-11.13
				c-2.25-1.67-4.31,1.44-3.42,3.42c2.33,5.21,6.01,9.21,10.94,12.07c1.37,0.8,3.27,0.08,3.67-1.49c0.7-2.73,0.28-4.73-0.78-7.35
				c-1.52,0.64-3.05,1.28-4.57,1.93c2.27,3.83,4.81,7.42,7.59,10.89c1.18-1.18,2.36-2.36,3.54-3.54c-0.93-1.14-1.85-2.28-2.78-3.42
				c-1.82-2.24-5.34,0.64-3.93,3.03c1.49,2.52,2.97,5.04,4.46,7.57c1.31-1.01,2.62-2.02,3.93-3.03c-2.06-2.6-4.26-4.99-6.69-7.24
				c-1.85-1.72-4.75-0.02-4.18,2.43c0.52,2.24,1.14,4.41,1.89,6.58c1.22-0.94,2.45-1.88,3.67-2.82c-1.82-0.85-3.65-1.69-5.47-2.54
				c-1.55-0.72-3.94,0.09-3.76,2.16c0.11,1.23,0.31,2.06,1.04,3.06c0.93,1.28,3.01,1.67,1.91,3.42c-2.45,3.93-14.57,1.02-17.9,0.51
				c-4.76-0.74-9.55-1.55-14.39-1.41c-2.15,0.06-4.32,0.28-6.42,0.76c-1.43,0.33-6.73,3.17-7.7,1.24c-0.3,1.14-0.6,2.28-0.9,3.42
				c6.87-4.59,13.74-9.18,20.44-14.01c4.64-3.35,11.49-7.15,13.33-12.99c1.25-3.96-0.61-8.39-5.4-7c-5.45,1.57-5.91,8.46-9.69,11.8
				c-2.45,2.16,1.08,5.51,3.54,3.54c3.53-2.84,6.71-5.95,9.64-9.41c-1.31-0.17-2.62-0.34-3.93-0.51c2.58,3.42,5.51,6.16,9.13,8.47
				c2.15,1.37,4.45,2.58,6.31,4.34c1.18,1.12,1.37,2.25,3.08,2.41c2.13,0.2,0.23-1.37-0.54-2.54c-4.22-6.47-9.64-12.63-18.04-12.22
				c-1.8,0.09-3.24,2.09-2.16,3.76c4.86,7.55,13.79,11.97,21.72,15.63c2.92,1.35,5.19-2.46,2.52-4.32
				c-6.59-4.6-13.81-7.75-21.65-9.48c-2.26-0.5-4.44,2.44-2.43,4.18c4.49,3.89,9.46,6.62,15.19,8.23c2.64,0.74,4.59-3.42,1.93-4.57
				c-5.67-2.45-11.4-3.8-17.59-3.99c-2.5-0.08-3.38,3.45-1.26,4.66c3.34,1.91,6.7,2.85,10.55,3c2.77,0.11,3.46-4.36,0.66-4.91
				c-3.57-0.7-15.72-3.05-15.67,3.28c0.01,1.44,1.14,2.38,2.5,2.5c2.79,0.25,5.36,0.08,8.1-0.4c2.91-0.51,2.01-4.76-0.66-4.91
				c-4.35-0.25-8.54,0.1-12.79,0.99c-2.44,0.51-2.33,4.24,0,4.82c2.46,0.61,4.75,0.83,7.28,0.6c3.15-0.28,3.27-5.03,0-5
				c-7.29,0.08-14.02,2.1-20.09,6.16c-1.92,1.28-1.38,3.75,0.6,4.57c3.19,1.32,6.46,0.23,9.79-0.04c4.05-0.34,8.07-0.2,12.11,0.2
				c7.78,0.77,15.25,2,23.01,0.38c1.94-0.41,2.29-2.87,1.1-4.18c-3.41-3.76-8.3-4.82-13.13-5.64c-6.57-1.11-13.17-1.3-19.8-0.71
				c-2.88,0.26-3.31,3.86-0.66,4.91c8.63,3.44,18.96,3.96,28.08,5.55c3.14,0.55,4.5-4.25,1.33-4.82
				c-8.52-1.54-16.99-3.29-25.41-5.27c-3.13-0.74-4.47,4.08-1.33,4.82c8.43,1.98,16.9,3.74,25.41,5.27
				c0.44-1.61,0.89-3.21,1.33-4.82c-9.12-1.59-19.45-2.11-28.08-5.55c-0.22,1.64-0.44,3.27-0.66,4.91
				c5.11-0.46,10.23-0.52,15.33,0.08c4.68,0.55,10.72,1.11,14.06,4.8c0.37-1.39,0.74-2.79,1.1-4.18
				c-7.25,1.51-14.43,0.17-21.68-0.55c-3.1-0.31-6.21-0.48-9.33-0.37c-3.32,0.12-8.19,1.65-11.25,0.39c0.2,1.52,0.4,3.05,0.6,4.57
				c5.36-3.58,11.11-5.41,17.57-5.47c0-1.67,0-3.33,0-5c-2.2,0.2-3.73,0.13-5.95-0.42c0,1.61,0,3.21,0,4.82
				c3.83-0.8,7.56-1.04,11.46-0.81c-0.22-1.64-0.44-3.27-0.66-4.91c-2.43,0.42-4.38,0.44-6.77,0.22c0.83,0.83,1.67,1.67,2.5,2.5
				c0.01,1.94,2.15,0.73,3.84,0.75c1.85,0.01,3.69,0.44,5.5,0.8c0.22-1.64,0.44-3.27,0.66-4.91c-3-0.11-5.41-0.82-8.02-2.32
				c-0.42,1.55-0.84,3.11-1.26,4.66c5.26,0.17,10.23,1.22,15.06,3.31c0.64-1.52,1.28-3.05,1.93-4.57
				c-4.89-1.38-9.13-3.61-12.98-6.95c-0.81,1.39-1.62,2.79-2.43,4.18c7.44,1.64,14.21,4.61,20.46,8.97
				c0.84-1.44,1.68-2.88,2.52-4.32c-7.01-3.23-15.61-7.14-19.92-13.83c-0.72,1.25-1.44,2.51-2.16,3.76
				c7.87-0.38,11.63,6.75,15.42,12.4c1.55,2.31,4.17,5.08,6.81,2.13c2.53-2.83-0.25-7.42-2.19-9.65c-4.53-5.21-11.4-7.2-15.67-12.86
				c-0.88-1.17-2.78-1.86-3.93-0.51c-2.93,3.46-6.11,6.57-9.64,9.41c1.18,1.18,2.36,2.36,3.54,3.54c2.53-2.24,3.43-5.12,5.15-7.92
				c0.46-0.9,1.07-1.69,1.8-2.39c-0.44,1.42-1.2,2.64-2.29,3.65c-1.51,1.6-3.37,2.87-5.12,4.19c-7.89,5.89-16.09,11.36-24.28,16.83
				c-1.17,0.79-1.54,2.15-0.9,3.42c2.89,5.73,8.86,2.07,13.35,1.06c8.01-1.81,16.31,0.6,24.27,1.52c5.13,0.59,12.52,1.41,16.64-2.66
				c1.44-1.42,2.49-3.63,2.07-5.69c-0.37-1.77-3.45-3.15-3.55-4.34c-1.25,0.72-2.51,1.44-3.76,2.16c1.82,0.85,3.65,1.69,5.47,2.54
				c1.8,0.84,4.45-0.57,3.67-2.82c-0.75-2.17-1.37-4.35-1.89-6.58c-1.39,0.81-2.79,1.62-4.18,2.43c2.43,2.26,4.63,4.65,6.69,7.24
				c1.79,2.26,5.34-0.64,3.93-3.03c-1.49-2.52-2.97-5.04-4.46-7.57c-1.31,1.01-2.62,2.02-3.93,3.03c0.93,1.14,1.85,2.28,2.78,3.42
				c2.03,2.5,5.53-1.05,3.54-3.54c-2.52-3.14-4.75-6.42-6.81-9.88c-1.39-2.34-5.67-0.78-4.57,1.93c0.78,1.45,1.04,3.01,0.78,4.69
				c1.22-0.5,2.45-1,3.67-1.49c-4.25-2.47-7.15-5.8-9.14-10.28c-1.14,1.14-2.28,2.28-3.42,3.42c3.4,2.52,5.88,5.6,7.82,9.33
				c1.31-1.01,2.62-2.02,3.93-3.03c-2.81-3.39-5.02-7-6.87-10.99c-1.31,1.01-2.62,2.02-3.93,3.03c2.72,3.11,5.17,6.38,7.41,9.85
				c1.76,2.72,5.74,0.36,4.32-2.52c-1.77-3.59-3.54-7.17-5.31-10.76c-1.31,1.01-2.62,2.02-3.93,3.03c2.51,3.12,4.72,6.38,6.73,9.84
				c1.44-0.84,2.88-1.68,4.32-2.52c-2.68-3.61-4.92-7.39-6.78-11.48c-1.31,1.01-2.62,2.02-3.93,3.03c3,3.53,5.68,7.22,8.14,11.13
				c1.44-0.84,2.88-1.68,4.32-2.52c-2.68-3.7-5.14-7.52-7.41-11.49c-1.44,0.84-2.88,1.68-4.32,2.52c2.44,3.37,4.89,6.74,7.33,10.11
				c1.85,2.55,6.02,0.29,4.32-2.52c-3.68-6.07-7-12.31-9.99-18.74c-1.44,0.84-2.88,1.68-4.32,2.52c1.41,1.86,2.57,3.74,3.6,5.83
				c1.31-1.01,2.62-2.02,3.93-3.03c-3.48-3.97-6.92-7.99-10.29-12.06c-1.01,1.31-2.02,2.62-3.03,3.93c3.03,2.29,5.4,4.98,7.41,8.21
				c1.31-1.01,2.62-2.02,3.93-3.03c-1.33-1.14-2.23-2.55-2.71-4.23c-1.39,0.81-2.79,1.62-4.18,2.43c3.34,3.79,5.86,7.95,7.64,12.67
				c1.39-0.81,2.79-1.62,4.18-2.43c-1.07-0.73-1.84-1.71-2.3-2.95c-1.31,1.01-2.62,2.02-3.93,3.03c3.88,4.16,6.41,9.13,11.01,12.61
				c2.14,1.62,4.48-1.42,3.42-3.42c-1.08-2.03-2.15-4.06-3.23-6.09c-1.31,1.01-2.62,2.02-3.93,3.03c2.03,2.31,4.06,4.61,6.09,6.92
				c1.98,2.25,5.09-0.61,3.93-3.03c-1.63-3.41-3.42-6.7-5.38-9.93c-1.69-2.78-5.72-0.35-4.32,2.52c0.68,1.26,1.18,2.59,1.5,3.98
				c1.52-0.64,3.05-1.28,4.57-1.93c-2.54-3.64-4.93-7.35-7.19-11.17c-1.68-2.83-5.61-0.35-4.32,2.52c1.03,2.29,2.16,4.47,3.44,6.63
				c1.31-1.01,2.62-2.02,3.93-3.03c-2.71-3.22-4.74-6.67-6.38-10.53c-1.44,0.84-2.88,1.68-4.32,2.52c1.67,3.19,3.17,6.42,4.5,9.76
				c1.52-0.64,3.05-1.28,4.57-1.93c-2.53-3.28-4.86-6.66-7.03-10.19c-1.41-2.3-5.71-0.78-4.57,1.93c1.72,4.11,3.24,8.26,4.57,12.51
				c1.52-0.64,3.05-1.28,4.57-1.93c-1.96-3.4-3.68-6.87-5.15-10.51c-1.17-2.92-5.92-1.75-4.82,1.33c1.23,3.46,2.29,6.95,3.17,10.52
				c1.52-0.64,3.05-1.28,4.57-1.93c-1.41-3.17-2.82-6.34-4.23-9.51c-1.22-2.76-5.04-0.66-4.57,1.93c0.55,3.04,1.1,6.07,1.65,9.11
				c1.61-0.44,3.21-0.89,4.82-1.33c-1.46-3.82-2.93-7.65-4.39-11.47c-0.92-2.4-5.23-2.37-4.91,0.66c0.4,3.8,0.8,7.6,1.2,11.4
				c1.64-0.22,3.27-0.44,4.91-0.66c-0.84-3.79-1.68-7.58-2.52-11.37c-0.65-2.94-4.65-1.97-4.91,0.66
				c-0.49,4.95-0.98,9.91-1.47,14.86c1.67,0,3.33,0,5,0c0.25-5.22,0.33-10.43,0.25-15.65c-0.04-2.83-4.09-3.38-4.91-0.66
				c-1.46,4.82-2.66,9.67-3.63,14.61c1.64,0.22,3.27,0.44,4.91,0.66c0.01-6.61,2.13-13.39,3.49-19.83c0.66-3.13-3.95-4.46-4.82-1.33
				c-1.66,5.97-6.31,9.92-10.19,14.48c-4.16,4.9-7.1,10.65-11.13,15.64c-1.98,2.45,1.34,5.97,3.54,3.54
				c7.03-7.8,12.27-16.71,15.68-26.64c1.06-3.09-3.67-4.27-4.82-1.33c-2.5,6.38-6.47,9.6-11.75,13.62
				c-3.64,2.78-6.95,5.69-8.87,9.94c-1.32,2.92,2.45,5.19,4.32,2.52c4.68-6.67,8.75-13.66,12.24-21.02
				c-1.52-0.64-3.05-1.28-4.57-1.93c-1.15,6.16-3.84,11.6-7.05,16.93c-3.81,6.35-7.74,10.25-14.98,12.43
				c-3.16,0.95-1.78,5.3,1.33,4.82c8.58-1.31,11.48-9.67,13.06-17.12c0.66-3.13-3.91-4.44-4.82-1.33c-0.83,2.83-1.66,5.66-2.5,8.49
				c-0.91,3.11,3.82,4.37,4.82,1.33c1.39-4.19,2.55-8.41,3.49-12.72c0.69-3.16-3.77-4.37-4.82-1.33c-0.76,2.2-1.2,4.35-1.49,6.65
				c-0.37,2.94,4.05,3.17,4.91,0.66c1.98-5.74,3.97-11.48,5.95-17.22c0.97-2.81-3.06-4.16-4.57-1.93c-2.02,3-3.9,6.07-5.64,9.24
				c-1.56,2.84,2.56,5.2,4.32,2.52c1.56-2.37,3.24-4.6,5.09-6.75c2.09-2.42-1.42-5.97-3.54-3.54c-2,2.3-3.62,4.68-4.95,7.45
				c-1.41,2.93,2.42,5.11,4.32,2.52c0.78-1.06,1.55-2.12,2.33-3.18c-1.55-0.42-3.11-0.84-4.66-1.26c-0.15,1.9-0.39,3.75-0.74,5.63
				c-0.49,2.66,3.08,4.53,4.57,1.93c0.55-1.35,1.56-2.27,3.03-2.77C81.8,119.71,80.46,114.89,77.3,115.41L77.3,115.41z"/>
		</g>
	</g>
	<g>
		<g>
			<path class="st2" d="M133.55,118.82c-3.51,4.38-4.3,10.11-0.61,14.72c4.04,5.03,11.87,5.5,17.72,6.56
				c3.21,0.58,4.3-3.63,1.33-4.82c-4.24-1.7-8.22-5.14-12.03-7.65c-3.72-2.45-7.42-4.94-11.09-7.47c-2.65-1.84-5.15,2.5-2.52,4.32
				c4.15,2.88,8.36,5.68,12.58,8.46c3.79,2.49,7.51,5.48,11.73,7.17c0.44-1.61,0.89-3.21,1.33-4.82
				c-5.64-1.02-22.59-3.33-14.9-12.92C139.08,119.87,135.56,116.31,133.55,118.82L133.55,118.82z"/>
		</g>
	</g>
</g>
</svg>
